G04*
G04 #@! TF.GenerationSoftware,Altium Limited,Altium Designer,22.4.2 (48)*
G04*
G04 Layer_Color=65535*
%FSLAX25Y25*%
%MOIN*%
G70*
G04*
G04 #@! TF.SameCoordinates,2A41B901-7CA2-4390-9F02-5F8C8343CA34*
G04*
G04*
G04 #@! TF.FilePolarity,Positive*
G04*
G01*
G75*
%ADD10C,0.00500*%
%ADD11C,0.01575*%
%ADD12C,0.00787*%
%ADD13C,0.00000*%
%ADD14C,0.00600*%
%ADD15C,0.01000*%
D10*
X28859Y93924D02*
G03*
X20347Y103052I-8820J308D01*
G01*
Y58365D02*
G03*
X28859Y67493I-308J8820D01*
G01*
X10511Y67542D02*
G03*
X20352Y58365I9509J332D01*
G01*
Y103052D02*
G03*
X10511Y93875I-332J-9509D01*
G01*
X28858Y67520D02*
Y93898D01*
X10512Y67520D02*
Y93898D01*
X42913Y81399D02*
X42926Y83457D01*
X35827Y81399D02*
X35831Y83390D01*
X44882Y185729D02*
X44895Y187788D01*
X37795Y185729D02*
X37799Y187721D01*
X44882Y158170D02*
X44895Y160229D01*
X37795Y158170D02*
X37799Y160161D01*
X44882Y128643D02*
X44895Y130701D01*
X37795Y128643D02*
X37799Y130634D01*
X109843Y93210D02*
X109855Y95268D01*
X102756Y93210D02*
X102760Y95201D01*
X125591Y94274D02*
X125603Y96332D01*
X118504Y94274D02*
X118508Y96265D01*
X24213Y184449D02*
Y189724D01*
X30906Y184449D02*
Y189724D01*
X24213Y156811D02*
Y162087D01*
X30906Y156811D02*
Y162087D01*
X24213Y127284D02*
Y132559D01*
X30906Y127284D02*
Y132559D01*
X109646Y2953D02*
Y34449D01*
Y2953D02*
X142323D01*
Y34449D01*
X146850D01*
Y44996D01*
X105118Y34449D02*
X109646D01*
X105118D02*
Y45996D01*
X129984Y59996D02*
X137484D01*
X114984D02*
X120984D01*
X118110Y233071D02*
X153543D01*
Y176378D02*
Y233071D01*
X118110Y176378D02*
Y180634D01*
X147327Y176378D02*
X153543D01*
X118110Y201634D02*
Y233071D01*
Y176378D02*
X124827D01*
X150236Y150000D02*
Y151476D01*
X128189D02*
X150236D01*
X128189Y150000D02*
Y151476D01*
Y139862D02*
Y141339D01*
Y139862D02*
X150236D01*
Y141339D01*
X39803Y219409D02*
Y229331D01*
X109803D01*
Y219409D02*
Y229331D01*
X39803Y219409D02*
X109803D01*
D11*
X106299Y66142D02*
G03*
X106299Y66142I-787J0D01*
G01*
X136614Y171260D02*
G03*
X136614Y171260I-787J0D01*
G01*
D12*
X155181Y145669D02*
G03*
X155181Y145669I-394J0D01*
G01*
X45197Y233268D02*
G03*
X45197Y233268I-394J0D01*
G01*
X144685Y103347D02*
X147047D01*
X150591Y99803D01*
X132874D02*
X136417Y103347D01*
X138779D01*
X150591Y85630D02*
Y99803D01*
X144685Y85630D02*
X150591D01*
X132874D02*
X138779D01*
X132874D02*
Y99803D01*
D13*
X73603Y113220D02*
G03*
X76003Y113220I1200J0D01*
G01*
D14*
X59803Y112420D02*
Y113220D01*
X73603D01*
X76003D01*
X89803D01*
Y71820D02*
Y72620D01*
X59803Y71820D02*
X89803D01*
X59803D02*
Y72620D01*
X89803Y112420D02*
Y113220D01*
D15*
X11498Y41300D02*
X10842Y41956D01*
X9530D01*
X8874Y41300D01*
Y38676D01*
X9530Y38020D01*
X10842D01*
X11498Y38676D01*
X12810Y41956D02*
Y38020D01*
Y39988D01*
X13466Y40644D01*
X14778D01*
X15434Y39988D01*
Y38020D01*
X16746Y40644D02*
Y38676D01*
X17402Y38020D01*
X19369D01*
Y40644D01*
X23305D02*
X21337D01*
X20681Y39988D01*
Y38676D01*
X21337Y38020D01*
X23305D01*
X24617D02*
Y41956D01*
Y39332D02*
X26585Y40644D01*
X24617Y39332D02*
X26585Y38020D01*
X32489D02*
Y41956D01*
X35112Y38020D01*
Y41956D01*
X37080Y38020D02*
X38392D01*
X39048Y38676D01*
Y39988D01*
X38392Y40644D01*
X37080D01*
X36424Y39988D01*
Y38676D01*
X37080Y38020D01*
X40360Y40644D02*
Y38020D01*
Y39332D01*
X41016Y39988D01*
X41672Y40644D01*
X42328D01*
X44296D02*
Y38020D01*
Y39332D01*
X44952Y39988D01*
X45608Y40644D01*
X46264D01*
X48231Y38020D02*
X49543D01*
X48887D01*
Y40644D01*
X48231D01*
X51511Y38020D02*
X53479D01*
X54135Y38676D01*
X53479Y39332D01*
X52167D01*
X51511Y39988D01*
X52167Y40644D01*
X54135D01*
X56103Y42612D02*
Y41300D01*
X55447Y40644D01*
X58071Y38020D02*
X60039D01*
X60695Y38676D01*
X60039Y39332D01*
X58727D01*
X58071Y39988D01*
X58727Y40644D01*
X60695D01*
X8874Y30241D02*
Y34177D01*
Y31553D02*
X10842Y32865D01*
X8874Y31553D02*
X10842Y30241D01*
X14778D02*
X13466D01*
X12810Y30897D01*
Y32209D01*
X13466Y32865D01*
X14778D01*
X15434Y32209D01*
Y31553D01*
X12810D01*
X16746Y32865D02*
Y30897D01*
X17402Y30241D01*
X19369D01*
Y29585D01*
X18713Y28929D01*
X18057D01*
X19369Y30241D02*
Y32865D01*
X20681Y34177D02*
Y30241D01*
X22649D01*
X23305Y30897D01*
Y31553D01*
Y32209D01*
X22649Y32865D01*
X20681D01*
X25273Y30241D02*
X26585D01*
X27241Y30897D01*
Y32209D01*
X26585Y32865D01*
X25273D01*
X24617Y32209D01*
Y30897D01*
X25273Y30241D01*
X29209Y32865D02*
X30521D01*
X31176Y32209D01*
Y30241D01*
X29209D01*
X28553Y30897D01*
X29209Y31553D01*
X31176D01*
X32489Y32865D02*
Y30241D01*
Y31553D01*
X33144Y32209D01*
X33800Y32865D01*
X34456D01*
X39048Y34177D02*
Y30241D01*
X37080D01*
X36424Y30897D01*
Y32209D01*
X37080Y32865D01*
X39048D01*
X46920Y34177D02*
Y30241D01*
X44952D01*
X44296Y30897D01*
Y32209D01*
X44952Y32865D01*
X46920D01*
X48887Y30241D02*
X50199D01*
X50855Y30897D01*
Y32209D01*
X50199Y32865D01*
X48887D01*
X48231Y32209D01*
Y30897D01*
X48887Y30241D01*
X54135D02*
X52823D01*
X52167Y30897D01*
Y32209D01*
X52823Y32865D01*
X54135D01*
X54791Y32209D01*
Y31553D01*
X52167D01*
X56103Y30241D02*
X58071D01*
X58727Y30897D01*
X58071Y31553D01*
X56759D01*
X56103Y32209D01*
X56759Y32865D01*
X58727D01*
X60039Y30241D02*
Y32865D01*
X62006D01*
X62663Y32209D01*
Y30241D01*
X64630Y34833D02*
Y33521D01*
X63974Y32865D01*
X67254Y33521D02*
Y32865D01*
X66598D01*
X67910D01*
X67254D01*
Y30897D01*
X67910Y30241D01*
X73814Y34177D02*
Y30241D01*
Y32209D01*
X74470Y32865D01*
X75782D01*
X76437Y32209D01*
Y30241D01*
X78405Y32865D02*
X79717D01*
X80373Y32209D01*
Y30241D01*
X78405D01*
X77750Y30897D01*
X78405Y31553D01*
X80373D01*
X81685Y32865D02*
X82997Y30241D01*
X84309Y32865D01*
X87589Y30241D02*
X86277D01*
X85621Y30897D01*
Y32209D01*
X86277Y32865D01*
X87589D01*
X88245Y32209D01*
Y31553D01*
X85621D01*
X9530Y24430D02*
X10842D01*
X11498Y23775D01*
Y21807D01*
X9530D01*
X8874Y22463D01*
X9530Y23119D01*
X11498D01*
X19369Y25086D02*
X18713Y25742D01*
X17402D01*
X16746Y25086D01*
Y22463D01*
X17402Y21807D01*
X18713D01*
X19369Y22463D01*
X21337Y25086D02*
Y24430D01*
X20681D01*
X21993D01*
X21337D01*
Y22463D01*
X21993Y21807D01*
X23961Y24430D02*
Y21807D01*
Y23119D01*
X24617Y23775D01*
X25273Y24430D01*
X25929D01*
X27897Y21807D02*
X29209D01*
X28553D01*
Y25742D01*
X27897D01*
X35112Y21807D02*
Y25742D01*
Y23119D02*
X37080Y24430D01*
X35112Y23119D02*
X37080Y21807D01*
X41016D02*
X39704D01*
X39048Y22463D01*
Y23775D01*
X39704Y24430D01*
X41016D01*
X41672Y23775D01*
Y23119D01*
X39048D01*
X42984Y24430D02*
Y22463D01*
X43640Y21807D01*
X45608D01*
Y21151D01*
X44952Y20495D01*
X44296D01*
X45608Y21807D02*
Y24430D01*
X50855Y25742D02*
Y21807D01*
X52823D01*
X53479Y22463D01*
Y23119D01*
Y23775D01*
X52823Y24430D01*
X50855D01*
X56759Y21807D02*
X55447D01*
X54791Y22463D01*
Y23775D01*
X55447Y24430D01*
X56759D01*
X57415Y23775D01*
Y23119D01*
X54791D01*
X61351Y24430D02*
X59383D01*
X58727Y23775D01*
Y22463D01*
X59383Y21807D01*
X61351D01*
X63318Y24430D02*
X64630D01*
X65286Y23775D01*
Y21807D01*
X63318D01*
X62663Y22463D01*
X63318Y23119D01*
X65286D01*
X66598Y24430D02*
Y22463D01*
X67254Y21807D01*
X69222D01*
Y24430D01*
X70534Y21807D02*
X72502D01*
X73158Y22463D01*
X72502Y23119D01*
X71190D01*
X70534Y23775D01*
X71190Y24430D01*
X73158D01*
X76437Y21807D02*
X75126D01*
X74470Y22463D01*
Y23775D01*
X75126Y24430D01*
X76437D01*
X77093Y23775D01*
Y23119D01*
X74470D01*
X8874Y13372D02*
Y15996D01*
X10842D01*
X11498Y15340D01*
Y13372D01*
X13466D02*
X14778D01*
X15434Y14028D01*
Y15340D01*
X14778Y15996D01*
X13466D01*
X12810Y15340D01*
Y14028D01*
X13466Y13372D01*
X17402Y16652D02*
Y15996D01*
X16746D01*
X18057D01*
X17402D01*
Y14028D01*
X18057Y13372D01*
X20025Y17308D02*
Y13372D01*
Y15340D01*
X20681Y15996D01*
X21993D01*
X22649Y15340D01*
Y13372D01*
X23961D02*
X25273D01*
X24617D01*
Y15996D01*
X23961D01*
X27241Y13372D02*
Y15996D01*
X29209D01*
X29865Y15340D01*
Y13372D01*
X32489Y12060D02*
X33144D01*
X33800Y12716D01*
Y15996D01*
X31833D01*
X31176Y15340D01*
Y14028D01*
X31833Y13372D01*
X33800D01*
X41672Y15996D02*
X39704D01*
X39048Y15340D01*
Y14028D01*
X39704Y13372D01*
X41672D01*
X43640D02*
X44952D01*
X45608Y14028D01*
Y15340D01*
X44952Y15996D01*
X43640D01*
X42984Y15340D01*
Y14028D01*
X43640Y13372D01*
X46920D02*
Y15996D01*
X48887D01*
X49543Y15340D01*
Y13372D01*
X51511Y16652D02*
Y15996D01*
X50855D01*
X52167D01*
X51511D01*
Y14028D01*
X52167Y13372D01*
X54135Y15996D02*
Y13372D01*
Y14684D01*
X54791Y15340D01*
X55447Y15996D01*
X56103D01*
X58727Y13372D02*
X60039D01*
X60695Y14028D01*
Y15340D01*
X60039Y15996D01*
X58727D01*
X58071Y15340D01*
Y14028D01*
X58727Y13372D01*
X62006D02*
X63318D01*
X62663D01*
Y17308D01*
X62006D01*
X65286Y13372D02*
X67254D01*
X67910Y14028D01*
X67254Y14684D01*
X65942D01*
X65286Y15340D01*
X65942Y15996D01*
X67910D01*
X75782Y16652D02*
X75126Y17308D01*
X73814D01*
X73158Y16652D01*
Y14028D01*
X73814Y13372D01*
X75126D01*
X75782Y14028D01*
X77093Y17308D02*
Y13372D01*
Y15340D01*
X77750Y15996D01*
X79061D01*
X79717Y15340D01*
Y13372D01*
X81029Y15996D02*
Y14028D01*
X81685Y13372D01*
X83653D01*
Y15996D01*
X87589D02*
X85621D01*
X84965Y15340D01*
Y14028D01*
X85621Y13372D01*
X87589D01*
X88901D02*
Y17308D01*
Y14684D02*
X90869Y15996D01*
X88901Y14684D02*
X90869Y13372D01*
X8874Y4937D02*
Y8873D01*
X11498Y4937D01*
Y8873D01*
X13466Y4937D02*
X14778D01*
X15434Y5593D01*
Y6905D01*
X14778Y7561D01*
X13466D01*
X12810Y6905D01*
Y5593D01*
X13466Y4937D01*
X16746Y7561D02*
Y4937D01*
Y6249D01*
X17402Y6905D01*
X18057Y7561D01*
X18713D01*
X20681D02*
Y4937D01*
Y6249D01*
X21337Y6905D01*
X21993Y7561D01*
X22649D01*
X24617Y4937D02*
X25929D01*
X25273D01*
Y7561D01*
X24617D01*
X27897Y4937D02*
X29865D01*
X30521Y5593D01*
X29865Y6249D01*
X28553D01*
X27897Y6905D01*
X28553Y7561D01*
X30521D01*
X31833Y4937D02*
Y5593D01*
X32489D01*
Y4937D01*
X31833D01*
X4937Y230002D02*
X7561Y227378D01*
X6249Y228690D01*
X7561Y230002D01*
X4937Y227378D01*
X9529D02*
X10841D01*
X11497Y228034D01*
Y229346D01*
X10841Y230002D01*
X9529D01*
X8873Y229346D01*
Y228034D01*
X9529Y227378D01*
X12809Y230002D02*
Y227378D01*
Y228690D01*
X13464Y229346D01*
X14120Y230002D01*
X14776D01*
X18712Y227378D02*
X17400D01*
X16744Y228034D01*
Y229346D01*
X17400Y230002D01*
X18712D01*
X19368Y229346D01*
Y228690D01*
X16744D01*
X21336Y227378D02*
X22648D01*
X23304Y228034D01*
Y229346D01*
X22648Y230002D01*
X21336D01*
X20680Y229346D01*
Y228034D01*
X21336Y227378D01*
X42969Y211630D02*
Y217628D01*
X45968D01*
X46968Y216628D01*
Y214629D01*
X45968Y213629D01*
X42969D01*
X44968D02*
X46968Y211630D01*
X56743Y216628D02*
X55744Y217628D01*
X53744D01*
X52745Y216628D01*
Y212630D01*
X53744Y211630D01*
X55744D01*
X56743Y212630D01*
Y214629D01*
X54744D01*
X63992Y217628D02*
Y211630D01*
X66991D01*
X67991Y212630D01*
Y213629D01*
X66991Y214629D01*
X63992D01*
X66991D01*
X67991Y215629D01*
Y216628D01*
X66991Y217628D01*
X63992D01*
X108033Y213505D02*
X109033Y214505D01*
Y216504D01*
X108033Y217504D01*
X104034D01*
X103035Y216504D01*
Y214505D01*
X104034Y213505D01*
X106034D01*
Y215505D01*
X103035Y211506D02*
X109033D01*
X103035Y207507D01*
X109033D01*
Y205508D02*
X103035D01*
Y202509D01*
X104034Y201509D01*
X108033D01*
X109033Y202509D01*
Y205508D01*
X77864Y217504D02*
X71866D01*
X74865D01*
Y213505D01*
X77864D01*
X71866D01*
X76864Y207507D02*
X77864Y208507D01*
Y210506D01*
X76864Y211506D01*
X75865D01*
X74865Y210506D01*
Y208507D01*
X73865Y207507D01*
X72866D01*
X71866Y208507D01*
Y210506D01*
X72866Y211506D01*
X77864Y205508D02*
X76864D01*
X74865Y203508D01*
X76864Y201509D01*
X77864D01*
X74865Y203508D02*
X71866D01*
Y199510D02*
X77864D01*
X71866Y195511D01*
X77864D01*
X76864Y189513D02*
X77864Y190513D01*
Y192512D01*
X76864Y193512D01*
X72866D01*
X71866Y192512D01*
Y190513D01*
X72866Y189513D01*
X87707Y217504D02*
X83708D01*
X81709Y215505D01*
X83708Y213505D01*
X87707D01*
X86707Y207507D02*
X87707Y208507D01*
Y210506D01*
X86707Y211506D01*
X85707D01*
X84708Y210506D01*
Y208507D01*
X83708Y207507D01*
X82708D01*
X81709Y208507D01*
Y210506D01*
X82708Y211506D01*
X87707Y205508D02*
X86707D01*
X84708Y203508D01*
X86707Y201509D01*
X87707D01*
X84708Y203508D02*
X81709D01*
Y199510D02*
X87707D01*
X81709Y195511D01*
X87707D01*
X86707Y189513D02*
X87707Y190513D01*
Y192512D01*
X86707Y193512D01*
X82708D01*
X81709Y192512D01*
Y190513D01*
X82708Y189513D01*
X99518Y217504D02*
X95519D01*
X93520Y215505D01*
X95519Y213505D01*
X99518D01*
X97518Y207507D02*
Y210506D01*
X96519Y211506D01*
X94519D01*
X93520Y210506D01*
Y207507D01*
X97518Y201509D02*
Y204508D01*
X96519Y205508D01*
X94519D01*
X93520Y204508D01*
Y201509D01*
X10400Y113398D02*
X14399Y107400D01*
Y113398D02*
X10400Y107400D01*
X16398D02*
X18397D01*
X17398D01*
Y113398D01*
X16398Y112398D01*
X24100Y141700D02*
Y147698D01*
X27099D01*
X28099Y146698D01*
Y144699D01*
X27099Y143699D01*
X24100D01*
X26099D02*
X28099Y141700D01*
X30098Y146698D02*
X31098Y147698D01*
X33097D01*
X34097Y146698D01*
Y145699D01*
X33097Y144699D01*
X32097D01*
X33097D01*
X34097Y143699D01*
Y142700D01*
X33097Y141700D01*
X31098D01*
X30098Y142700D01*
X24100Y171300D02*
Y177298D01*
X27099D01*
X28099Y176298D01*
Y174299D01*
X27099Y173299D01*
X24100D01*
X26099D02*
X28099Y171300D01*
X34097D02*
X30098D01*
X34097Y175299D01*
Y176298D01*
X33097Y177298D01*
X31098D01*
X30098Y176298D01*
X24100Y198900D02*
Y204898D01*
X27099D01*
X28099Y203898D01*
Y201899D01*
X27099Y200899D01*
X24100D01*
X26099D02*
X28099Y198900D01*
X30098D02*
X32097D01*
X31098D01*
Y204898D01*
X30098Y203898D01*
X139640Y166292D02*
Y172290D01*
X142639D01*
X143639Y171291D01*
Y169291D01*
X142639Y168292D01*
X139640D01*
X145638Y172290D02*
Y166292D01*
X147638Y168292D01*
X149637Y166292D01*
Y172290D01*
X151637Y166292D02*
Y172290D01*
X154636D01*
X155635Y171291D01*
Y169291D01*
X154636Y168292D01*
X151637D01*
X153636D02*
X155635Y166292D01*
X117987Y65899D02*
Y71897D01*
X120986D01*
X121985Y70897D01*
Y68898D01*
X120986Y67898D01*
X117987D01*
X119986D02*
X121985Y65899D01*
X127984Y70897D02*
X126984Y71897D01*
X124985D01*
X123985Y70897D01*
Y66898D01*
X124985Y65899D01*
X126984D01*
X127984Y66898D01*
X129983Y65899D02*
Y69897D01*
X131982Y71897D01*
X133982Y69897D01*
Y65899D01*
Y68898D01*
X129983D01*
X53000Y125898D02*
X54999D01*
X54000D01*
Y119900D01*
X53000D01*
X54999D01*
X61997Y124898D02*
X60997Y125898D01*
X58998D01*
X57998Y124898D01*
Y120900D01*
X58998Y119900D01*
X60997D01*
X61997Y120900D01*
X63996Y119900D02*
X65996D01*
X64996D01*
Y125898D01*
X63996Y124898D01*
X126100Y161598D02*
Y155600D01*
X129099D01*
X130099Y156600D01*
Y160598D01*
X129099Y161598D01*
X126100D01*
X132098Y155600D02*
X134097D01*
X133098D01*
Y161598D01*
X132098Y160598D01*
X133799Y119298D02*
X132799Y120298D01*
X130800D01*
X129800Y119298D01*
Y115300D01*
X130800Y114300D01*
X132799D01*
X133799Y115300D01*
X135798Y120298D02*
X139797D01*
Y119298D01*
X135798Y115300D01*
Y114300D01*
X122399Y111598D02*
X121399Y112598D01*
X119400D01*
X118400Y111598D01*
Y107600D01*
X119400Y106600D01*
X121399D01*
X122399Y107600D01*
X128397Y112598D02*
X126397Y111598D01*
X124398Y109599D01*
Y107600D01*
X125398Y106600D01*
X127397D01*
X128397Y107600D01*
Y108599D01*
X127397Y109599D01*
X124398D01*
X106699Y110598D02*
X105699Y111598D01*
X103700D01*
X102700Y110598D01*
Y106600D01*
X103700Y105600D01*
X105699D01*
X106699Y106600D01*
X112697Y111598D02*
X108698D01*
Y108599D01*
X110697Y109599D01*
X111697D01*
X112697Y108599D01*
Y106600D01*
X111697Y105600D01*
X109698D01*
X108698Y106600D01*
X41699Y145998D02*
X40699Y146998D01*
X38700D01*
X37700Y145998D01*
Y142000D01*
X38700Y141000D01*
X40699D01*
X41699Y142000D01*
X46697Y141000D02*
Y146998D01*
X43698Y143999D01*
X47697D01*
X41699Y175498D02*
X40699Y176498D01*
X38700D01*
X37700Y175498D01*
Y171500D01*
X38700Y170500D01*
X40699D01*
X41699Y171500D01*
X43698Y175498D02*
X44698Y176498D01*
X46697D01*
X47697Y175498D01*
Y174499D01*
X46697Y173499D01*
X45697D01*
X46697D01*
X47697Y172499D01*
Y171500D01*
X46697Y170500D01*
X44698D01*
X43698Y171500D01*
X41699Y203098D02*
X40699Y204098D01*
X38700D01*
X37700Y203098D01*
Y199100D01*
X38700Y198100D01*
X40699D01*
X41699Y199100D01*
X47697Y198100D02*
X43698D01*
X47697Y202099D01*
Y203098D01*
X46697Y204098D01*
X44698D01*
X43698Y203098D01*
X39699Y98798D02*
X38699Y99798D01*
X36700D01*
X35700Y98798D01*
Y94800D01*
X36700Y93800D01*
X38699D01*
X39699Y94800D01*
X41698Y93800D02*
X43697D01*
X42698D01*
Y99798D01*
X41698Y98798D01*
M02*
