G04*
G04 #@! TF.GenerationSoftware,Altium Limited,Altium Designer,22.4.2 (48)*
G04*
G04 Layer_Physical_Order=1*
G04 Layer_Color=255*
%FSLAX25Y25*%
%MOIN*%
G70*
G04*
G04 #@! TF.SameCoordinates,2A41B901-7CA2-4390-9F02-5F8C8343CA34*
G04*
G04*
G04 #@! TF.FilePolarity,Positive*
G04*
G01*
G75*
%ADD11C,0.01575*%
%ADD16R,0.07165X0.04567*%
%ADD17R,0.06811X0.03819*%
%ADD18R,0.09173X0.06142*%
%ADD19R,0.07800X0.02200*%
%ADD20R,0.03543X0.07284*%
%ADD35C,0.01181*%
%ADD36C,0.01968*%
%ADD37C,0.04055*%
%ADD38C,0.10039*%
%ADD39C,0.14236*%
%ADD40O,0.19685X0.09843*%
%ADD41O,0.17717X0.08858*%
%ADD42O,0.08858X0.17717*%
%ADD43C,0.05937*%
%ADD44R,0.05937X0.05937*%
%ADD45C,0.02362*%
D11*
X93303Y100020D02*
X93419Y99904D01*
X104803Y224410D02*
X133858D01*
X94803Y186693D02*
X102362Y179134D01*
X94803Y186693D02*
Y224410D01*
X102362Y179134D02*
X135827D01*
X133858Y224410D02*
X135827Y222441D01*
Y202756D02*
X137086Y201497D01*
X135827Y202756D02*
Y222441D01*
X153543Y151575D02*
Y193405D01*
X133858Y165391D02*
Y177465D01*
X130787Y162320D02*
X133858Y165391D01*
X145452Y201497D02*
X153543Y193405D01*
X137086Y201497D02*
X145452D01*
X106831Y90179D02*
X121515D01*
X105725Y99904D02*
X106299Y99330D01*
X93419Y99904D02*
X105725D01*
X106831Y99862D02*
X121515D01*
X93303Y90020D02*
Y95020D01*
X106299Y99330D02*
X106831Y99862D01*
X93303Y90020D02*
X93419Y89904D01*
X106042D02*
X106299Y89647D01*
X93419Y89904D02*
X106042D01*
X106299Y89647D02*
X106831Y90179D01*
X145053Y87402D02*
X151575Y93923D01*
X141732Y85532D02*
Y87402D01*
X145053D01*
X121515Y90179D02*
X122047Y90711D01*
X123346D01*
X121515Y99862D02*
X122047Y100394D01*
X123346Y90711D02*
X129411Y84646D01*
X138976D02*
X139075Y84744D01*
X129411Y84646D02*
X138976D01*
X122047Y100394D02*
X140945D01*
X139075Y84744D02*
X140945D01*
X141732Y101575D02*
Y127953D01*
Y101181D02*
Y101575D01*
X140945Y100394D02*
X141732Y101181D01*
X151575Y93923D02*
Y141732D01*
X140945Y84744D02*
X141732Y85532D01*
X130787Y138898D02*
Y145669D01*
Y138898D02*
X141732Y127953D01*
X148548Y146580D02*
X150064D01*
X151437Y141870D02*
X151575Y141732D01*
X149153Y145669D02*
X151437Y143386D01*
X130787Y145669D02*
Y162320D01*
X151437Y141870D02*
Y143386D01*
X147638Y145669D02*
X148548Y146580D01*
X151240Y149272D02*
X153543Y151575D01*
X151240Y147756D02*
Y149272D01*
X150064Y146580D02*
X151240Y147756D01*
X27559Y165276D02*
X27559Y165276D01*
X27559Y165276D02*
Y181260D01*
X27480Y165354D02*
X27559Y165276D01*
X19449Y90551D02*
X19685Y90315D01*
X20250D01*
X23046Y87519D01*
X39370D02*
Y104331D01*
X23046Y87519D02*
X39370D01*
X26063Y124094D02*
X27559D01*
X39370Y104331D02*
X45059Y110020D01*
X56303Y105020D02*
Y110020D01*
X45059D02*
X56303D01*
X19685Y90315D02*
Y117717D01*
X5906Y89398D02*
X7059Y90551D01*
X19685Y117717D02*
X26063Y124094D01*
X7059Y90551D02*
X19449D01*
X5906Y55844D02*
Y89398D01*
X13780Y127137D02*
Y164201D01*
X5906Y55844D02*
X6828Y54921D01*
X106299D01*
X13780Y164201D02*
X14933Y165354D01*
X16822Y124094D02*
X26063D01*
X14933Y165354D02*
X27480D01*
X13780Y127137D02*
X16822Y124094D01*
X83158Y100020D02*
X93303D01*
X72146Y105020D02*
X82146Y95020D01*
X82784Y100394D02*
X83158Y100020D01*
X56303Y105020D02*
X72146D01*
X82146Y95020D02*
X93303D01*
X82677Y100394D02*
X82784D01*
D16*
X39370Y87519D02*
D03*
Y77836D02*
D03*
X41339Y191850D02*
D03*
Y182166D02*
D03*
Y164290D02*
D03*
Y154607D02*
D03*
Y134763D02*
D03*
Y125080D02*
D03*
X106299Y99330D02*
D03*
Y89647D02*
D03*
X122047Y100394D02*
D03*
Y90711D02*
D03*
D17*
X27559Y181260D02*
D03*
Y192913D02*
D03*
X27559Y153622D02*
D03*
Y165276D02*
D03*
Y124094D02*
D03*
Y135748D02*
D03*
D18*
X130787Y145669D02*
D03*
X147638D02*
D03*
D19*
X93303Y110020D02*
D03*
Y105020D02*
D03*
Y100020D02*
D03*
Y95020D02*
D03*
Y90020D02*
D03*
Y85020D02*
D03*
Y80020D02*
D03*
Y75020D02*
D03*
X56303D02*
D03*
Y80020D02*
D03*
Y85020D02*
D03*
Y90020D02*
D03*
Y95020D02*
D03*
Y100020D02*
D03*
Y105020D02*
D03*
Y110020D02*
D03*
D20*
X141732Y101575D02*
D03*
Y87402D02*
D03*
D35*
X92520Y110135D02*
X92635Y110020D01*
X93303Y105020D02*
X96103D01*
X92635Y110020D02*
X93303D01*
X96103Y105020D02*
X97714Y106631D01*
X97977D01*
X99369Y108023D01*
X93303Y80020D02*
X122736D01*
X99369Y108023D02*
Y170317D01*
X92520Y110135D02*
Y165354D01*
X27559Y207165D02*
X44803Y224410D01*
X27559Y192913D02*
X28091Y192381D01*
X40807D01*
X33465Y175592D02*
X40039Y182166D01*
X41339D01*
X40807Y192381D02*
X41339Y191850D01*
X84803Y184882D02*
X99369Y170317D01*
X84803Y184882D02*
Y224410D01*
X54803Y176456D02*
Y224410D01*
X74803Y183071D02*
Y224410D01*
X64803Y169134D02*
Y224410D01*
X27559Y192913D02*
Y207165D01*
X19685Y157480D02*
X19760Y157405D01*
X22280D01*
X26063Y153622D01*
X27559D01*
X26418Y77836D02*
X39370D01*
X19685Y71102D02*
X26418Y77836D01*
X39370D02*
X40669D01*
X45276Y82442D01*
Y97272D01*
X48139Y100135D01*
X49213Y84646D02*
X49319D01*
X49577Y84904D01*
X48139Y100135D02*
X56187D01*
X49577Y84904D02*
X56187D01*
X56303Y85020D01*
X56187Y100135D02*
X56303Y100020D01*
Y80020D02*
X59103D01*
X56303Y75020D02*
X62889D01*
X64641Y76772D01*
X64961D01*
X33465Y98425D02*
Y175592D01*
X41339Y134763D02*
Y141732D01*
X27559Y135748D02*
Y141732D01*
X41339Y134763D02*
X42243Y133858D01*
X42638Y164290D02*
X54803Y176456D01*
X42243Y133858D02*
X49213D01*
X65776Y154607D02*
X66929Y153454D01*
X41339Y125080D02*
X61928D01*
X49213Y133858D02*
X57087Y141732D01*
X41339Y154607D02*
X65776D01*
X57087Y141732D02*
Y151575D01*
Y161417D02*
X64803Y169134D01*
X125984Y54921D02*
Y76772D01*
X122736Y80020D02*
X125984Y76772D01*
X74803Y183071D02*
X92520Y165354D01*
X66929Y110236D02*
Y153454D01*
X66854Y87770D02*
Y90476D01*
X59103Y80020D02*
X66854Y87770D01*
X56303Y90020D02*
Y95020D01*
X73366D01*
X66854Y90476D02*
X66929Y90551D01*
X73366Y95020D02*
X74803Y96457D01*
X41339Y164290D02*
X42638D01*
X41339D02*
Y171260D01*
D36*
X125000Y37205D02*
X125984D01*
X106299Y54921D02*
X107283D01*
X125000Y37205D01*
D37*
X19685Y71102D02*
D03*
Y90315D02*
D03*
D38*
X125984Y54921D02*
D03*
D39*
X106299D02*
D03*
X145669D02*
D03*
X125984Y37205D02*
D03*
D40*
X135827Y179134D02*
D03*
D41*
Y202756D02*
D03*
D42*
X117323Y190945D02*
D03*
D43*
X104803Y224410D02*
D03*
X84803D02*
D03*
X74803D02*
D03*
X64803D02*
D03*
X54803D02*
D03*
X94803D02*
D03*
D44*
X44803D02*
D03*
D45*
X41339Y141732D02*
D03*
X57087Y151575D02*
D03*
X19685Y157480D02*
D03*
X57087Y161417D02*
D03*
X41339Y171260D02*
D03*
X66929Y110236D02*
D03*
X82677Y100394D02*
D03*
X33465Y98425D02*
D03*
X74803Y96457D02*
D03*
X66929Y90551D02*
D03*
X49213Y84646D02*
D03*
X61928Y125080D02*
D03*
X27559Y141732D02*
D03*
X64961Y76772D02*
D03*
M02*
