G04*
G04 #@! TF.GenerationSoftware,Altium Limited,Altium Designer,22.4.2 (48)*
G04*
G04 Layer_Color=8421504*
%FSLAX25Y25*%
%MOIN*%
G70*
G04*
G04 #@! TF.SameCoordinates,2A41B901-7CA2-4390-9F02-5F8C8343CA34*
G04*
G04*
G04 #@! TF.FilePolarity,Positive*
G04*
G01*
G75*
%ADD16R,0.07165X0.04567*%
%ADD17R,0.06811X0.03819*%
%ADD18R,0.09173X0.06142*%
%ADD19R,0.07800X0.02200*%
%ADD20R,0.03543X0.07284*%
D16*
X39370Y87519D02*
D03*
Y77836D02*
D03*
X41339Y191850D02*
D03*
Y182166D02*
D03*
Y164290D02*
D03*
Y154607D02*
D03*
Y134763D02*
D03*
Y125080D02*
D03*
X106299Y99330D02*
D03*
Y89647D02*
D03*
X122047Y100394D02*
D03*
Y90711D02*
D03*
D17*
X27559Y181260D02*
D03*
Y192913D02*
D03*
X27559Y153622D02*
D03*
Y165276D02*
D03*
Y124094D02*
D03*
Y135748D02*
D03*
D18*
X130787Y145669D02*
D03*
X147638D02*
D03*
D19*
X93303Y110020D02*
D03*
Y105020D02*
D03*
Y100020D02*
D03*
Y95020D02*
D03*
Y90020D02*
D03*
Y85020D02*
D03*
Y80020D02*
D03*
Y75020D02*
D03*
X56303D02*
D03*
Y80020D02*
D03*
Y85020D02*
D03*
Y90020D02*
D03*
Y95020D02*
D03*
Y100020D02*
D03*
Y105020D02*
D03*
Y110020D02*
D03*
D20*
X141732Y101575D02*
D03*
Y87402D02*
D03*
M02*
