G04*
G04 #@! TF.GenerationSoftware,Altium Limited,Altium Designer,22.4.2 (48)*
G04*
G04 Layer_Color=32896*
%FSLAX25Y25*%
%MOIN*%
G70*
G04*
G04 #@! TF.SameCoordinates,550AB15D-F781-4C29-8757-C47261610ABA*
G04*
G04*
G04 #@! TF.FilePolarity,Positive*
G04*
G01*
G75*
%ADD12C,0.01000*%
D12*
X79885Y76280D02*
X78049Y78117D01*
X79885Y80872D02*
X78049Y79036D01*
X79885Y85005D02*
Y85923D01*
X79426Y86382D01*
X78508D01*
X78049Y85923D01*
Y85005D01*
X78508Y84545D01*
X79426D01*
X79885Y85005D01*
X85591Y57455D02*
Y58373D01*
X85132Y58832D01*
X84214D01*
X83755Y58373D01*
Y57455D01*
X84214Y56995D01*
X85132D01*
X85591Y57455D01*
Y73525D02*
X83755Y75362D01*
X86050Y76280D02*
Y78117D01*
X85591Y81791D02*
X83755Y83627D01*
X83295Y84545D02*
X82836Y85005D01*
Y85923D01*
X82377Y86382D01*
X83295Y87300D02*
X82836Y87760D01*
Y88678D01*
X82377Y89137D01*
X85591Y90056D02*
X83755Y91892D01*
X91756Y61587D02*
X89920Y59750D01*
X91756Y79036D02*
X89920Y80872D01*
X91756Y83627D02*
X89920Y81791D01*
X91756Y84545D02*
X89920Y86382D01*
X97462Y64342D02*
X95626Y62505D01*
X97462Y76280D02*
X95626Y78117D01*
X103168Y67097D02*
X101332Y65260D01*
X103168Y73525D02*
X101332Y75362D01*
X109334Y49189D02*
X108874Y49649D01*
X108415D01*
Y49189D01*
X108874D01*
Y49649D01*
X109334Y49189D01*
X109793Y48730D01*
X107497Y51485D02*
Y53322D01*
Y54240D02*
Y56077D01*
Y56995D02*
Y58832D01*
Y59750D02*
Y61587D01*
Y62505D02*
Y64342D01*
Y65260D02*
Y67097D01*
Y68015D02*
Y69852D01*
Y70770D02*
Y72607D01*
Y73525D02*
Y75362D01*
Y76280D02*
Y78117D01*
Y79036D02*
Y80872D01*
Y81791D02*
Y83627D01*
Y84545D02*
Y86382D01*
Y87300D02*
Y89137D01*
Y90056D02*
Y91892D01*
Y92811D02*
Y94647D01*
Y95566D02*
Y97402D01*
X109334Y98780D02*
X108874Y99239D01*
X108415D01*
Y98780D01*
X108874D01*
Y99239D01*
X109334Y98780D01*
X109793Y98321D01*
X111826Y48730D02*
X114581D01*
X115040Y53322D02*
X114581Y53781D01*
X114121D01*
Y53322D01*
X114581D01*
Y53781D01*
X115040Y53322D01*
X115499Y52863D01*
X113203Y55618D02*
Y57455D01*
Y58373D02*
Y60210D01*
Y61128D02*
Y62964D01*
Y63883D02*
Y65719D01*
Y66638D02*
Y68475D01*
Y69393D02*
Y71230D01*
Y72148D02*
Y73985D01*
Y74903D02*
Y76740D01*
Y77658D02*
Y79495D01*
Y80413D02*
Y82250D01*
Y83168D02*
Y85005D01*
X115040Y86382D02*
X114581Y86841D01*
X114121D01*
Y86382D01*
X114581D01*
Y86841D01*
X115040Y86382D01*
X115499Y85923D01*
X111826Y96943D02*
X114581D01*
X117532Y48730D02*
X120287D01*
X117532Y52863D02*
X120287D01*
X117532Y84545D02*
X120287D01*
X117532Y90056D02*
Y89137D01*
X117991Y88678D01*
X119827D01*
X120287Y89137D01*
Y90056D01*
X119827Y90515D01*
X117991D01*
X117532Y90056D01*
Y94188D02*
X120287D01*
X123238Y48730D02*
X125993D01*
X123238Y52863D02*
X125993D01*
X123238Y84545D02*
X125993D01*
X123238Y90056D02*
Y89137D01*
X123697Y88678D01*
X125533D01*
X125993Y89137D01*
Y90056D01*
X125533Y90515D01*
X123697D01*
X123238Y90056D01*
Y94188D02*
X125993D01*
X128944Y48730D02*
X131699D01*
X128944Y52863D02*
X131699D01*
X128944Y84545D02*
X131699D01*
Y85923D02*
X131239D01*
Y86382D01*
X131699D01*
Y85923D01*
Y88219D02*
X131239D01*
Y88678D01*
X131699D01*
Y88219D01*
Y90515D02*
X131239D01*
Y90974D01*
X131699D01*
Y90515D01*
X128944Y92811D02*
X131699D01*
X134650Y48730D02*
X137405D01*
X134650Y52863D02*
X137405D01*
X137864Y54240D02*
Y56077D01*
Y56995D02*
Y58832D01*
Y59750D02*
Y61587D01*
Y62505D02*
Y64342D01*
Y65260D02*
Y67097D01*
Y68015D02*
Y69852D01*
Y70770D02*
Y72607D01*
Y73525D02*
Y75362D01*
Y76280D02*
Y78117D01*
Y79036D02*
Y80872D01*
Y81791D02*
Y83627D01*
X134650Y84545D02*
X137405D01*
X134650Y85923D02*
Y86841D01*
Y86382D01*
X137405D01*
Y85923D01*
Y86841D01*
Y88678D02*
X134650D01*
Y89596D02*
X137405D01*
X135568Y88219D02*
Y89596D01*
Y90056D01*
X136486Y88219D02*
Y90056D01*
X134650Y90974D02*
Y91892D01*
Y91433D01*
X137405D01*
Y90974D01*
Y91892D01*
X134650Y93270D02*
X137405D01*
X140815Y48730D02*
X143570D01*
X144029Y50108D02*
Y51944D01*
Y52863D02*
Y54699D01*
Y55618D02*
Y57455D01*
Y58373D02*
Y60210D01*
Y61128D02*
Y62964D01*
Y63883D02*
Y65719D01*
Y66638D02*
Y68475D01*
Y69393D02*
Y71230D01*
Y72148D02*
Y73985D01*
Y74903D02*
Y76740D01*
Y77658D02*
Y79495D01*
Y80413D02*
Y82250D01*
Y83168D02*
Y85005D01*
X140815Y87760D02*
X143570D01*
Y86382D01*
X143111Y85923D01*
X142192D01*
X141733Y86382D01*
Y87760D01*
Y90515D02*
Y89137D01*
X142192Y88678D01*
X143111D01*
X143570Y89137D01*
Y90515D01*
X141733Y91892D02*
Y92811D01*
X142192Y93270D01*
X143570D01*
Y91892D01*
X143111Y91433D01*
X142651Y91892D01*
Y93270D01*
X141733Y94188D02*
X143111D01*
X143570Y94647D01*
Y96025D01*
X141733D01*
X140815Y96943D02*
X143570D01*
M02*
