G04*
G04 #@! TF.GenerationSoftware,Altium Limited,Altium Designer,22.4.2 (48)*
G04*
G04 Layer_Color=8388736*
%FSLAX25Y25*%
%MOIN*%
G70*
G04*
G04 #@! TF.SameCoordinates,550AB15D-F781-4C29-8757-C47261610ABA*
G04*
G04*
G04 #@! TF.FilePolarity,Negative*
G04*
G01*
G75*
%ADD14R,0.07611X0.04619*%
%ADD15C,0.06737*%
%ADD16R,0.06737X0.06737*%
%ADD17C,0.07587*%
%ADD18C,0.00800*%
%ADD19C,0.03162*%
D14*
X127625Y97763D02*
D03*
Y86109D02*
D03*
X104986Y97763D02*
D03*
Y86109D02*
D03*
X93439Y97763D02*
D03*
Y86109D02*
D03*
X82023Y97763D02*
D03*
Y86109D02*
D03*
X70801Y97763D02*
D03*
Y86109D02*
D03*
X59435Y97763D02*
D03*
Y86109D02*
D03*
X48460Y97763D02*
D03*
Y86109D02*
D03*
X38124Y97763D02*
D03*
Y86109D02*
D03*
X27146Y97763D02*
D03*
Y86109D02*
D03*
X116142Y97763D02*
D03*
Y86109D02*
D03*
D15*
X68740Y108268D02*
D03*
X58740D02*
D03*
X48740D02*
D03*
X38740D02*
D03*
X78740D02*
D03*
X128740D02*
D03*
X118740D02*
D03*
X108740D02*
D03*
X98740D02*
D03*
X88740D02*
D03*
D16*
X28740D02*
D03*
D17*
X93925Y47165D02*
D03*
X84870D02*
D03*
X75815D02*
D03*
X66760D02*
D03*
X57705D02*
D03*
Y31575D02*
D03*
X75815D02*
D03*
X66760D02*
D03*
X84870D02*
D03*
X93925D02*
D03*
X62205Y39370D02*
D03*
X80315D02*
D03*
X71260D02*
D03*
X89370D02*
D03*
X98425D02*
D03*
D18*
X125028D02*
D03*
X26602D02*
D03*
D19*
X43307Y64961D02*
D03*
X55118D02*
D03*
X106299Y72835D02*
D03*
X125984D02*
D03*
X75847Y9867D02*
D03*
X47244Y72835D02*
D03*
X55118D02*
D03*
X85660Y13738D02*
D03*
X93941Y18110D02*
D03*
M02*
