G04*
G04 #@! TF.GenerationSoftware,Altium Limited,Altium Designer,22.4.2 (48)*
G04*
G04 Layer_Physical_Order=1*
G04 Layer_Color=255*
%FSLAX25Y25*%
%MOIN*%
G70*
G04*
G04 #@! TF.SameCoordinates,550AB15D-F781-4C29-8757-C47261610ABA*
G04*
G04*
G04 #@! TF.FilePolarity,Positive*
G04*
G01*
G75*
%ADD12C,0.01000*%
%ADD13R,0.06811X0.03819*%
%ADD20C,0.05937*%
%ADD21R,0.05937X0.05937*%
%ADD22C,0.06787*%
%ADD23C,0.02362*%
D12*
X43307Y21654D02*
Y64961D01*
X55118D02*
X93902D01*
X94488Y65546D02*
Y85061D01*
X93902Y64961D02*
X94488Y65546D01*
X66760Y48731D02*
X68281Y50253D01*
X66760Y47165D02*
Y48731D01*
X68281Y50565D02*
X78776Y61059D01*
X68281Y50253D02*
Y50565D01*
X78740Y61024D02*
X94488D01*
X106299Y72835D01*
X125984D02*
Y84700D01*
X127394Y86109D02*
X127625D01*
X125984Y84700D02*
X127394Y86109D01*
X81799Y53149D02*
X102362D01*
X75815Y47165D02*
X81799Y53149D01*
X114646Y86109D02*
X116142D01*
X113236Y84700D02*
X114646Y86109D01*
X113236Y64024D02*
Y84700D01*
X102362Y53149D02*
X113236Y64024D01*
X43307Y21654D02*
X55118Y9842D01*
X55143Y9867D02*
X75847D01*
X55118Y9842D02*
X55143Y9867D01*
X48460Y86109D02*
X49956D01*
X47244Y25591D02*
X59096Y13738D01*
X51366Y27374D02*
X60630Y18110D01*
X47244Y25591D02*
Y72835D01*
X51366Y27374D02*
Y84700D01*
X49956Y86109D02*
X51366Y84700D01*
X38124Y86109D02*
X48460D01*
X55118Y72835D02*
X82091D01*
X93439Y86109D02*
X94488Y85061D01*
X93439Y86109D02*
X104986D01*
X141732Y82677D02*
Y104331D01*
X98425Y39370D02*
X141732Y82677D01*
X137795Y108268D02*
X141732Y104331D01*
X128740Y108268D02*
X137795D01*
X57705Y31575D02*
X67893Y21386D01*
X99541D01*
X100127Y21972D01*
X59096Y13738D02*
X85660D01*
X60630Y18110D02*
X93941D01*
X82677Y73420D02*
Y85455D01*
X82091Y72835D02*
X82677Y73420D01*
X82023Y86109D02*
X82677Y85455D01*
X70801Y86109D02*
X82023D01*
X59435D02*
X70801D01*
X93925Y31575D02*
X93933Y31567D01*
X100127Y21972D02*
Y32294D01*
X95952Y36468D02*
X100127Y32294D01*
X82843Y36468D02*
X95952D01*
X77845Y36466D02*
X82840D01*
X77259Y37051D02*
X77845Y36466D01*
X77259Y37051D02*
Y37880D01*
X82840Y36466D02*
X82843Y36468D01*
X77259Y37880D02*
X78749Y39370D01*
X80315D01*
X58744Y35910D02*
X62205Y39370D01*
X58744Y32614D02*
Y35910D01*
X57705Y31575D02*
X58744Y32614D01*
X80315Y39370D02*
X89370D01*
X98425D01*
X118740Y108268D02*
X124719Y102288D01*
X126129Y97763D02*
X127625D01*
X124719Y99172D02*
X126129Y97763D01*
X124719Y99172D02*
Y102288D01*
X108740Y108268D02*
X116142Y100866D01*
Y97763D02*
Y100866D01*
X93439Y97763D02*
Y103568D01*
X88740Y108268D02*
X93439Y103568D01*
X78740Y108268D02*
X82023Y104985D01*
Y97763D02*
Y104985D01*
X98740Y108268D02*
X104986Y102021D01*
Y97763D02*
Y102021D01*
X90534Y99172D02*
X91943Y97763D01*
X93439D01*
X88740Y106932D02*
Y108268D01*
X79117Y99172D02*
X80527Y97763D01*
X82023D01*
X68740Y99172D02*
X70150Y97763D01*
X68740Y99172D02*
Y108268D01*
X70150Y97763D02*
X70801D01*
X58740Y98458D02*
Y108268D01*
Y98458D02*
X59435Y97763D01*
X27146Y86109D02*
X38124D01*
X48740Y98043D02*
Y108268D01*
X48460Y97763D02*
X48740Y98043D01*
X38124Y97763D02*
X38740Y98379D01*
Y108268D01*
X27331Y97763D02*
X28740Y99172D01*
Y108268D01*
X27146Y97763D02*
X27331D01*
D13*
X127625Y97763D02*
D03*
Y86109D02*
D03*
X104986Y97763D02*
D03*
Y86109D02*
D03*
X93439Y97763D02*
D03*
Y86109D02*
D03*
X82023Y97763D02*
D03*
Y86109D02*
D03*
X70801Y97763D02*
D03*
Y86109D02*
D03*
X59435Y97763D02*
D03*
Y86109D02*
D03*
X48460Y97763D02*
D03*
Y86109D02*
D03*
X38124Y97763D02*
D03*
Y86109D02*
D03*
X27146Y97763D02*
D03*
Y86109D02*
D03*
X116142Y97763D02*
D03*
Y86109D02*
D03*
D20*
X68740Y108268D02*
D03*
X58740D02*
D03*
X48740D02*
D03*
X38740D02*
D03*
X78740D02*
D03*
X128740D02*
D03*
X118740D02*
D03*
X108740D02*
D03*
X98740D02*
D03*
X88740D02*
D03*
D21*
X28740D02*
D03*
D22*
X93925Y47165D02*
D03*
X84870D02*
D03*
X75815D02*
D03*
X66760D02*
D03*
X57705D02*
D03*
Y31575D02*
D03*
X75815D02*
D03*
X66760D02*
D03*
X84870D02*
D03*
X93925D02*
D03*
X62205Y39370D02*
D03*
X80315D02*
D03*
X71260D02*
D03*
X89370D02*
D03*
X98425D02*
D03*
D23*
X43307Y64961D02*
D03*
X55118D02*
D03*
X106299Y72835D02*
D03*
X125984D02*
D03*
X75847Y9867D02*
D03*
X47244Y72835D02*
D03*
X55118D02*
D03*
X85660Y13738D02*
D03*
X93941Y18110D02*
D03*
M02*
