G04*
G04 #@! TF.GenerationSoftware,Altium Limited,Altium Designer,22.4.2 (48)*
G04*
G04 Layer_Color=65535*
%FSLAX25Y25*%
%MOIN*%
G70*
G04*
G04 #@! TF.SameCoordinates,550AB15D-F781-4C29-8757-C47261610ABA*
G04*
G04*
G04 #@! TF.FilePolarity,Positive*
G04*
G01*
G75*
%ADD10C,0.00787*%
%ADD11C,0.00500*%
%ADD12C,0.01000*%
D10*
X29134Y117126D02*
G03*
X29134Y117126I-394J0D01*
G01*
D11*
X130971Y89298D02*
Y94574D01*
X124278Y89298D02*
Y94574D01*
X108333Y89298D02*
Y94574D01*
X101640Y89298D02*
Y94574D01*
X96786Y89298D02*
Y94574D01*
X90093Y89298D02*
Y94574D01*
X85369Y89298D02*
Y94574D01*
X78676Y89298D02*
Y94574D01*
X74147Y89298D02*
Y94574D01*
X67454Y89298D02*
Y94574D01*
X62782Y89298D02*
Y94574D01*
X56089Y89298D02*
Y94574D01*
X51807Y89298D02*
Y94574D01*
X45114Y89298D02*
Y94574D01*
X23740Y103268D02*
Y113189D01*
X133240D01*
X23740Y103268D02*
X133240D01*
Y113189D01*
X41471Y89298D02*
Y94574D01*
X34778Y89298D02*
Y94574D01*
X30492Y89298D02*
Y94574D01*
X23799Y89298D02*
Y94574D01*
X119488Y89298D02*
Y94574D01*
X112795Y89298D02*
Y94574D01*
X136445Y24646D02*
Y59291D01*
X15315Y24646D02*
X136315D01*
X15185D02*
Y59291D01*
X15315D02*
X136315D01*
D12*
X2875Y85646D02*
X6874Y89644D01*
X4875Y87645D01*
X2875Y89644D01*
X6874Y85646D01*
Y92643D02*
Y94643D01*
X5874Y95642D01*
X3875D01*
X2875Y94643D01*
Y92643D01*
X3875Y91644D01*
X5874D01*
X6874Y92643D01*
X2875Y97642D02*
X6874D01*
X4875D01*
X3875Y98641D01*
X2875Y99641D01*
Y100641D01*
X6874Y106639D02*
Y104639D01*
X5874Y103640D01*
X3875D01*
X2875Y104639D01*
Y106639D01*
X3875Y107639D01*
X4875D01*
Y103640D01*
X6874Y110637D02*
Y112637D01*
X5874Y113637D01*
X3875D01*
X2875Y112637D01*
Y110637D01*
X3875Y109638D01*
X5874D01*
X6874Y110637D01*
X113360Y76379D02*
Y80314D01*
X115328D01*
X115984Y79658D01*
Y78346D01*
X115328Y77690D01*
X113360D01*
X114672D02*
X115984Y76379D01*
X117296Y77034D02*
X117952Y76379D01*
X119264D01*
X119920Y77034D01*
Y79658D01*
X119264Y80314D01*
X117952D01*
X117296Y79658D01*
Y79002D01*
X117952Y78346D01*
X119920D01*
X122819Y76379D02*
Y80314D01*
X124787D01*
X125443Y79658D01*
Y78346D01*
X124787Y77690D01*
X122819D01*
X124131D02*
X125443Y76379D01*
X126755D02*
X128067D01*
X127411D01*
Y80314D01*
X126755Y79658D01*
X130035D02*
X130691Y80314D01*
X132003D01*
X132659Y79658D01*
Y77034D01*
X132003Y76379D01*
X130691D01*
X130035Y77034D01*
Y79658D01*
X101445Y76379D02*
Y80314D01*
X103412D01*
X104068Y79658D01*
Y78346D01*
X103412Y77690D01*
X101445D01*
X102757D02*
X104068Y76379D01*
X105380Y79658D02*
X106036Y80314D01*
X107348D01*
X108004Y79658D01*
Y79002D01*
X107348Y78346D01*
X108004Y77690D01*
Y77034D01*
X107348Y76379D01*
X106036D01*
X105380Y77034D01*
Y77690D01*
X106036Y78346D01*
X105380Y79002D01*
Y79658D01*
X106036Y78346D02*
X107348D01*
X90421Y76379D02*
Y80314D01*
X92389D01*
X93045Y79658D01*
Y78346D01*
X92389Y77690D01*
X90421D01*
X91733D02*
X93045Y76379D01*
X94357Y80314D02*
X96981D01*
Y79658D01*
X94357Y77034D01*
Y76379D01*
X78610D02*
Y80314D01*
X80578D01*
X81234Y79658D01*
Y78346D01*
X80578Y77690D01*
X78610D01*
X79922D02*
X81234Y76379D01*
X85170Y80314D02*
X83858Y79658D01*
X82546Y78346D01*
Y77034D01*
X83202Y76379D01*
X84514D01*
X85170Y77034D01*
Y77690D01*
X84514Y78346D01*
X82546D01*
X67394Y76379D02*
Y80314D01*
X69362D01*
X70018Y79658D01*
Y78346D01*
X69362Y77690D01*
X67394D01*
X68706D02*
X70018Y76379D01*
X73954Y80314D02*
X71330D01*
Y78346D01*
X72642Y79002D01*
X73298D01*
X73954Y78346D01*
Y77034D01*
X73298Y76379D01*
X71986D01*
X71330Y77034D01*
X56608Y76468D02*
Y80403D01*
X58576D01*
X59232Y79747D01*
Y78435D01*
X58576Y77780D01*
X56608D01*
X57920D02*
X59232Y76468D01*
X62512D02*
Y80403D01*
X60544Y78435D01*
X63168D01*
X46327Y76379D02*
Y80314D01*
X48294D01*
X48950Y79658D01*
Y78346D01*
X48294Y77690D01*
X46327D01*
X47638D02*
X48950Y76379D01*
X50262Y79658D02*
X50918Y80314D01*
X52230D01*
X52886Y79658D01*
Y79002D01*
X52230Y78346D01*
X51574D01*
X52230D01*
X52886Y77690D01*
Y77034D01*
X52230Y76379D01*
X50918D01*
X50262Y77034D01*
X34909Y76379D02*
Y80314D01*
X36877D01*
X37533Y79658D01*
Y78346D01*
X36877Y77690D01*
X34909D01*
X36221D02*
X37533Y76379D01*
X41469D02*
X38845D01*
X41469Y79002D01*
Y79658D01*
X40813Y80314D01*
X39501D01*
X38845Y79658D01*
X24148Y76379D02*
Y80314D01*
X26116D01*
X26772Y79658D01*
Y78346D01*
X26116Y77690D01*
X24148D01*
X25460D02*
X26772Y76379D01*
X28084D02*
X29395D01*
X28740D01*
Y80314D01*
X28084Y79658D01*
M02*
