G04*
G04 #@! TF.GenerationSoftware,Altium Limited,Altium Designer,22.4.2 (48)*
G04*
G04 Layer_Physical_Order=2*
G04 Layer_Color=16711680*
%FSLAX25Y25*%
%MOIN*%
G70*
G04*
G04 #@! TF.SameCoordinates,550AB15D-F781-4C29-8757-C47261610ABA*
G04*
G04*
G04 #@! TF.FilePolarity,Positive*
G04*
G01*
G75*
%ADD12C,0.01000*%
%ADD20C,0.05937*%
%ADD21R,0.05937X0.05937*%
%ADD22C,0.06787*%
%ADD23C,0.02362*%
D12*
X43307Y64961D02*
X55118D01*
X93933Y18118D02*
Y31567D01*
Y18118D02*
X93941Y18110D01*
X93925Y31575D02*
X93933Y31567D01*
X106299Y72835D02*
X125984D01*
X85528Y13871D02*
Y31575D01*
X75815Y25070D02*
Y31575D01*
Y25070D02*
X75847Y25038D01*
Y9867D02*
Y25038D01*
X47244Y72835D02*
X55118D01*
X84870Y31575D02*
X85135Y31310D01*
X85528Y13871D02*
X85660Y13738D01*
D20*
X68740Y108268D02*
D03*
X58740D02*
D03*
X48740D02*
D03*
X38740D02*
D03*
X78740D02*
D03*
X128740D02*
D03*
X118740D02*
D03*
X108740D02*
D03*
X98740D02*
D03*
X88740D02*
D03*
D21*
X28740D02*
D03*
D22*
X93925Y47165D02*
D03*
X84870D02*
D03*
X75815D02*
D03*
X66760D02*
D03*
X57705D02*
D03*
Y31575D02*
D03*
X75815D02*
D03*
X66760D02*
D03*
X84870D02*
D03*
X93925D02*
D03*
X62205Y39370D02*
D03*
X80315D02*
D03*
X71260D02*
D03*
X89370D02*
D03*
X98425D02*
D03*
D23*
X43307Y64961D02*
D03*
X55118D02*
D03*
X106299Y72835D02*
D03*
X125984D02*
D03*
X75847Y9867D02*
D03*
X47244Y72835D02*
D03*
X55118D02*
D03*
X85660Y13738D02*
D03*
X93941Y18110D02*
D03*
M02*
