G04*
G04 #@! TF.GenerationSoftware,Altium Limited,Altium Designer,22.4.2 (48)*
G04*
G04 Layer_Color=65535*
%FSLAX25Y25*%
%MOIN*%
G70*
G04*
G04 #@! TF.SameCoordinates,A7B2FA79-C280-4DBA-8CE8-1A1C5EA3F58B*
G04*
G04*
G04 #@! TF.FilePolarity,Positive*
G04*
G01*
G75*
%ADD10C,0.00787*%
%ADD11C,0.02000*%
%ADD12C,0.00500*%
%ADD13C,0.00600*%
%ADD14C,0.01000*%
D10*
X-61850Y-78465D02*
G03*
X-61850Y-78465I-394J0D01*
G01*
X-104095Y-3937D02*
G03*
X-104095Y-3937I-394J0D01*
G01*
X-6890Y-95669D02*
Y-81496D01*
X-12008D02*
X-6890D01*
X-24513Y-81471D02*
X-19395D01*
X-24606Y-95669D02*
Y-81496D01*
X-12008Y-99213D02*
X-10433D01*
X-6890Y-95669D01*
X-24606D02*
X-21063Y-99213D01*
X-20949Y-99330D02*
X-19374D01*
X-37402Y-95866D02*
Y-81693D01*
X-42520D02*
X-37402D01*
X-55025Y-81667D02*
X-49907D01*
X-55118Y-95866D02*
Y-81693D01*
X-42520Y-99409D02*
X-40945D01*
X-37402Y-95866D01*
X-55118D02*
X-51575Y-99409D01*
X-51461Y-99527D02*
X-49886D01*
X-104134Y-62992D02*
X-89961D01*
X-104134Y-68110D02*
Y-62992D01*
X-104159Y-80616D02*
Y-75497D01*
X-104134Y-80709D02*
X-89961D01*
X-86417Y-68110D02*
Y-66535D01*
X-89961Y-62992D02*
X-86417Y-66535D01*
X-89961Y-80709D02*
X-86417Y-77165D01*
X-86300Y-77051D02*
Y-75477D01*
D11*
X-2811Y-50197D02*
G03*
X-2811Y-50197I-1500J0D01*
G01*
D12*
X-74866Y-58618D02*
X-66992D01*
X-74866Y-51618D02*
X-66992D01*
X-61378Y-102047D02*
Y-86693D01*
X-81260Y-102047D02*
Y-86693D01*
X-104724Y-91830D02*
X-104712Y-89771D01*
X-111811Y-91830D02*
X-111807Y-89838D01*
X-109488Y-17795D02*
Y-7874D01*
X-69488D01*
Y-17795D02*
Y-7874D01*
X-109488Y-17795D02*
X-69488D01*
D13*
X-11311Y-48473D02*
Y-4421D01*
Y-60539D02*
Y-51920D01*
X-59555Y-60539D02*
X-11311D01*
X-59555Y-48473D02*
Y-4421D01*
X-11311D01*
X-59555Y-60539D02*
Y-51920D01*
D14*
X-18716Y-71820D02*
X-19716Y-70820D01*
X-21715D01*
X-22715Y-71820D01*
Y-75818D01*
X-21715Y-76818D01*
X-19716D01*
X-18716Y-75818D01*
X-13718Y-76818D02*
Y-70820D01*
X-16717Y-73819D01*
X-12718D01*
X-47244Y-72804D02*
X-48244Y-71804D01*
X-50243D01*
X-51243Y-72804D01*
Y-76802D01*
X-50243Y-77802D01*
X-48244D01*
X-47244Y-76802D01*
X-45245Y-77802D02*
X-43245D01*
X-44245D01*
Y-71804D01*
X-45245Y-72804D01*
X-78348Y-70820D02*
X-76349D01*
X-77349D01*
Y-76818D01*
X-78348D01*
X-76349D01*
X-69351Y-71820D02*
X-70351Y-70820D01*
X-72350D01*
X-73350Y-71820D01*
Y-75818D01*
X-72350Y-76818D01*
X-70351D01*
X-69351Y-75818D01*
X-67352Y-76818D02*
X-65352D01*
X-66352D01*
Y-70820D01*
X-67352Y-71820D01*
X-102378Y-55087D02*
X-103377Y-54088D01*
X-105377D01*
X-106376Y-55087D01*
Y-59086D01*
X-105377Y-60086D01*
X-103377D01*
X-102378Y-59086D01*
X-96380Y-60086D02*
X-100378D01*
X-96380Y-56087D01*
Y-55087D01*
X-97379Y-54088D01*
X-99379D01*
X-100378Y-55087D01*
X-109267Y-100363D02*
X-110267Y-99363D01*
X-112266D01*
X-113266Y-100363D01*
Y-104362D01*
X-112266Y-105361D01*
X-110267D01*
X-109267Y-104362D01*
X-107268Y-100363D02*
X-106268Y-99363D01*
X-104269D01*
X-103269Y-100363D01*
Y-101363D01*
X-104269Y-102362D01*
X-105269D01*
X-104269D01*
X-103269Y-103362D01*
Y-104362D01*
X-104269Y-105361D01*
X-106268D01*
X-107268Y-104362D01*
X-111205Y-112096D02*
Y-118095D01*
X-108206D01*
X-107206Y-117095D01*
Y-113096D01*
X-108206Y-112096D01*
X-111205D01*
X-102208Y-118095D02*
X-104207D01*
X-105207Y-117095D01*
Y-115095D01*
X-104207Y-114096D01*
X-102208D01*
X-101208Y-115095D01*
Y-116095D01*
X-105207D01*
X-98209Y-113096D02*
Y-114096D01*
X-99209D01*
X-97209D01*
X-98209D01*
Y-117095D01*
X-97209Y-118095D01*
X-94210D02*
X-92211D01*
X-93211D01*
Y-112096D01*
X-94210D01*
X-86213Y-118095D02*
X-88212D01*
X-89212Y-117095D01*
Y-115095D01*
X-88212Y-114096D01*
X-86213D01*
X-85213Y-115095D01*
Y-116095D01*
X-89212D01*
X-83214Y-114096D02*
X-81214Y-118095D01*
X-79215Y-114096D01*
X-76216Y-111097D02*
Y-113096D01*
X-77216Y-114096D01*
X-73217Y-118095D02*
X-70218D01*
X-69218Y-117095D01*
X-70218Y-116095D01*
X-72217D01*
X-73217Y-115095D01*
X-72217Y-114096D01*
X-69218D01*
X-60221Y-118095D02*
Y-113096D01*
Y-115095D01*
X-61221D01*
X-59222D01*
X-60221D01*
Y-113096D01*
X-59222Y-112096D01*
X-56222Y-118095D02*
X-54223D01*
X-55223D01*
Y-114096D01*
X-56222D01*
X-51224Y-118095D02*
Y-114096D01*
X-48225D01*
X-47225Y-115095D01*
Y-118095D01*
X-42227D02*
X-44226D01*
X-45226Y-117095D01*
Y-115095D01*
X-44226Y-114096D01*
X-42227D01*
X-41227Y-115095D01*
Y-116095D01*
X-45226D01*
X-39228Y-118095D02*
X-36229D01*
X-35229Y-117095D01*
X-36229Y-116095D01*
X-38228D01*
X-39228Y-115095D01*
X-38228Y-114096D01*
X-35229D01*
X-32230Y-113096D02*
Y-114096D01*
X-33230D01*
X-31231D01*
X-32230D01*
Y-117095D01*
X-31231Y-118095D01*
X-76580Y-48221D02*
Y-42222D01*
X-73581D01*
X-72582Y-43222D01*
Y-45222D01*
X-73581Y-46221D01*
X-76580D01*
X-74581D02*
X-72582Y-48221D01*
X-70582D02*
X-68583D01*
X-69583D01*
Y-42222D01*
X-70582Y-43222D01*
X-75772Y-19701D02*
X-73148D01*
X-71836Y-21013D01*
X-73148Y-22325D01*
X-75772D01*
X-73804D01*
Y-19701D01*
X-73148Y-23637D02*
X-75116D01*
X-75772Y-24293D01*
Y-26260D01*
X-73148D01*
X-71836Y-30196D02*
X-75772D01*
Y-28228D01*
X-75116Y-27572D01*
X-73804D01*
X-73148Y-28228D01*
Y-30196D01*
X-75772Y-31508D02*
Y-32820D01*
Y-32164D01*
X-73148D01*
Y-31508D01*
X-75772Y-35444D02*
Y-36756D01*
X-75116Y-37412D01*
X-73804D01*
X-73148Y-36756D01*
Y-35444D01*
X-73804Y-34788D01*
X-75116D01*
X-75772Y-35444D01*
X-86598Y-19701D02*
X-83975D01*
X-82663Y-21013D01*
X-83975Y-22325D01*
X-86598D01*
X-84631D01*
Y-19701D01*
X-83975Y-23637D02*
X-85943D01*
X-86598Y-24293D01*
Y-26260D01*
X-83975D01*
X-82663Y-30196D02*
X-86598D01*
Y-28228D01*
X-85943Y-27572D01*
X-84631D01*
X-83975Y-28228D01*
Y-30196D01*
X-86598Y-31508D02*
Y-32820D01*
Y-32164D01*
X-83975D01*
Y-31508D01*
X-86598Y-35444D02*
Y-36756D01*
X-85943Y-37412D01*
X-84631D01*
X-83975Y-36756D01*
Y-35444D01*
X-84631Y-34788D01*
X-85943D01*
X-86598Y-35444D01*
X-83319Y-41347D02*
X-82663Y-40691D01*
Y-39380D01*
X-83319Y-38723D01*
X-85943D01*
X-86598Y-39380D01*
Y-40691D01*
X-85943Y-41347D01*
X-84631D01*
Y-40035D01*
X-86598Y-42659D02*
X-82663D01*
X-86598Y-45283D01*
X-82663D01*
Y-46595D02*
X-86598D01*
Y-48563D01*
X-85943Y-49219D01*
X-83319D01*
X-82663Y-48563D01*
Y-46595D01*
X-91521Y-19701D02*
X-94145D01*
X-95457Y-21013D01*
X-94145Y-22325D01*
X-91521D01*
X-92833Y-26260D02*
Y-24293D01*
X-93489Y-23637D01*
X-94801D01*
X-95457Y-24293D01*
Y-26260D01*
X-92833Y-30196D02*
Y-28228D01*
X-93489Y-27572D01*
X-94801D01*
X-95457Y-28228D01*
Y-30196D01*
X-103988Y-22325D02*
X-103332Y-21669D01*
Y-20357D01*
X-103988Y-19701D01*
X-106612D01*
X-107268Y-20357D01*
Y-21669D01*
X-106612Y-22325D01*
X-105300D01*
Y-21013D01*
X-107268Y-23637D02*
X-103332D01*
X-107268Y-26260D01*
X-103332D01*
Y-27572D02*
X-107268D01*
Y-29540D01*
X-106612Y-30196D01*
X-103988D01*
X-103332Y-29540D01*
Y-27572D01*
M02*
