G04*
G04 #@! TF.GenerationSoftware,Altium Limited,Altium Designer,22.4.2 (48)*
G04*
G04 Layer_Physical_Order=2*
G04 Layer_Color=16711680*
%FSLAX25Y25*%
%MOIN*%
G70*
G04*
G04 #@! TF.SameCoordinates,A7B2FA79-C280-4DBA-8CE8-1A1C5EA3F58B*
G04*
G04*
G04 #@! TF.FilePolarity,Positive*
G04*
G01*
G75*
%ADD27C,0.04700*%
%ADD31C,0.01575*%
%ADD32C,0.06900*%
%ADD33C,0.05937*%
%ADD34R,0.05937X0.05937*%
%ADD35C,0.02362*%
D27*
X-55118Y-20669D02*
D03*
X-15748D02*
D03*
X-55118Y-30512D02*
D03*
X-15748D02*
D03*
X-35433Y-50197D02*
D03*
D31*
X-82739Y-112205D02*
X-66929D01*
X-85630Y-109314D02*
X-82739Y-112205D01*
X-85630Y-109314D02*
Y-81693D01*
X-99409Y-85630D02*
X-90551D01*
D32*
X-35433Y-30512D02*
D03*
X-55118Y-50197D02*
D03*
X-45276D02*
D03*
X-25591D02*
D03*
X-15748D02*
D03*
D33*
X-84488Y-12795D02*
D03*
X-94488D02*
D03*
X-74488D02*
D03*
D34*
X-104488D02*
D03*
D35*
X-66929Y-112205D02*
D03*
X-85630Y-81693D02*
D03*
X-90551Y-85630D02*
D03*
X-99409D02*
D03*
M02*
