G04*
G04 #@! TF.GenerationSoftware,Altium Limited,Altium Designer,22.4.2 (48)*
G04*
G04 Layer_Color=8388736*
%FSLAX25Y25*%
%MOIN*%
G70*
G04*
G04 #@! TF.SameCoordinates,A7B2FA79-C280-4DBA-8CE8-1A1C5EA3F58B*
G04*
G04*
G04 #@! TF.FilePolarity,Negative*
G04*
G01*
G75*
G04:AMPARAMS|DCode=20|XSize=47.37mil|YSize=63.91mil|CornerRadius=8.92mil|HoleSize=0mil|Usage=FLASHONLY|Rotation=180.000|XOffset=0mil|YOffset=0mil|HoleType=Round|Shape=RoundedRectangle|*
%AMROUNDEDRECTD20*
21,1,0.04737,0.04606,0,0,180.0*
21,1,0.02953,0.06391,0,0,180.0*
1,1,0.01784,-0.01476,0.02303*
1,1,0.01784,0.01476,0.02303*
1,1,0.01784,0.01476,-0.02303*
1,1,0.01784,-0.01476,-0.02303*
%
%ADD20ROUNDEDRECTD20*%
%ADD21R,0.04343X0.08083*%
G04:AMPARAMS|DCode=22|XSize=85.56mil|YSize=31.62mil|CornerRadius=6.95mil|HoleSize=0mil|Usage=FLASHONLY|Rotation=270.000|XOffset=0mil|YOffset=0mil|HoleType=Round|Shape=RoundedRectangle|*
%AMROUNDEDRECTD22*
21,1,0.08556,0.01772,0,0,270.0*
21,1,0.07165,0.03162,0,0,270.0*
1,1,0.01391,-0.00886,-0.03583*
1,1,0.01391,-0.00886,0.03583*
1,1,0.01391,0.00886,0.03583*
1,1,0.01391,0.00886,-0.03583*
%
%ADD22ROUNDEDRECTD22*%
%ADD23R,0.08083X0.04343*%
%ADD24R,0.07965X0.05367*%
%ADD25C,0.07700*%
%ADD26C,0.05500*%
%ADD27C,0.04700*%
%ADD28C,0.06737*%
%ADD29R,0.06737X0.06737*%
%ADD30C,0.03162*%
D20*
X-67185Y-55118D02*
D03*
X-74547D02*
D03*
D21*
X-15748Y-83268D02*
D03*
Y-97441D02*
D03*
X-46260Y-83465D02*
D03*
Y-97638D02*
D03*
D22*
X-63819Y-84646D02*
D03*
X-68819D02*
D03*
X-73819D02*
D03*
X-78819D02*
D03*
Y-104095D02*
D03*
X-73819D02*
D03*
X-68819D02*
D03*
X-63819D02*
D03*
D23*
X-102362Y-71850D02*
D03*
X-88189D02*
D03*
D24*
X-108268Y-85710D02*
D03*
Y-95393D02*
D03*
D25*
X-35433Y-30512D02*
D03*
X-55118Y-50197D02*
D03*
X-45276D02*
D03*
X-25591D02*
D03*
X-15748D02*
D03*
D26*
X-55118Y-20669D02*
D03*
X-15748D02*
D03*
X-55118Y-30512D02*
D03*
X-15748D02*
D03*
D27*
X-35433Y-50197D02*
D03*
D28*
X-84488Y-12795D02*
D03*
X-94488D02*
D03*
X-74488D02*
D03*
D29*
X-104488D02*
D03*
D30*
X-66929Y-112205D02*
D03*
X-85630Y-81693D02*
D03*
X-90551Y-85630D02*
D03*
M02*
