G04*
G04 #@! TF.GenerationSoftware,Altium Limited,Altium Designer,22.4.2 (48)*
G04*
G04 Layer_Color=8388736*
%FSLAX25Y25*%
%MOIN*%
G70*
G04*
G04 #@! TF.SameCoordinates,08344E4B-EA76-4565-9D62-395010ACA534*
G04*
G04*
G04 #@! TF.FilePolarity,Negative*
G04*
G01*
G75*
%ADD28R,0.06902X0.04737*%
%ADD29R,0.06312X0.03950*%
%ADD30R,0.04737X0.06509*%
%ADD31R,0.06706X0.03950*%
%ADD32R,0.07690X0.03950*%
%ADD33R,0.06706X0.06706*%
%ADD34R,0.06706X0.05918*%
%ADD35R,0.05131X0.05918*%
%ADD36R,0.08674X0.08674*%
%ADD37R,0.04343X0.03556*%
%ADD38R,0.04619X0.07611*%
%ADD39R,0.04776X0.07611*%
G04:AMPARAMS|DCode=40|XSize=47.37mil|YSize=63.91mil|CornerRadius=8.92mil|HoleSize=0mil|Usage=FLASHONLY|Rotation=90.000|XOffset=0mil|YOffset=0mil|HoleType=Round|Shape=RoundedRectangle|*
%AMROUNDEDRECTD40*
21,1,0.04737,0.04606,0,0,90.0*
21,1,0.02953,0.06391,0,0,90.0*
1,1,0.01784,0.02303,0.01476*
1,1,0.01784,0.02303,-0.01476*
1,1,0.01784,-0.02303,-0.01476*
1,1,0.01784,-0.02303,0.01476*
%
%ADD40ROUNDEDRECTD40*%
%ADD41R,0.07965X0.05367*%
%ADD42C,0.05328*%
%ADD43R,0.05328X0.05328*%
%ADD44R,0.06737X0.06737*%
%ADD45C,0.06737*%
%ADD46R,0.06737X0.06737*%
%ADD47R,0.05328X0.05328*%
%ADD48C,0.06698*%
%ADD49R,0.06698X0.06698*%
%ADD50C,0.07524*%
%ADD51R,0.07524X0.07524*%
%ADD52C,0.17005*%
%ADD53C,0.07591*%
%ADD54C,0.03162*%
D28*
X695453Y357425D02*
D03*
D29*
X705000Y359000D02*
D03*
D30*
X701653Y313232D02*
D03*
D31*
X707559Y311953D02*
D03*
D32*
X737972Y347976D02*
D03*
Y343646D02*
D03*
Y339315D02*
D03*
Y334984D02*
D03*
Y330654D02*
D03*
Y326323D02*
D03*
Y321992D02*
D03*
Y317661D02*
D03*
D33*
X737480Y357622D02*
D03*
D34*
Y312937D02*
D03*
D35*
X465760Y418500D02*
D03*
X473240D02*
D03*
D36*
X195500Y150500D02*
D03*
D37*
X164000Y477850D02*
D03*
Y484150D02*
D03*
X102000Y477850D02*
D03*
Y484150D02*
D03*
D38*
X174827Y339657D02*
D03*
X163173D02*
D03*
X174827Y380000D02*
D03*
X163173D02*
D03*
X174827Y366500D02*
D03*
X163173D02*
D03*
X174827Y285972D02*
D03*
X163173D02*
D03*
X174827Y299394D02*
D03*
X163173D02*
D03*
X174827Y312815D02*
D03*
X163173D02*
D03*
X174827Y326232D02*
D03*
X163173D02*
D03*
X174827Y353075D02*
D03*
X163173D02*
D03*
D39*
X133945Y285972D02*
D03*
X122055D02*
D03*
X133945Y299393D02*
D03*
X122055D02*
D03*
X133945Y312815D02*
D03*
X122055D02*
D03*
X133945Y326232D02*
D03*
X122055D02*
D03*
X133945Y339657D02*
D03*
X122055D02*
D03*
X133945Y353075D02*
D03*
X122055D02*
D03*
X133945Y366500D02*
D03*
X122055D02*
D03*
X133945Y380000D02*
D03*
X122055D02*
D03*
D40*
X677500Y300819D02*
D03*
Y308181D02*
D03*
Y319319D02*
D03*
Y326681D02*
D03*
Y337319D02*
D03*
Y344681D02*
D03*
Y354819D02*
D03*
Y362181D02*
D03*
D41*
X537000Y264658D02*
D03*
Y274342D02*
D03*
D42*
X629500Y364500D02*
D03*
Y354500D02*
D03*
Y344500D02*
D03*
Y334500D02*
D03*
Y324500D02*
D03*
Y314500D02*
D03*
Y304500D02*
D03*
Y294500D02*
D03*
Y284500D02*
D03*
Y274500D02*
D03*
Y264500D02*
D03*
Y254500D02*
D03*
Y244500D02*
D03*
Y234500D02*
D03*
Y224500D02*
D03*
Y214500D02*
D03*
X559421Y254500D02*
D03*
Y264500D02*
D03*
Y274500D02*
D03*
Y284500D02*
D03*
Y294500D02*
D03*
Y304500D02*
D03*
Y314500D02*
D03*
Y324500D02*
D03*
Y334500D02*
D03*
Y344500D02*
D03*
Y354500D02*
D03*
Y244500D02*
D03*
Y234500D02*
D03*
Y224500D02*
D03*
Y214500D02*
D03*
Y204500D02*
D03*
Y194500D02*
D03*
Y184500D02*
D03*
Y174500D02*
D03*
X629421Y205000D02*
D03*
Y195000D02*
D03*
Y185000D02*
D03*
Y175000D02*
D03*
X435000Y500500D02*
D03*
X425000D02*
D03*
X415000D02*
D03*
X405000D02*
D03*
X395000D02*
D03*
X385000D02*
D03*
X375000D02*
D03*
X365000D02*
D03*
X355000D02*
D03*
X345000D02*
D03*
X335000D02*
D03*
X325000D02*
D03*
X315000D02*
D03*
X305000D02*
D03*
X295000D02*
D03*
Y430421D02*
D03*
X305000D02*
D03*
X315000D02*
D03*
X325000D02*
D03*
X335000D02*
D03*
X345000D02*
D03*
X355000D02*
D03*
X365000D02*
D03*
X375000D02*
D03*
X385000D02*
D03*
X395000D02*
D03*
X405000D02*
D03*
X415000D02*
D03*
X425000D02*
D03*
X435000D02*
D03*
X445000D02*
D03*
D43*
X559421Y364500D02*
D03*
D44*
X677000Y264500D02*
D03*
X596500Y35000D02*
D03*
X457000Y142500D02*
D03*
X303500Y124500D02*
D03*
D45*
X677000Y254500D02*
D03*
X667000D02*
D03*
X657000D02*
D03*
X667000Y264500D02*
D03*
X657000D02*
D03*
X566500Y35000D02*
D03*
X586500D02*
D03*
X576500D02*
D03*
X477000Y142500D02*
D03*
X467000D02*
D03*
X363500Y124500D02*
D03*
X373500D02*
D03*
X383500D02*
D03*
X393500D02*
D03*
X403500D02*
D03*
X353500D02*
D03*
X313500D02*
D03*
X323500D02*
D03*
X333500D02*
D03*
X343500D02*
D03*
X23000Y121000D02*
D03*
Y101000D02*
D03*
Y91000D02*
D03*
Y81000D02*
D03*
Y71000D02*
D03*
Y111000D02*
D03*
D46*
Y61000D02*
D03*
D47*
X445000Y500500D02*
D03*
D48*
X164409Y508284D02*
D03*
X190000D02*
D03*
Y526000D02*
D03*
X102409Y507784D02*
D03*
X128000D02*
D03*
Y525500D02*
D03*
D49*
X164409Y526000D02*
D03*
X102409Y525500D02*
D03*
D50*
X47000Y292000D02*
D03*
X57000Y297394D02*
D03*
X47000Y302787D02*
D03*
X57000Y308181D02*
D03*
Y318969D02*
D03*
X47000Y324362D02*
D03*
X57000Y329756D02*
D03*
Y286606D02*
D03*
X47000Y435213D02*
D03*
X57000Y440606D02*
D03*
X47000Y446000D02*
D03*
X57000Y451394D02*
D03*
Y462181D02*
D03*
X47000Y467575D02*
D03*
X57000Y472968D02*
D03*
Y429819D02*
D03*
D51*
X47000Y313575D02*
D03*
Y456787D02*
D03*
D52*
X52000Y357394D02*
D03*
Y258968D02*
D03*
Y500606D02*
D03*
Y402181D02*
D03*
D53*
X375500Y377500D02*
D03*
X385500D02*
D03*
X425500D02*
D03*
X395500D02*
D03*
X405500D02*
D03*
X415500D02*
D03*
X435500D02*
D03*
X445500D02*
D03*
X455500D02*
D03*
X375500Y367500D02*
D03*
X385500D02*
D03*
X425500D02*
D03*
X395500D02*
D03*
X445500D02*
D03*
X455500D02*
D03*
X325500Y377500D02*
D03*
X335500D02*
D03*
X345500D02*
D03*
X355500D02*
D03*
X365500D02*
D03*
X325500Y367500D02*
D03*
X335500D02*
D03*
X345500D02*
D03*
X355500D02*
D03*
X365500D02*
D03*
X405500D02*
D03*
X415500D02*
D03*
X435500D02*
D03*
X455500Y187500D02*
D03*
X445500D02*
D03*
X435500D02*
D03*
X425500D02*
D03*
X415500D02*
D03*
X405500D02*
D03*
X395500D02*
D03*
X385500D02*
D03*
X375500D02*
D03*
X365500D02*
D03*
X355500D02*
D03*
X345500D02*
D03*
X335500D02*
D03*
X325500D02*
D03*
X455500Y197500D02*
D03*
X445500D02*
D03*
X435500D02*
D03*
X425500D02*
D03*
X415500D02*
D03*
X405500D02*
D03*
X395500D02*
D03*
X385500D02*
D03*
X375500D02*
D03*
X365500D02*
D03*
X355500D02*
D03*
X345500D02*
D03*
X335500D02*
D03*
X325500D02*
D03*
X476500Y217500D02*
D03*
Y227500D02*
D03*
Y237500D02*
D03*
Y247500D02*
D03*
Y257500D02*
D03*
Y267500D02*
D03*
Y277500D02*
D03*
Y287500D02*
D03*
Y297500D02*
D03*
Y307500D02*
D03*
Y317500D02*
D03*
Y327500D02*
D03*
Y337500D02*
D03*
Y347500D02*
D03*
X486500Y217500D02*
D03*
Y227500D02*
D03*
Y237500D02*
D03*
Y247500D02*
D03*
Y257500D02*
D03*
Y267500D02*
D03*
Y277500D02*
D03*
Y287500D02*
D03*
Y297500D02*
D03*
Y307500D02*
D03*
Y317500D02*
D03*
Y327500D02*
D03*
Y337500D02*
D03*
Y347500D02*
D03*
X295500Y217500D02*
D03*
Y227500D02*
D03*
Y237500D02*
D03*
Y247500D02*
D03*
Y257500D02*
D03*
Y267500D02*
D03*
Y277500D02*
D03*
Y287500D02*
D03*
Y297500D02*
D03*
Y307500D02*
D03*
Y317500D02*
D03*
Y327500D02*
D03*
Y337500D02*
D03*
Y347500D02*
D03*
X305500Y217500D02*
D03*
Y227500D02*
D03*
Y237500D02*
D03*
Y247500D02*
D03*
Y257500D02*
D03*
Y267500D02*
D03*
Y277500D02*
D03*
Y287500D02*
D03*
Y297500D02*
D03*
Y307500D02*
D03*
Y317500D02*
D03*
Y327500D02*
D03*
Y337500D02*
D03*
Y347500D02*
D03*
D54*
X419500Y426000D02*
D03*
X391896Y455896D02*
D03*
X403646Y444146D02*
D03*
X411082Y436582D02*
D03*
X403500Y436000D02*
D03*
X355000Y494500D02*
D03*
X77000Y314500D02*
D03*
X317000Y338000D02*
D03*
X366500Y347000D02*
D03*
X456500D02*
D03*
X470000D02*
D03*
X515500Y333500D02*
D03*
X446000Y205500D02*
D03*
Y213500D02*
D03*
X489500Y210681D02*
D03*
X414955Y210469D02*
D03*
X513500Y186000D02*
D03*
X522000Y187500D02*
D03*
X519000Y200000D02*
D03*
Y273000D02*
D03*
X306500Y170500D02*
D03*
X313500Y209500D02*
D03*
X326500Y227500D02*
D03*
X332500D02*
D03*
X351500D02*
D03*
X405000D02*
D03*
X421500Y223000D02*
D03*
X350396Y171896D02*
D03*
X404500Y232500D02*
D03*
X380500Y169500D02*
D03*
X360500Y163500D02*
D03*
X370500D02*
D03*
X380000Y192500D02*
D03*
X381000Y240500D02*
D03*
X403000D02*
D03*
X316500Y171500D02*
D03*
X406000Y244500D02*
D03*
X370500Y192500D02*
D03*
Y262500D02*
D03*
X407000D02*
D03*
X411000Y194000D02*
D03*
X410500Y208000D02*
D03*
X421000Y257500D02*
D03*
X390500Y171500D02*
D03*
X390490Y189990D02*
D03*
X390500Y249000D02*
D03*
X403500D02*
D03*
X407500Y252500D02*
D03*
X360500Y194000D02*
D03*
X361000Y252500D02*
D03*
X508500Y191000D02*
D03*
X567000Y191500D02*
D03*
X401500Y179000D02*
D03*
X400500Y191000D02*
D03*
X400000Y274500D02*
D03*
Y287500D02*
D03*
X226500Y330000D02*
D03*
X385000Y272500D02*
D03*
X246500Y323000D02*
D03*
X370500Y290500D02*
D03*
X251500Y313500D02*
D03*
X359000Y308000D02*
D03*
X223500Y353000D02*
D03*
X334000Y326500D02*
D03*
X223000Y357500D02*
D03*
X282500Y360181D02*
D03*
X285500Y363500D02*
D03*
X303500Y355000D02*
D03*
X227500Y303000D02*
D03*
X252000Y287500D02*
D03*
X263000D02*
D03*
X252000Y282500D02*
D03*
X228500Y482500D02*
D03*
Y389500D02*
D03*
X136500Y489000D02*
D03*
X236500Y389500D02*
D03*
X254000Y149500D02*
D03*
X285000D02*
D03*
X300500D02*
D03*
X284000Y206500D02*
D03*
Y170500D02*
D03*
X290500Y170000D02*
D03*
X291000Y202000D02*
D03*
X297500Y170000D02*
D03*
Y197500D02*
D03*
X432000Y157500D02*
D03*
X440500D02*
D03*
X508000D02*
D03*
X545500D02*
D03*
X504500Y208000D02*
D03*
X494000Y204500D02*
D03*
X504500D02*
D03*
X252000Y413500D02*
D03*
X285500Y393500D02*
D03*
X303500D02*
D03*
X331000Y359000D02*
D03*
X455500Y332500D02*
D03*
X252000Y390000D02*
D03*
X455500Y327500D02*
D03*
X80500Y404000D02*
D03*
X302000Y363500D02*
D03*
X348500Y317500D02*
D03*
X375000D02*
D03*
X455500D02*
D03*
X285000Y372500D02*
D03*
X302000D02*
D03*
X358000Y313000D02*
D03*
X378500D02*
D03*
X456000D02*
D03*
X284000Y424000D02*
D03*
X294000D02*
D03*
X455500Y342500D02*
D03*
X469500D02*
D03*
X80250Y411750D02*
D03*
X285000Y378000D02*
D03*
X302000D02*
D03*
X284500Y389000D02*
D03*
X303500D02*
D03*
X178000Y195500D02*
D03*
Y188000D02*
D03*
X70500Y300500D02*
D03*
X70000Y291000D02*
D03*
X383000Y402500D02*
D03*
X378000Y407500D02*
D03*
X288500Y408000D02*
D03*
X384646Y411646D02*
D03*
X295500Y402000D02*
D03*
X406164Y416925D02*
D03*
X401679Y421932D02*
D03*
X403989Y419489D02*
D03*
X403000Y412500D02*
D03*
X398146Y417646D02*
D03*
X409500Y372000D02*
D03*
X400500Y360500D02*
D03*
X409500Y384500D02*
D03*
X405500Y387500D02*
D03*
X374000Y399000D02*
D03*
X300500D02*
D03*
X344000Y388500D02*
D03*
X350500Y413000D02*
D03*
X360104Y388104D02*
D03*
X346000Y418000D02*
D03*
X358500Y420000D02*
D03*
X361500Y422000D02*
D03*
X355319Y416766D02*
D03*
X351000Y421500D02*
D03*
X360500Y434500D02*
D03*
X364500Y424500D02*
D03*
X467500Y409000D02*
D03*
X443500Y404000D02*
D03*
X464000D02*
D03*
X452000Y400000D02*
D03*
X460500D02*
D03*
X510000Y350500D02*
D03*
Y343500D02*
D03*
X408396Y426396D02*
D03*
X400500Y394000D02*
D03*
X414500Y420500D02*
D03*
X412500Y414000D02*
D03*
X388000Y413500D02*
D03*
X354500Y474000D02*
D03*
X374500Y476000D02*
D03*
X365000Y457000D02*
D03*
Y484500D02*
D03*
X395500Y452500D02*
D03*
X417000Y385500D02*
D03*
X441000Y178500D02*
D03*
X456000D02*
D03*
X687500Y247000D02*
D03*
Y345500D02*
D03*
X731500Y334500D02*
D03*
Y338000D02*
D03*
X721000Y327000D02*
D03*
X728500Y307500D02*
D03*
X720500Y243000D02*
D03*
X672000Y332500D02*
D03*
X666000Y289500D02*
D03*
X580000Y294500D02*
D03*
X650500Y288500D02*
D03*
X580000Y284500D02*
D03*
X727381Y331500D02*
D03*
X728500Y352500D02*
D03*
X723000Y345500D02*
D03*
X677000Y313500D02*
D03*
X657000Y319000D02*
D03*
X655000Y300000D02*
D03*
X645500D02*
D03*
M02*
