G04*
G04 #@! TF.GenerationSoftware,Altium Limited,Altium Designer,22.4.2 (48)*
G04*
G04 Layer_Color=4660084*
%FSLAX25Y25*%
%MOIN*%
G70*
G04*
G04 #@! TF.SameCoordinates,08344E4B-EA76-4565-9D62-395010ACA534*
G04*
G04*
G04 #@! TF.FilePolarity,Positive*
G04*
G01*
G75*
%ADD10C,0.00787*%
%ADD70C,0.00197*%
%ADD71C,0.00394*%
D10*
X0Y0D02*
X751000D01*
Y558000D01*
X500D02*
X751000D01*
X0Y0D02*
X500Y558000D01*
D70*
X551931Y170000D02*
Y377492D01*
X633921D02*
X633921Y170000D01*
X551931Y377492D02*
X633921D01*
X551931Y170000D02*
X633921D01*
X693386Y309394D02*
X742402D01*
Y361559D01*
X691417D02*
X742402D01*
X691417Y354472D02*
Y361559D01*
Y354472D02*
X693386D01*
Y309394D02*
Y354472D01*
X651000Y270905D02*
X682484D01*
X651000Y249095D02*
Y270905D01*
Y249095D02*
X682484D01*
Y270905D01*
X560500Y41000D02*
X602484D01*
X560500Y29094D02*
Y41000D01*
Y29094D02*
X602484D01*
Y41000D01*
X451016Y136500D02*
Y148406D01*
X473000D01*
Y136500D02*
Y148406D01*
X451016Y136500D02*
X473000D01*
X297516Y118500D02*
X409000D01*
Y130405D01*
X297516D02*
X409000D01*
X297516Y118500D02*
Y130405D01*
X17095Y55016D02*
X29000D01*
X17095D02*
Y127500D01*
X29000D01*
Y55016D02*
Y127500D01*
X457992Y426000D02*
Y507990D01*
X282008Y426000D02*
Y507990D01*
Y426000D02*
X457992Y426000D01*
X282008Y507990D02*
X457992D01*
X463004Y414563D02*
Y422437D01*
X475996Y414563D02*
Y422437D01*
X463004D02*
X475996D01*
X463004Y414563D02*
X475996D01*
X160472Y504347D02*
Y529937D01*
Y504347D02*
X193937D01*
Y529937D01*
X160472D02*
X193937D01*
X161047Y474307D02*
Y487693D01*
X166953Y474307D02*
Y487693D01*
X161047Y474307D02*
X166953D01*
X161047Y487693D02*
X166953D01*
X99047Y474307D02*
Y487693D01*
X104953Y474307D02*
Y487693D01*
X99047Y474307D02*
X104953D01*
X99047Y487693D02*
X104953D01*
X5622Y370110D02*
X66764D01*
X5622Y341252D02*
Y370110D01*
X-19063Y341252D02*
X5622D01*
X-19063Y275110D02*
Y341252D01*
Y275110D02*
X5622D01*
Y246252D02*
Y275110D01*
Y246252D02*
X66764D01*
Y370110D01*
X5622Y513323D02*
X66764D01*
X5622Y484465D02*
Y513323D01*
X-19063Y484465D02*
X5622D01*
X-19063Y418323D02*
Y484465D01*
Y418323D02*
X5622D01*
Y389465D02*
Y418323D01*
Y389465D02*
X66764D01*
Y513323D01*
X289516Y209500D02*
Y353484D01*
Y209500D02*
X311484D01*
Y353484D01*
X289516D02*
X311484D01*
X98472Y503847D02*
Y529437D01*
Y503847D02*
X131937D01*
Y529437D01*
X98472D02*
X131937D01*
X160280Y344047D02*
X177720D01*
X160280Y335268D02*
X177720D01*
Y344047D01*
X160280Y335268D02*
Y344047D01*
Y384390D02*
X177720D01*
X160280Y375610D02*
X177720D01*
Y384390D01*
X160280Y375610D02*
Y384390D01*
Y370890D02*
X177720D01*
X160280Y362110D02*
X177720D01*
Y370890D01*
X160280Y362110D02*
Y370890D01*
Y290362D02*
X177720D01*
X160280Y281583D02*
X177720D01*
Y290362D01*
X160280Y281583D02*
Y290362D01*
Y303783D02*
X177720D01*
X160280Y295004D02*
X177720D01*
Y303783D01*
X160280Y295004D02*
Y303783D01*
Y317205D02*
X177720D01*
X160280Y308425D02*
X177720D01*
Y317205D01*
X160280Y308425D02*
Y317205D01*
Y330622D02*
X177720D01*
X160280Y321843D02*
X177720D01*
Y330622D01*
X160280Y321843D02*
Y330622D01*
Y357465D02*
X177720D01*
X160280Y348685D02*
X177720D01*
Y357465D01*
X160280Y348685D02*
Y357465D01*
X136917Y281583D02*
Y290362D01*
X119083D02*
X136917D01*
X119083Y281583D02*
Y290362D01*
Y281583D02*
X136917D01*
Y295004D02*
Y303783D01*
X119083D02*
X136917D01*
X119083Y295004D02*
Y303783D01*
Y295004D02*
X136917D01*
Y308425D02*
Y317205D01*
X119083D02*
X136917D01*
X119083Y308425D02*
Y317205D01*
Y308425D02*
X136917D01*
Y321843D02*
Y330622D01*
X119083D02*
X136917D01*
X119083Y321843D02*
Y330622D01*
Y321843D02*
X136917D01*
Y335268D02*
Y344047D01*
X119083D02*
X136917D01*
X119083Y335268D02*
Y344047D01*
Y335268D02*
X136917D01*
Y348685D02*
Y357465D01*
X119083D02*
X136917D01*
X119083Y348685D02*
Y357465D01*
Y348685D02*
X136917D01*
Y362110D02*
Y370890D01*
X119083D02*
X136917D01*
X119083Y362110D02*
Y370890D01*
Y362110D02*
X136917D01*
Y375610D02*
Y384390D01*
X119083D02*
X136917D01*
X119083Y375610D02*
Y384390D01*
Y375610D02*
X136917D01*
X673721Y297847D02*
Y311154D01*
X681280D01*
Y297847D02*
Y311154D01*
X673721Y297847D02*
X681280D01*
X673721Y316347D02*
Y329654D01*
X681280D01*
Y316347D02*
Y329654D01*
X673721Y316347D02*
X681280D01*
X673721Y334347D02*
Y347654D01*
X681280D01*
Y334347D02*
Y347654D01*
X673721Y334347D02*
X681280D01*
X673721Y351847D02*
Y365154D01*
X681280D01*
Y351847D02*
Y365154D01*
X673721Y351847D02*
X681280D01*
X532472Y261517D02*
X541528D01*
X532472Y277621D02*
X541528D01*
Y261517D02*
Y277621D01*
X532472Y261517D02*
Y277621D01*
D71*
X467531Y418500D02*
X471468D01*
X469500Y416532D02*
Y420469D01*
X162031Y481000D02*
X165969D01*
X164000Y479032D02*
Y482969D01*
X100031Y481000D02*
X103969D01*
X102000Y479032D02*
Y482969D01*
M02*
