G04*
G04 #@! TF.GenerationSoftware,Altium Limited,Altium Designer,22.4.2 (48)*
G04*
G04 Layer_Physical_Order=2*
G04 Layer_Color=16711680*
%FSLAX25Y25*%
%MOIN*%
G70*
G04*
G04 #@! TF.SameCoordinates,08344E4B-EA76-4565-9D62-395010ACA534*
G04*
G04*
G04 #@! TF.FilePolarity,Positive*
G04*
G01*
G75*
%ADD13C,0.01000*%
%ADD57C,0.04528*%
%ADD58R,0.04528X0.04528*%
%ADD59R,0.05937X0.05937*%
%ADD60C,0.05937*%
%ADD61R,0.05937X0.05937*%
%ADD62R,0.04528X0.04528*%
%ADD63C,0.05898*%
%ADD64R,0.05898X0.05898*%
%ADD65C,0.06724*%
%ADD66R,0.06724X0.06724*%
%ADD67C,0.16205*%
%ADD68C,0.06791*%
%ADD69C,0.02362*%
D13*
X419500Y425750D02*
Y426000D01*
X414500Y420750D02*
X419500Y425750D01*
X414500Y420500D02*
Y420750D01*
X391239Y452715D02*
X391739Y453215D01*
X391239Y431338D02*
Y452715D01*
X403500Y436000D02*
Y444000D01*
X411000Y436500D02*
X411082Y436582D01*
X403500Y444000D02*
X403646Y444146D01*
X411000Y429000D02*
Y436500D01*
X391739Y453215D02*
Y455739D01*
X391896Y455896D01*
X354500Y474000D02*
Y493631D01*
X355000Y494131D01*
Y494500D01*
X57000Y472968D02*
X61862Y468106D01*
Y353676D02*
Y468106D01*
X57000Y348814D02*
X61862Y353676D01*
X57000Y329756D02*
Y348814D01*
X345181Y357819D02*
X445819D01*
X455500Y367500D01*
X335500D02*
X345181Y357819D01*
X47000Y313575D02*
X47532Y314106D01*
X58606D01*
X59000Y314500D01*
X77000D01*
X477000Y142500D02*
X501000Y166500D01*
X467945Y143445D02*
Y145499D01*
X468000Y145554D02*
Y152000D01*
X490500Y174500D02*
Y196500D01*
X468000Y152000D02*
X490500Y174500D01*
X467000Y142500D02*
X467945Y143445D01*
Y145499D02*
X468000Y145554D01*
X484604Y202396D02*
X490500Y196500D01*
X341396Y352396D02*
X346792Y347000D01*
X326292Y367500D02*
X341396Y352396D01*
X317000Y338000D02*
X331396Y352396D01*
X341396D01*
X305000Y218000D02*
X305500Y217500D01*
X325500Y367500D02*
X326292D01*
X346792Y347000D02*
X366500D01*
X456500D02*
X470000D01*
X472241Y369000D02*
X485914D01*
X486500Y347500D02*
Y368414D01*
X455500Y367500D02*
X470741D01*
X472241Y369000D01*
X485914D02*
X486500Y368414D01*
Y347500D02*
X500500Y333500D01*
X515500D01*
X446000Y206500D02*
Y213500D01*
X491318Y208000D02*
X504500D01*
X415500Y197500D02*
Y207288D01*
X415000Y207788D02*
Y210424D01*
X414955Y210469D02*
X415000Y210424D01*
X490611Y208707D02*
X491318Y208000D01*
X490611Y208707D02*
Y209202D01*
X415000Y207788D02*
X415500Y207288D01*
X489500Y210313D02*
Y210681D01*
Y210313D02*
X490611Y209202D01*
X520131Y186000D02*
X521631Y187500D01*
X522000D01*
X513500Y186000D02*
X520131D01*
X519000Y200000D02*
Y273000D01*
X445500Y187500D02*
Y197500D01*
X480500Y211500D02*
X501000Y191000D01*
Y166500D02*
Y191000D01*
X467500Y212086D02*
X468086Y211500D01*
X467500Y212086D02*
Y258500D01*
X468086Y211500D02*
X480500D01*
X430396Y202396D02*
X484604D01*
X425500Y197500D02*
X430396Y202396D01*
X467500Y258500D02*
X476500Y267500D01*
X313000Y125000D02*
Y143414D01*
X313586Y144000D02*
X333500D01*
X313000Y125000D02*
X313500Y124500D01*
X313000Y143414D02*
X313586Y144000D01*
X333500D02*
X344500Y155000D01*
X418500D01*
X430396Y166896D02*
Y192396D01*
X418500Y155000D02*
X430396Y166896D01*
Y192396D02*
X435500Y197500D01*
X306500Y170500D02*
X313500Y177500D01*
Y209500D01*
X326500Y227500D02*
X332500D01*
X351500D02*
X405000D01*
X421500Y223000D02*
Y239870D01*
X421000Y240370D02*
Y257500D01*
Y240370D02*
X421500Y239870D01*
X350396Y171896D02*
Y207245D01*
X347500Y210141D02*
X350396Y207245D01*
X347500Y210141D02*
Y231914D01*
X348086Y232500D01*
X353500D01*
X353500Y232500D01*
X404500D01*
X360500Y163500D02*
Y194000D01*
X370500Y163500D02*
Y192500D01*
X380105Y189819D02*
X380500Y189424D01*
X380000Y192500D02*
X380105Y192395D01*
Y189819D02*
Y192395D01*
X380500Y169500D02*
Y189424D01*
X381000Y240500D02*
X403000D01*
X311086Y167086D02*
X335500D01*
X215000Y71000D02*
X311086Y167086D01*
X335500D02*
Y187500D01*
X316500Y204500D02*
X323500Y211500D01*
X316500Y171500D02*
Y204500D01*
X323500Y211500D02*
Y244500D01*
X406000D01*
X370500Y262500D02*
X407000D01*
X410500Y194500D02*
X411000Y194000D01*
X410500Y194500D02*
Y208000D01*
X390495Y171505D02*
X390500Y171500D01*
X390490Y189990D02*
X390495Y189985D01*
Y171505D02*
Y189985D01*
X390500Y249000D02*
X403500D01*
X361000Y252500D02*
X407500D01*
X534556Y191000D02*
X535056Y190500D01*
X508500Y191000D02*
X534556D01*
X535056Y190500D02*
X560744D01*
X561744Y191500D01*
X567000D01*
X400500Y180000D02*
X401000Y179500D01*
X400500Y180000D02*
Y191000D01*
X400000Y274500D02*
Y287500D01*
X253448Y293052D02*
X253896Y292604D01*
X226500Y325000D02*
X253448Y298052D01*
X226500Y325000D02*
Y330000D01*
X253448Y293052D02*
Y298052D01*
X307528Y292604D02*
X307924Y293000D01*
X317500D01*
X253896Y292604D02*
X307528D01*
X317500Y293000D02*
X338000Y272500D01*
X385000D01*
X245750Y322250D02*
X246500Y323000D01*
X245750Y312750D02*
Y322250D01*
Y312750D02*
X256104Y302396D01*
X358604D01*
X370500Y290500D01*
X252604Y312396D02*
X307528D01*
X251500Y313500D02*
X252604Y312396D01*
X307528D02*
X311924Y308000D01*
X359000D01*
X223500Y353000D02*
X224000Y352500D01*
X223000Y353500D02*
X223500Y353000D01*
X224000Y352500D02*
X275414D01*
X276000Y350077D02*
Y351914D01*
X275414Y352500D02*
X276000Y351914D01*
Y350077D02*
X293472Y332604D01*
X307319D01*
X313423Y326500D01*
X334000D01*
X282500Y360181D02*
X306159D01*
X307341Y359000D02*
X331000D01*
X301000Y357500D02*
X303500Y355000D01*
X223000Y357500D02*
X301000D01*
X306159Y360181D02*
X307341Y359000D01*
X222500Y358000D02*
X223000Y357500D01*
X285500Y363500D02*
X302000D01*
X227500Y303000D02*
X257896Y272604D01*
X300396D01*
X305500Y267500D01*
X252000Y287500D02*
X263000D01*
X252000Y282500D02*
X300500D01*
X305500Y277500D01*
X228500Y389500D02*
Y482500D01*
X136500Y489000D02*
X236500D01*
Y389500D02*
Y489000D01*
X254000Y149500D02*
X285000D01*
X300500D02*
X329000D01*
X345500Y166000D01*
Y187500D01*
X23000Y71000D02*
X215000D01*
X284000Y170500D02*
Y206500D01*
X291000Y170500D02*
Y202000D01*
X297500Y170000D02*
Y197500D01*
X432000Y157500D02*
X440500D01*
X508000D02*
X545500D01*
X494000Y204500D02*
X504500D01*
X252000Y390000D02*
Y413500D01*
X285500Y393500D02*
X303500D01*
X481604Y332396D02*
X486500Y327500D01*
X456104Y332396D02*
X481604D01*
X455500Y327500D02*
X476500D01*
X80000Y412000D02*
X80250Y411750D01*
X80500Y404000D02*
Y411500D01*
X80250Y411750D02*
X80500Y411500D01*
X348500Y317500D02*
X375000D01*
X455000Y317000D02*
X455500Y317500D01*
X476500D01*
X285000Y372500D02*
X302000D01*
X358000Y313000D02*
X378500D01*
X456396Y312604D02*
X481604D01*
X486500Y317500D01*
X456000Y313000D02*
X456396Y312604D01*
X284000Y424000D02*
X294000D01*
X455500Y342500D02*
X469500D01*
X285000Y378000D02*
X302000D01*
X284500Y389000D02*
X303500D01*
X178000Y188000D02*
Y195500D01*
X70000Y295630D02*
X70500Y296130D01*
X70000Y291000D02*
Y295630D01*
X70500Y296130D02*
Y300500D01*
X383000Y402500D02*
X395000Y414500D01*
Y430421D01*
X288500Y408000D02*
X377131D01*
X377631Y407500D01*
X378000D01*
X388000Y413500D02*
Y428098D01*
X391239Y431338D01*
X384646Y409646D02*
Y411646D01*
X295500Y402000D02*
X377000D01*
X384646Y409646D01*
X409500Y384500D02*
Y417902D01*
X402745Y424657D02*
X409500Y417902D01*
X403000Y418131D02*
X403989Y419121D01*
Y419489D01*
X402613Y424657D02*
X402745D01*
X403000Y412500D02*
Y418131D01*
X398764Y428506D02*
Y449236D01*
Y428506D02*
X402613Y424657D01*
X405681Y413611D02*
X406164Y414094D01*
Y416925D01*
X405500Y387500D02*
Y400779D01*
X400319Y407365D02*
Y415604D01*
X401000Y416285D01*
X405681Y400960D02*
Y413611D01*
X400319Y407365D02*
X400500Y407184D01*
X401000Y416285D02*
Y420500D01*
X405500Y400779D02*
X405681Y400960D01*
X398146Y414792D02*
Y417646D01*
X397819Y382105D02*
Y414465D01*
X398146Y414792D01*
X400500Y394000D02*
Y407184D01*
Y360500D02*
Y379423D01*
X397819Y382105D02*
X400500Y379423D01*
X409500Y372000D02*
X409605Y372105D01*
X412500Y383708D02*
Y414000D01*
X410604Y375681D02*
Y381813D01*
X412500Y383708D01*
X300500Y399000D02*
X374000D01*
X359906Y388302D02*
X360104Y388104D01*
X344000Y388500D02*
X344198Y388302D01*
X359906D01*
X346500Y417000D02*
X350500Y413000D01*
X346500Y417000D02*
Y417500D01*
X355343Y426657D02*
Y430079D01*
X355000Y430421D02*
X355343Y430079D01*
X358500Y420000D02*
Y423500D01*
X355343Y426657D02*
X358500Y423500D01*
X361000Y425181D02*
Y426270D01*
Y425181D02*
X361500Y424681D01*
Y422000D02*
Y424681D01*
X351000Y421500D02*
X353277Y419223D01*
Y418808D02*
X355319Y416766D01*
X353277Y418808D02*
Y419223D01*
X315000Y430421D02*
X324579Y440000D01*
X356500D01*
X360761Y432812D02*
X360764Y432809D01*
Y429335D02*
Y432809D01*
X356500Y434244D02*
Y440000D01*
Y434244D02*
X358764Y431980D01*
Y428506D02*
Y431980D01*
Y428506D02*
X361000Y426270D01*
X360500Y434500D02*
X360761Y434239D01*
X360764Y429335D02*
X363000Y427099D01*
X360761Y432812D02*
Y434239D01*
X364500Y424500D02*
Y424869D01*
X363000Y426369D02*
X364500Y424869D01*
X363000Y426369D02*
Y427099D01*
X421236Y428862D02*
X422411Y427688D01*
X423586Y409000D02*
X467500D01*
X422411Y410175D02*
Y427688D01*
X419704Y430421D02*
X421236Y428890D01*
Y428862D02*
Y428890D01*
X422411Y410175D02*
X423586Y409000D01*
X415000Y430421D02*
X419704D01*
X443500Y404000D02*
X464000D01*
X452000Y400000D02*
X460500D01*
X451500D02*
X452000D01*
X510000Y343500D02*
Y350500D01*
X408396Y426396D02*
X411000Y429000D01*
X404343Y426657D02*
X417000Y414000D01*
X401236Y428862D02*
X403441Y426657D01*
X400764Y430236D02*
X401236Y429764D01*
X403441Y426657D02*
X404343D01*
X401236Y428862D02*
Y429764D01*
X400764Y430236D02*
Y452236D01*
X417000Y385500D02*
Y414000D01*
X409605Y374681D02*
X410604Y375681D01*
X409605Y372105D02*
Y374681D01*
X386917Y466083D02*
X400764Y452236D01*
X395500Y452500D02*
X398764Y449236D01*
X365000Y457000D02*
Y484500D01*
X374500Y476000D02*
X384417Y466083D01*
X386917D01*
X441000Y178500D02*
X456000D01*
X687500Y247000D02*
Y345500D01*
X730500Y327000D02*
X731500Y328000D01*
Y334500D01*
Y338000D02*
Y349500D01*
X728500Y352500D02*
X731500Y349500D01*
X721000Y327000D02*
X730500D01*
X728500Y251000D02*
Y307500D01*
X720500Y243000D02*
X728500Y251000D01*
X638500Y298264D02*
X643445D01*
X607596D02*
X638500D01*
Y304292D02*
X666708Y332500D01*
X638500Y298264D02*
Y304292D01*
X666708Y332500D02*
X672000D01*
X661618Y293882D02*
X666000Y289500D01*
X647826Y293882D02*
X661618D01*
X643445Y298264D02*
X647826Y293882D01*
X603832Y294500D02*
X607596Y298264D01*
X580000Y294500D02*
X603832D01*
X617434Y288500D02*
X650500D01*
X580000Y284500D02*
X613434D01*
X617434Y288500D01*
X727381Y331500D02*
Y341120D01*
X723000Y345500D02*
X727381Y341120D01*
X657000Y319000D02*
X671500D01*
X677000Y313500D01*
X645500Y300000D02*
X655000D01*
D57*
X629500Y364500D02*
D03*
Y354500D02*
D03*
Y344500D02*
D03*
Y334500D02*
D03*
Y324500D02*
D03*
Y314500D02*
D03*
Y304500D02*
D03*
Y294500D02*
D03*
Y284500D02*
D03*
Y274500D02*
D03*
Y264500D02*
D03*
Y254500D02*
D03*
Y244500D02*
D03*
Y234500D02*
D03*
Y224500D02*
D03*
Y214500D02*
D03*
X559421Y254500D02*
D03*
Y264500D02*
D03*
Y274500D02*
D03*
Y284500D02*
D03*
Y294500D02*
D03*
Y304500D02*
D03*
Y314500D02*
D03*
Y324500D02*
D03*
Y334500D02*
D03*
Y344500D02*
D03*
Y354500D02*
D03*
Y244500D02*
D03*
Y234500D02*
D03*
Y224500D02*
D03*
Y214500D02*
D03*
Y204500D02*
D03*
Y194500D02*
D03*
Y184500D02*
D03*
Y174500D02*
D03*
X629421Y205000D02*
D03*
Y195000D02*
D03*
Y185000D02*
D03*
Y175000D02*
D03*
X435000Y500500D02*
D03*
X425000D02*
D03*
X415000D02*
D03*
X405000D02*
D03*
X395000D02*
D03*
X385000D02*
D03*
X375000D02*
D03*
X365000D02*
D03*
X355000D02*
D03*
X345000D02*
D03*
X335000D02*
D03*
X325000D02*
D03*
X315000D02*
D03*
X305000D02*
D03*
X295000D02*
D03*
Y430421D02*
D03*
X305000D02*
D03*
X315000D02*
D03*
X325000D02*
D03*
X335000D02*
D03*
X345000D02*
D03*
X355000D02*
D03*
X365000D02*
D03*
X375000D02*
D03*
X385000D02*
D03*
X395000D02*
D03*
X405000D02*
D03*
X415000D02*
D03*
X425000D02*
D03*
X435000D02*
D03*
X445000D02*
D03*
D58*
X559421Y364500D02*
D03*
D59*
X677000Y264500D02*
D03*
X596500Y35000D02*
D03*
X457000Y142500D02*
D03*
X303500Y124500D02*
D03*
D60*
X677000Y254500D02*
D03*
X667000D02*
D03*
X657000D02*
D03*
X667000Y264500D02*
D03*
X657000D02*
D03*
X566500Y35000D02*
D03*
X586500D02*
D03*
X576500D02*
D03*
X477000Y142500D02*
D03*
X467000D02*
D03*
X363500Y124500D02*
D03*
X373500D02*
D03*
X383500D02*
D03*
X393500D02*
D03*
X403500D02*
D03*
X353500D02*
D03*
X313500D02*
D03*
X323500D02*
D03*
X333500D02*
D03*
X343500D02*
D03*
X23000Y121000D02*
D03*
Y101000D02*
D03*
Y91000D02*
D03*
Y81000D02*
D03*
Y71000D02*
D03*
Y111000D02*
D03*
D61*
Y61000D02*
D03*
D62*
X445000Y500500D02*
D03*
D63*
X164409Y508284D02*
D03*
X190000D02*
D03*
Y526000D02*
D03*
X102409Y507784D02*
D03*
X128000D02*
D03*
Y525500D02*
D03*
D64*
X164409Y526000D02*
D03*
X102409Y525500D02*
D03*
D65*
X47000Y292000D02*
D03*
X57000Y297394D02*
D03*
X47000Y302787D02*
D03*
X57000Y308181D02*
D03*
Y318969D02*
D03*
X47000Y324362D02*
D03*
X57000Y329756D02*
D03*
Y286606D02*
D03*
X47000Y435213D02*
D03*
X57000Y440606D02*
D03*
X47000Y446000D02*
D03*
X57000Y451394D02*
D03*
Y462181D02*
D03*
X47000Y467575D02*
D03*
X57000Y472968D02*
D03*
Y429819D02*
D03*
D66*
X47000Y313575D02*
D03*
Y456787D02*
D03*
D67*
X52000Y357394D02*
D03*
Y258968D02*
D03*
Y500606D02*
D03*
Y402181D02*
D03*
D68*
X375500Y377500D02*
D03*
X385500D02*
D03*
X425500D02*
D03*
X395500D02*
D03*
X405500D02*
D03*
X415500D02*
D03*
X435500D02*
D03*
X445500D02*
D03*
X455500D02*
D03*
X375500Y367500D02*
D03*
X385500D02*
D03*
X425500D02*
D03*
X395500D02*
D03*
X445500D02*
D03*
X455500D02*
D03*
X325500Y377500D02*
D03*
X335500D02*
D03*
X345500D02*
D03*
X355500D02*
D03*
X365500D02*
D03*
X325500Y367500D02*
D03*
X335500D02*
D03*
X345500D02*
D03*
X355500D02*
D03*
X365500D02*
D03*
X405500D02*
D03*
X415500D02*
D03*
X435500D02*
D03*
X455500Y187500D02*
D03*
X445500D02*
D03*
X435500D02*
D03*
X425500D02*
D03*
X415500D02*
D03*
X405500D02*
D03*
X395500D02*
D03*
X385500D02*
D03*
X375500D02*
D03*
X365500D02*
D03*
X355500D02*
D03*
X345500D02*
D03*
X335500D02*
D03*
X325500D02*
D03*
X455500Y197500D02*
D03*
X445500D02*
D03*
X435500D02*
D03*
X425500D02*
D03*
X415500D02*
D03*
X405500D02*
D03*
X395500D02*
D03*
X385500D02*
D03*
X375500D02*
D03*
X365500D02*
D03*
X355500D02*
D03*
X345500D02*
D03*
X335500D02*
D03*
X325500D02*
D03*
X476500Y217500D02*
D03*
Y227500D02*
D03*
Y237500D02*
D03*
Y247500D02*
D03*
Y257500D02*
D03*
Y267500D02*
D03*
Y277500D02*
D03*
Y287500D02*
D03*
Y297500D02*
D03*
Y307500D02*
D03*
Y317500D02*
D03*
Y327500D02*
D03*
Y337500D02*
D03*
Y347500D02*
D03*
X486500Y217500D02*
D03*
Y227500D02*
D03*
Y237500D02*
D03*
Y247500D02*
D03*
Y257500D02*
D03*
Y267500D02*
D03*
Y277500D02*
D03*
Y287500D02*
D03*
Y297500D02*
D03*
Y307500D02*
D03*
Y317500D02*
D03*
Y327500D02*
D03*
Y337500D02*
D03*
Y347500D02*
D03*
X295500Y217500D02*
D03*
Y227500D02*
D03*
Y237500D02*
D03*
Y247500D02*
D03*
Y257500D02*
D03*
Y267500D02*
D03*
Y277500D02*
D03*
Y287500D02*
D03*
Y297500D02*
D03*
Y307500D02*
D03*
Y317500D02*
D03*
Y327500D02*
D03*
Y337500D02*
D03*
Y347500D02*
D03*
X305500Y217500D02*
D03*
Y227500D02*
D03*
Y237500D02*
D03*
Y247500D02*
D03*
Y257500D02*
D03*
Y267500D02*
D03*
Y277500D02*
D03*
Y287500D02*
D03*
Y297500D02*
D03*
Y307500D02*
D03*
Y317500D02*
D03*
Y327500D02*
D03*
Y337500D02*
D03*
Y347500D02*
D03*
D69*
X419500Y426000D02*
D03*
X391896Y455896D02*
D03*
X403646Y444146D02*
D03*
X411082Y436582D02*
D03*
X403500Y436000D02*
D03*
X355000Y494500D02*
D03*
X77000Y314500D02*
D03*
X317000Y338000D02*
D03*
X366500Y347000D02*
D03*
X456500D02*
D03*
X470000D02*
D03*
X515500Y333500D02*
D03*
X446000Y205500D02*
D03*
Y213500D02*
D03*
X489500Y210681D02*
D03*
X414955Y210469D02*
D03*
X513500Y186000D02*
D03*
X522000Y187500D02*
D03*
X519000Y200000D02*
D03*
Y273000D02*
D03*
X306500Y170500D02*
D03*
X313500Y209500D02*
D03*
X326500Y227500D02*
D03*
X332500D02*
D03*
X351500D02*
D03*
X405000D02*
D03*
X421500Y223000D02*
D03*
X350396Y171896D02*
D03*
X404500Y232500D02*
D03*
X380500Y169500D02*
D03*
X360500Y163500D02*
D03*
X370500D02*
D03*
X380000Y192500D02*
D03*
X381000Y240500D02*
D03*
X403000D02*
D03*
X316500Y171500D02*
D03*
X406000Y244500D02*
D03*
X370500Y192500D02*
D03*
Y262500D02*
D03*
X407000D02*
D03*
X411000Y194000D02*
D03*
X410500Y208000D02*
D03*
X421000Y257500D02*
D03*
X390500Y171500D02*
D03*
X390490Y189990D02*
D03*
X390500Y249000D02*
D03*
X403500D02*
D03*
X407500Y252500D02*
D03*
X360500Y194000D02*
D03*
X361000Y252500D02*
D03*
X508500Y191000D02*
D03*
X567000Y191500D02*
D03*
X401500Y179000D02*
D03*
X400500Y191000D02*
D03*
X400000Y274500D02*
D03*
Y287500D02*
D03*
X226500Y330000D02*
D03*
X385000Y272500D02*
D03*
X246500Y323000D02*
D03*
X370500Y290500D02*
D03*
X251500Y313500D02*
D03*
X359000Y308000D02*
D03*
X223500Y353000D02*
D03*
X334000Y326500D02*
D03*
X223000Y357500D02*
D03*
X282500Y360181D02*
D03*
X285500Y363500D02*
D03*
X303500Y355000D02*
D03*
X227500Y303000D02*
D03*
X252000Y287500D02*
D03*
X263000D02*
D03*
X252000Y282500D02*
D03*
X228500Y482500D02*
D03*
Y389500D02*
D03*
X136500Y489000D02*
D03*
X236500Y389500D02*
D03*
X254000Y149500D02*
D03*
X285000D02*
D03*
X300500D02*
D03*
X284000Y206500D02*
D03*
Y170500D02*
D03*
X290500Y170000D02*
D03*
X291000Y202000D02*
D03*
X297500Y170000D02*
D03*
Y197500D02*
D03*
X432000Y157500D02*
D03*
X440500D02*
D03*
X508000D02*
D03*
X545500D02*
D03*
X504500Y208000D02*
D03*
X494000Y204500D02*
D03*
X504500D02*
D03*
X252000Y413500D02*
D03*
X285500Y393500D02*
D03*
X303500D02*
D03*
X331000Y359000D02*
D03*
X455500Y332500D02*
D03*
X252000Y390000D02*
D03*
X455500Y327500D02*
D03*
X80500Y404000D02*
D03*
X302000Y363500D02*
D03*
X348500Y317500D02*
D03*
X375000D02*
D03*
X455500D02*
D03*
X285000Y372500D02*
D03*
X302000D02*
D03*
X358000Y313000D02*
D03*
X378500D02*
D03*
X456000D02*
D03*
X284000Y424000D02*
D03*
X294000D02*
D03*
X455500Y342500D02*
D03*
X469500D02*
D03*
X80250Y411750D02*
D03*
X285000Y378000D02*
D03*
X302000D02*
D03*
X284500Y389000D02*
D03*
X303500D02*
D03*
X178000Y195500D02*
D03*
Y188000D02*
D03*
X70500Y300500D02*
D03*
X70000Y291000D02*
D03*
X383000Y402500D02*
D03*
X378000Y407500D02*
D03*
X288500Y408000D02*
D03*
X384646Y411646D02*
D03*
X295500Y402000D02*
D03*
X406164Y416925D02*
D03*
X401679Y421932D02*
D03*
X403989Y419489D02*
D03*
X403000Y412500D02*
D03*
X398146Y417646D02*
D03*
X409500Y372000D02*
D03*
X400500Y360500D02*
D03*
X409500Y384500D02*
D03*
X405500Y387500D02*
D03*
X374000Y399000D02*
D03*
X300500D02*
D03*
X344000Y388500D02*
D03*
X350500Y413000D02*
D03*
X360104Y388104D02*
D03*
X346000Y418000D02*
D03*
X358500Y420000D02*
D03*
X361500Y422000D02*
D03*
X355319Y416766D02*
D03*
X351000Y421500D02*
D03*
X360500Y434500D02*
D03*
X364500Y424500D02*
D03*
X467500Y409000D02*
D03*
X443500Y404000D02*
D03*
X464000D02*
D03*
X452000Y400000D02*
D03*
X460500D02*
D03*
X510000Y350500D02*
D03*
Y343500D02*
D03*
X408396Y426396D02*
D03*
X400500Y394000D02*
D03*
X414500Y420500D02*
D03*
X412500Y414000D02*
D03*
X388000Y413500D02*
D03*
X354500Y474000D02*
D03*
X374500Y476000D02*
D03*
X365000Y457000D02*
D03*
Y484500D02*
D03*
X395500Y452500D02*
D03*
X417000Y385500D02*
D03*
X441000Y178500D02*
D03*
X456000D02*
D03*
X687500Y247000D02*
D03*
Y345500D02*
D03*
X731500Y334500D02*
D03*
Y338000D02*
D03*
X721000Y327000D02*
D03*
X728500Y307500D02*
D03*
X720500Y243000D02*
D03*
X672000Y332500D02*
D03*
X666000Y289500D02*
D03*
X580000Y294500D02*
D03*
X650500Y288500D02*
D03*
X580000Y284500D02*
D03*
X727381Y331500D02*
D03*
X728500Y352500D02*
D03*
X723000Y345500D02*
D03*
X677000Y313500D02*
D03*
X657000Y319000D02*
D03*
X655000Y300000D02*
D03*
X645500D02*
D03*
M02*
