G04*
G04 #@! TF.GenerationSoftware,Altium Limited,Altium Designer,22.4.2 (48)*
G04*
G04 Layer_Color=65535*
%FSLAX25Y25*%
%MOIN*%
G70*
G04*
G04 #@! TF.SameCoordinates,08344E4B-EA76-4565-9D62-395010ACA534*
G04*
G04*
G04 #@! TF.FilePolarity,Positive*
G04*
G01*
G75*
%ADD10C,0.00787*%
%ADD11C,0.00500*%
%ADD12C,0.01575*%
%ADD13C,0.01000*%
D10*
X551340Y364500D02*
G03*
X551340Y364500I-394J0D01*
G01*
X743878Y348764D02*
G03*
X743878Y348764I-394J0D01*
G01*
X682394Y273142D02*
G03*
X682394Y273142I-394J0D01*
G01*
X596894Y26142D02*
G03*
X596894Y26142I-394J0D01*
G01*
X452894Y149500D02*
G03*
X452894Y149500I-394J0D01*
G01*
X303894Y133358D02*
G03*
X303894Y133358I-394J0D01*
G01*
X14535Y61000D02*
G03*
X14535Y61000I-394J0D01*
G01*
X445394Y508974D02*
G03*
X445394Y508974I-394J0D01*
G01*
X159598Y526000D02*
G03*
X159598Y526000I-394J0D01*
G01*
X97598Y525500D02*
G03*
X97598Y525500I-394J0D01*
G01*
X139024Y285972D02*
G03*
X139024Y285972I-394J0D01*
G01*
Y299393D02*
G03*
X139024Y299393I-394J0D01*
G01*
Y312815D02*
G03*
X139024Y312815I-394J0D01*
G01*
Y326232D02*
G03*
X139024Y326232I-394J0D01*
G01*
Y339657D02*
G03*
X139024Y339657I-394J0D01*
G01*
Y353075D02*
G03*
X139024Y353075I-394J0D01*
G01*
Y366500D02*
G03*
X139024Y366500I-394J0D01*
G01*
Y380000D02*
G03*
X139024Y380000I-394J0D01*
G01*
X609000Y25000D02*
Y145000D01*
X489500D02*
X609000D01*
X489500Y25000D02*
Y145000D01*
Y25000D02*
X609000D01*
X596500D02*
X609000D01*
X270500Y137500D02*
X353500Y137000D01*
X270500Y18500D02*
Y137500D01*
Y18500D02*
X433000D01*
Y137500D01*
X353500Y137000D02*
X433000Y137500D01*
X10000Y172500D02*
X251500D01*
Y1500D02*
Y172500D01*
X10000Y1500D02*
X251500D01*
X10000D02*
Y91000D01*
Y172500D01*
X214500Y176000D02*
X512000D01*
Y392500D01*
X214500Y393000D02*
X512000Y392500D01*
X214500Y176000D02*
Y393000D01*
D11*
X184114Y517142D02*
G03*
X184114Y517142I-6909J0D01*
G01*
X122114Y516642D02*
G03*
X122114Y516642I-6909J0D01*
G01*
X612920Y376508D02*
X632921D01*
X552915D02*
X572917D01*
X582925Y366500D02*
X602912D01*
X632921Y376508D02*
X632921Y171000D01*
X552915D02*
Y376508D01*
Y171000D02*
X632921D01*
X576670Y369002D02*
X577921Y367751D01*
X575419Y369002D02*
X576670D01*
X577921Y367751D02*
X579172Y369002D01*
X580423D01*
X574168Y371504D02*
X575419Y370253D01*
Y369002D02*
Y370253D01*
X574168Y371504D02*
X575419Y372755D01*
Y374006D01*
X573542Y374631D02*
Y375882D01*
X572917Y376508D02*
X573542Y375882D01*
Y374631D02*
X574793D01*
X575419Y374006D01*
X581048Y367126D02*
Y368376D01*
X580423Y369002D02*
X581048Y368376D01*
Y367126D02*
X582299D01*
X582925Y366500D01*
X603537Y367126D02*
X604788D01*
X602912Y366500D02*
X603537Y367126D01*
X604788D02*
Y368376D01*
X605414Y369002D01*
X606665D02*
X607916Y367751D01*
X605414Y369002D02*
X606665D01*
X607916Y367751D02*
X609167Y369002D01*
X610418D01*
Y370253D02*
X611669Y371504D01*
X610418Y369002D02*
Y370253D01*
Y372755D02*
X611669Y371504D01*
X610418Y372755D02*
Y374006D01*
X611043Y374631D02*
X612294D01*
X610418Y374006D02*
X611043Y374631D01*
X612294D02*
Y375882D01*
X612920Y376508D01*
X694370Y311953D02*
Y353882D01*
X709429Y359000D02*
X732854D01*
X711988Y311953D02*
X732854D01*
X694370D02*
X698012D01*
X652000Y250079D02*
Y269921D01*
X681500D01*
X652000Y250079D02*
X681500D01*
Y269921D01*
X561500Y40000D02*
X601500D01*
X561500Y30079D02*
Y40000D01*
Y30079D02*
X601500D01*
Y40000D01*
X452000Y137500D02*
Y147421D01*
X481500D01*
Y137500D02*
Y147421D01*
X452000Y137500D02*
X481500D01*
X408000Y119500D02*
Y129421D01*
X298500Y119500D02*
X408000D01*
X298500Y129421D02*
X408000D01*
X298500Y119500D02*
Y129421D01*
X18079Y56000D02*
X28000D01*
X18079D02*
Y126000D01*
X28000D01*
Y56000D02*
Y126000D01*
X282992Y507006D02*
X457008D01*
X282992Y427000D02*
X457008Y427000D01*
Y507006D01*
X282992Y427000D02*
Y507006D01*
X169331Y528933D02*
X185079D01*
X188996Y513205D02*
Y521079D01*
X169331Y505350D02*
X185079D01*
X165413Y513205D02*
Y521079D01*
X65386Y247236D02*
Y369126D01*
X6331Y247236D02*
X65386D01*
X6331D02*
Y276095D01*
X-18079D02*
X6331D01*
X-18079D02*
Y340268D01*
X6331D01*
Y369126D01*
X65386D01*
Y390449D02*
Y512339D01*
X6331Y390449D02*
X65386D01*
X6331D02*
Y419307D01*
X-18079D02*
X6331D01*
X-18079D02*
Y483480D01*
X6331D01*
Y512339D01*
X65386D01*
X320500Y362500D02*
Y382500D01*
X461500D01*
X320500Y362500D02*
X461500D01*
Y382500D01*
X320500Y182500D02*
X461500D01*
Y202500D01*
X320500D02*
X461500D01*
X320500Y182500D02*
Y202500D01*
X471500Y211500D02*
Y352500D01*
Y211500D02*
X491500D01*
Y352500D01*
X471500D02*
X491500D01*
X290500Y211500D02*
Y352500D01*
Y211500D02*
X310500D01*
Y352500D01*
X290500D02*
X310500D01*
X107331Y528433D02*
X123079D01*
X126996Y512705D02*
Y520579D01*
X107331Y504850D02*
X123079D01*
X103413Y512705D02*
Y520579D01*
X166362Y336311D02*
X171638D01*
X166362Y343004D02*
X171638D01*
X166362Y376654D02*
X171638D01*
X166362Y383347D02*
X171638D01*
X166362Y363154D02*
X171638D01*
X166362Y369847D02*
X171638D01*
X166362Y282626D02*
X171638D01*
X166362Y289319D02*
X171638D01*
X166362Y296047D02*
X171638D01*
X166362Y302740D02*
X171638D01*
X166362Y309469D02*
X171638D01*
X166362Y316161D02*
X171638D01*
X166362Y322886D02*
X171638D01*
X166362Y329579D02*
X171638D01*
X166362Y349728D02*
X171638D01*
X166362Y356421D02*
X171638D01*
X125303Y282823D02*
X130697D01*
X125303Y289122D02*
X130697D01*
X125303Y296244D02*
X130697D01*
X125303Y302543D02*
X130697D01*
X125303Y309665D02*
X130697D01*
X125303Y315965D02*
X130697D01*
X125303Y323083D02*
X130697D01*
X125303Y329382D02*
X130697D01*
X125303Y336508D02*
X130697D01*
X125303Y342807D02*
X130697D01*
X125303Y349925D02*
X130697D01*
X125303Y356224D02*
X130697D01*
X125303Y363350D02*
X130697D01*
X125303Y369650D02*
X130697D01*
X125303Y376850D02*
X130697D01*
X125303Y383150D02*
X130697D01*
X673996Y300563D02*
Y308437D01*
X681004Y300563D02*
Y308437D01*
X673996Y319063D02*
Y326937D01*
X681004Y319063D02*
Y326937D01*
X673996Y337063D02*
Y344937D01*
X681004Y337063D02*
Y344937D01*
X673996Y354563D02*
Y362437D01*
X681004Y354563D02*
Y362437D01*
X533444Y268720D02*
X533457Y270779D01*
X540539Y268787D02*
X540543Y270779D01*
D12*
X68693Y286571D02*
G03*
X68693Y286571I-787J0D01*
G01*
Y429783D02*
G03*
X68693Y429783I-787J0D01*
G01*
D13*
X254905Y265999D02*
X253905Y264999D01*
Y263000D01*
X254905Y262000D01*
X258903D01*
X259903Y263000D01*
Y264999D01*
X258903Y265999D01*
X255904Y267998D02*
X258903D01*
X259903Y268998D01*
Y271997D01*
X260903D01*
X261902Y270997D01*
Y269997D01*
X259903Y271997D02*
X255904D01*
Y277995D02*
Y274996D01*
X256904Y273996D01*
X258903D01*
X259903Y274996D01*
Y277995D01*
Y279994D02*
Y281994D01*
Y280994D01*
X253905D01*
Y279994D01*
X259903Y285992D02*
Y287992D01*
X258903Y288991D01*
X256904D01*
X255904Y287992D01*
Y285992D01*
X256904Y284993D01*
X258903D01*
X259903Y285992D01*
Y290991D02*
X255904D01*
Y293990D01*
X256904Y294989D01*
X259903D01*
Y299988D02*
Y297988D01*
X258903Y296989D01*
X256904D01*
X255904Y297988D01*
Y299988D01*
X256904Y300987D01*
X257904D01*
Y296989D01*
X253905Y308985D02*
Y310984D01*
Y309984D01*
X259903D01*
Y308985D01*
Y310984D01*
X253905Y313983D02*
Y315983D01*
Y314983D01*
X259903D01*
Y313983D01*
Y315983D01*
X265502Y265999D02*
Y262000D01*
X271500D01*
Y265999D01*
X268501Y262000D02*
Y263999D01*
X271500Y267998D02*
X265502D01*
Y270997D01*
X266502Y271997D01*
X268501D01*
X269501Y270997D01*
Y267998D01*
X271500Y277995D02*
Y273996D01*
X267501Y277995D01*
X266502D01*
X265502Y276995D01*
Y274996D01*
X266502Y273996D01*
Y283993D02*
X265502Y282993D01*
Y280994D01*
X266502Y279994D01*
X270500D01*
X271500Y280994D01*
Y282993D01*
X270500Y283993D01*
X265502Y289991D02*
Y285992D01*
X268501D01*
X267501Y287992D01*
Y288991D01*
X268501Y289991D01*
X270500D01*
X271500Y288991D01*
Y286992D01*
X270500Y285992D01*
X265502Y291990D02*
Y295989D01*
Y293990D01*
X271500D01*
Y297988D02*
Y299988D01*
Y298988D01*
X265502D01*
X266502Y297988D01*
X271500Y305986D02*
X265502D01*
X268501Y302987D01*
Y306985D01*
X271500Y311984D02*
X265502D01*
X268501Y308985D01*
Y312983D01*
X657780Y245876D02*
X658436Y246532D01*
Y247844D01*
X657780Y248500D01*
X655156D01*
X654500Y247844D01*
Y246532D01*
X655156Y245876D01*
X656468D01*
Y247188D01*
X654500Y244564D02*
X658436D01*
X654500Y241940D01*
X658436D01*
Y240629D02*
X654500D01*
Y238661D01*
X655156Y238005D01*
X657780D01*
X658436Y238661D01*
Y240629D01*
X329835Y86511D02*
Y85199D01*
X329179Y84544D01*
X331803Y83888D02*
X334426D01*
X335738Y81920D02*
Y82576D01*
X336394D01*
Y81920D01*
X335738D01*
X341642Y78733D02*
Y77421D01*
X340986Y76765D01*
X343610Y76109D02*
X346234D01*
X347546Y74141D02*
Y74797D01*
X348201D01*
Y74141D01*
X347546D01*
X354761Y73485D02*
X357385D01*
X358697D02*
X361321D01*
X362632D02*
X365256D01*
X366568D02*
X369192D01*
X370504D02*
X373128D01*
X313436Y65706D02*
Y66362D01*
X314092D01*
Y65706D01*
X313436D01*
X316716Y67674D02*
X319339D01*
X320651Y65706D02*
Y66362D01*
X321307D01*
Y65706D01*
X320651D01*
X323931Y65050D02*
X326555D01*
X351481Y69642D02*
Y65706D01*
X373784Y70298D02*
Y68986D01*
X373128Y68330D01*
X375752Y65706D02*
Y66362D01*
X376408D01*
Y65706D01*
X375752D01*
X309500Y60551D02*
X310156D01*
Y59895D01*
X309500D01*
Y60551D01*
Y58583D02*
X310156D01*
Y57927D01*
X309500D01*
Y58583D01*
X320651Y57927D02*
Y58583D01*
X321307D01*
Y57927D01*
X320651D01*
X323931D02*
Y58583D01*
X324587D01*
Y57927D01*
X323931D01*
X350825Y61863D02*
Y57927D01*
X376408Y60551D02*
X377063D01*
Y59895D01*
X376408D01*
Y60551D01*
Y58583D02*
X377063D01*
Y57927D01*
X376408D01*
Y58583D01*
X310156Y54740D02*
Y53428D01*
X309500Y52772D01*
X312124Y52116D02*
X314748D01*
X316060Y50148D02*
Y50804D01*
X316716D01*
Y50148D01*
X316060D01*
X319339Y49492D02*
X321963D01*
X323275Y52116D02*
X325899D01*
X324587Y53428D02*
Y50804D01*
X350825Y54084D02*
Y50148D01*
X368536D02*
Y50804D01*
X369192D01*
Y50148D01*
X368536D01*
X371816Y52116D02*
X374440D01*
X376408Y54740D02*
Y53428D01*
X375752Y52772D01*
X313436Y41714D02*
X316060Y44337D01*
X327867Y41714D02*
X325243Y44337D01*
X348857Y41714D02*
Y42370D01*
X349513D01*
Y41714D01*
X348857D01*
X352793Y46305D02*
Y44993D01*
X352137Y44337D01*
X354761Y41714D02*
X356073D01*
X355417D01*
Y44337D01*
X354761D01*
X358041Y43681D02*
X360665D01*
X361977D02*
X364600D01*
X365912Y41714D02*
X367224D01*
X366568D01*
Y44337D01*
X365912D01*
X309500Y33935D02*
X312124Y36559D01*
X331803Y33935D02*
X329179Y36559D01*
X337050Y33935D02*
Y34591D01*
X337706D01*
Y33935D01*
X337050D01*
X340330Y35903D02*
X342954D01*
X344922Y38526D02*
Y37215D01*
X344266Y36559D01*
X346889Y33279D02*
X349513D01*
X350825Y33935D02*
X353449Y36559D01*
X354761Y33279D02*
X357385D01*
X358697D02*
X361321D01*
X362632D02*
X365256D01*
X366568D02*
X369192D01*
X373128Y33935D02*
X370504Y36559D01*
X374440Y33279D02*
X377063D01*
X378375D02*
X380999D01*
X382311D02*
X384935D01*
X325243Y25500D02*
Y26156D01*
X325899D01*
Y25500D01*
X325243D01*
X328523Y27468D02*
X331147D01*
X333114Y30092D02*
Y28780D01*
X332458Y28124D01*
X342954D02*
X343610D01*
Y27468D01*
X342954D01*
Y28124D01*
Y26156D02*
X343610D01*
Y25500D01*
X342954D01*
Y26156D01*
X374440Y25500D02*
Y28780D01*
Y27468D01*
X373784D01*
X375096D01*
X374440D01*
Y28780D01*
X375096Y29436D01*
X377063Y25500D02*
X379031D01*
X379687Y26156D01*
X379031Y26812D01*
X377719D01*
X377063Y27468D01*
X377719Y28124D01*
X379687D01*
X383623D02*
X381655D01*
X380999Y27468D01*
Y26156D01*
X381655Y25500D01*
X383623D01*
X384935Y28124D02*
X385591D01*
Y27468D01*
X384935D01*
Y28124D01*
Y26156D02*
X385591D01*
Y25500D01*
X384935D01*
Y26156D01*
X675500Y285500D02*
X679436D01*
X678124Y284188D01*
X679436Y282876D01*
X675500D01*
X679436Y281564D02*
Y280252D01*
Y280908D01*
X675500D01*
Y281564D01*
Y280252D01*
X678780Y275661D02*
X679436Y276317D01*
Y277628D01*
X678780Y278285D01*
X678124D01*
X677468Y277628D01*
Y276317D01*
X676812Y275661D01*
X676156D01*
X675500Y276317D01*
Y277628D01*
X676156Y278285D01*
X679436Y272381D02*
Y273693D01*
X678780Y274349D01*
X676156D01*
X675500Y273693D01*
Y272381D01*
X676156Y271725D01*
X678780D01*
X679436Y272381D01*
Y248500D02*
X676812D01*
X675500Y247188D01*
X676812Y245876D01*
X679436D01*
X678124Y241940D02*
Y243908D01*
X677468Y244564D01*
X676156D01*
X675500Y243908D01*
Y241940D01*
X678124Y238005D02*
Y239973D01*
X677468Y240629D01*
X676156D01*
X675500Y239973D01*
Y238005D01*
X475500Y135000D02*
X479436D01*
Y133032D01*
X478780Y132376D01*
X477468D01*
X476812Y133032D01*
Y135000D01*
Y133688D02*
X475500Y132376D01*
X479436Y131064D02*
X475500Y128440D01*
X479436D02*
X475500Y131064D01*
X468936Y135000D02*
Y132376D01*
Y133688D01*
X465000D01*
X468936Y131064D02*
X465000Y128440D01*
X468936D02*
X465000Y131064D01*
X144481Y135573D02*
X148479Y139572D01*
X154477Y135573D02*
X150479Y139572D01*
X163475Y135573D02*
X165474D01*
X166473Y136573D01*
Y138572D01*
X165474Y139572D01*
X163475D01*
X162475Y138572D01*
Y136573D01*
X163475Y135573D01*
X103494Y125976D02*
X105493D01*
X106493Y126975D01*
Y128975D01*
X105493Y129974D01*
X103494D01*
X102494Y128975D01*
Y126975D01*
X103494Y125976D01*
X138482D02*
X142481Y129974D01*
X144481Y124976D02*
X148479D01*
X156477Y125976D02*
X160475Y129974D01*
X162475Y130974D02*
X163475Y131974D01*
X165474D01*
X166473Y132974D01*
X168473Y130974D02*
X169473Y131974D01*
X171472D01*
X172472Y132974D01*
X174471Y125976D02*
X178470Y129974D01*
X112491Y115378D02*
X108492Y119377D01*
X150479Y115378D02*
X154477Y119377D01*
X160475Y115378D02*
X156477Y119377D01*
X162475Y115378D02*
X166473Y119377D01*
X118489Y105781D02*
X114490Y109779D01*
X144481Y105781D02*
X148479Y109779D01*
X124487Y96183D02*
X120488Y100182D01*
X138482Y96183D02*
X142481Y100182D01*
X85500Y85586D02*
X86499Y86585D01*
Y87585D01*
X85500D01*
Y86585D01*
X86499D01*
X85500Y85586D01*
X84500Y84586D01*
X90498Y89584D02*
X94497D01*
X96496D02*
X100495D01*
X102494D02*
X106493D01*
X108492D02*
X112491D01*
X114490D02*
X118489D01*
X120488D02*
X124487D01*
X126486D02*
X130485D01*
X132484D02*
X136483D01*
X138482D02*
X142481D01*
X144481D02*
X148479D01*
X150479D02*
X154477D01*
X156477D02*
X160475D01*
X162475D02*
X166473D01*
X168473D02*
X172472D01*
X174471D02*
X178470D01*
X180469D02*
X184468D01*
X186467D02*
X190466D01*
X193465Y85586D02*
X194464Y86585D01*
Y87585D01*
X193465D01*
Y86585D01*
X194464D01*
X193465Y85586D01*
X192465Y84586D01*
X84500Y82986D02*
Y76988D01*
X94497Y75988D02*
X95496Y76988D01*
Y77987D01*
X94497D01*
Y76988D01*
X95496D01*
X94497Y75988D01*
X93497Y74988D01*
X99495Y79987D02*
X103494D01*
X105493D02*
X109492D01*
X111491D02*
X115490D01*
X117489D02*
X121488D01*
X123487D02*
X127486D01*
X129485D02*
X133484D01*
X135484D02*
X139482D01*
X141482D02*
X145480D01*
X147480D02*
X151478D01*
X153478D02*
X157476D01*
X159476D02*
X163475D01*
X166473Y75988D02*
X167473Y76988D01*
Y77987D01*
X166473D01*
Y76988D01*
X167473D01*
X166473Y75988D01*
X165474Y74988D01*
X189466Y82986D02*
Y76988D01*
X84500Y73388D02*
Y67390D01*
X93497Y73388D02*
Y67390D01*
X162475Y73388D02*
Y67390D01*
X174471Y73388D02*
X172472D01*
X171472Y72388D01*
Y68390D01*
X172472Y67390D01*
X174471D01*
X175471Y68390D01*
Y72388D01*
X174471Y73388D01*
X183468D02*
Y67390D01*
X84500Y63790D02*
Y57792D01*
X93497Y63790D02*
Y57792D01*
X162475Y63790D02*
Y57792D01*
X174471Y63790D02*
X172472D01*
X171472Y62791D01*
Y58792D01*
X172472Y57792D01*
X174471D01*
X175471Y58792D01*
Y62791D01*
X174471Y63790D01*
X183468D02*
Y57792D01*
X84500Y54193D02*
Y48195D01*
X93497Y54193D02*
Y48195D01*
X162475Y54193D02*
Y48195D01*
X165474D02*
Y49194D01*
X166473D01*
Y48195D01*
X165474D01*
X170472D02*
Y49194D01*
X171472D01*
Y48195D01*
X170472D01*
X175471D02*
Y49194D01*
X176470D01*
Y48195D01*
X175471D01*
X180469Y54193D02*
Y48195D01*
X84500Y44595D02*
Y38597D01*
X93497Y44595D02*
Y38597D01*
X96496Y37597D02*
X100495D01*
X102494D02*
X106493D01*
X108492D02*
X112491D01*
X114490D02*
X118489D01*
X120488D02*
X124487D01*
X126486D02*
X130485D01*
X132484D02*
X136483D01*
X138482D02*
X142481D01*
X144481D02*
X148479D01*
X150479D02*
X154477D01*
X156477D02*
X160475D01*
X162475Y44595D02*
Y38597D01*
X165474Y44595D02*
X167473D01*
X166473D01*
Y38597D01*
X165474D01*
X167473D01*
X171472D02*
Y44595D01*
X173471D02*
Y38597D01*
X170472Y42596D02*
X173471D01*
X174471D01*
X170472Y40596D02*
X174471D01*
X176470Y44595D02*
X178470D01*
X177470D01*
Y38597D01*
X176470D01*
X178470D01*
X181469Y44595D02*
Y38597D01*
X84500Y33998D02*
Y28000D01*
X87499Y27000D02*
X91498D01*
X93497D02*
X97496D01*
X99495D02*
X103494D01*
X105493D02*
X109492D01*
X111491D02*
X115490D01*
X117489D02*
X121488D01*
X123487D02*
X127486D01*
X129485D02*
X133484D01*
X135484D02*
X139482D01*
X141482D02*
X145480D01*
X147480D02*
X151478D01*
X153478D02*
X157476D01*
X159476D02*
X163475D01*
X169473Y33998D02*
Y28000D01*
X166473D01*
X165474Y28999D01*
Y30999D01*
X166473Y31998D01*
X169473D01*
X175471D02*
X172472D01*
X171472Y30999D01*
Y28999D01*
X172472Y28000D01*
X175471D01*
X178470Y31998D02*
X180469D01*
X181469Y30999D01*
Y28000D01*
X178470D01*
X177470Y28999D01*
X178470Y29999D01*
X181469D01*
X183468Y31998D02*
Y28999D01*
X184468Y28000D01*
X187467D01*
Y31998D01*
X189466Y33998D02*
Y28000D01*
X457780Y132376D02*
X458436Y133032D01*
Y134344D01*
X457780Y135000D01*
X455156D01*
X454500Y134344D01*
Y133032D01*
X455156Y132376D01*
X456468D01*
Y133688D01*
X454500Y131064D02*
X458436D01*
X454500Y128440D01*
X458436D01*
Y127129D02*
X454500D01*
Y125161D01*
X455156Y124505D01*
X457780D01*
X458436Y125161D01*
Y127129D01*
X708000Y545999D02*
X711999Y542000D01*
X709999Y543999D01*
X711999Y545999D01*
X708000Y542000D01*
X714998D02*
X716997D01*
X717997Y543000D01*
Y544999D01*
X716997Y545999D01*
X714998D01*
X713998Y544999D01*
Y543000D01*
X714998Y542000D01*
X719996Y545999D02*
Y542000D01*
Y543999D01*
X720996Y544999D01*
X721995Y545999D01*
X722995D01*
X728993Y542000D02*
X726994D01*
X725994Y543000D01*
Y544999D01*
X726994Y545999D01*
X728993D01*
X729993Y544999D01*
Y543999D01*
X725994D01*
X732992Y542000D02*
X734991D01*
X735991Y543000D01*
Y544999D01*
X734991Y545999D01*
X732992D01*
X731992Y544999D01*
Y543000D01*
X732992Y542000D01*
X533550Y104926D02*
X536174D01*
X537486D02*
X540110D01*
X541422D02*
X544045D01*
X545357D02*
X547981D01*
X549293D02*
X551917D01*
X553229D02*
X555853D01*
X557165D02*
X559788D01*
X561100D02*
X563724D01*
X565036D02*
X567660D01*
X525679Y97148D02*
X528302D01*
X529614Y101739D02*
Y97803D01*
X531582Y97148D02*
X534206D01*
X535518D02*
X538142D01*
X539454D02*
X542078D01*
X543390D02*
X546013D01*
X547325D02*
X549949D01*
X551261D02*
X553885D01*
X555197D02*
X557821D01*
X559132D02*
X561756D01*
X563068D02*
X565692D01*
X567004Y101739D02*
Y97803D01*
X568972Y97148D02*
X571596D01*
X521743Y90025D02*
X524367Y92649D01*
X579467Y90025D02*
X576843Y92649D01*
X506000Y82902D02*
Y86838D01*
X507312Y85526D01*
X508624Y86838D01*
Y82902D01*
X509936Y86838D02*
X512560D01*
X511248D01*
Y82902D01*
X517807Y86838D02*
Y82902D01*
X524367D02*
Y86838D01*
X525679D02*
Y82902D01*
X523711Y85526D02*
X525679D01*
X526335D01*
X523711Y84214D02*
X526335D01*
X528302Y82902D02*
Y86838D01*
X529614D02*
Y82902D01*
X527647Y85526D02*
X529614D01*
X530270D01*
X527647Y84214D02*
X530270D01*
X532238Y82902D02*
Y86838D01*
X533550D02*
Y82902D01*
X531582Y85526D02*
X533550D01*
X534206D01*
X531582Y84214D02*
X534206D01*
X563724Y82902D02*
Y86838D01*
X565036D02*
Y82902D01*
X563068Y85526D02*
X565036D01*
X565692D01*
X563068Y84214D02*
X565692D01*
X567660Y82902D02*
Y86838D01*
X568972D02*
Y82902D01*
X567004Y85526D02*
X568972D01*
X569628D01*
X567004Y84214D02*
X569628D01*
X571596Y82902D02*
Y86838D01*
X572908D02*
Y82902D01*
X570940Y85526D02*
X572908D01*
X573563D01*
X570940Y84214D02*
X573563D01*
X578811Y86838D02*
Y82902D01*
X517807Y79715D02*
Y75779D01*
X524367D02*
Y79715D01*
X525679D02*
Y75779D01*
X523711Y78403D02*
X525679D01*
X526335D01*
X523711Y77091D02*
X526335D01*
X528302Y75779D02*
Y79715D01*
X529614D02*
Y75779D01*
X527647Y78403D02*
X529614D01*
X530270D01*
X527647Y77091D02*
X530270D01*
X532238Y75779D02*
Y79715D01*
X533550D02*
Y75779D01*
X531582Y78403D02*
X533550D01*
X534206D01*
X531582Y77091D02*
X534206D01*
X563724Y75779D02*
Y79715D01*
X565036D02*
Y75779D01*
X563068Y78403D02*
X565036D01*
X565692D01*
X563068Y77091D02*
X565692D01*
X567660Y75779D02*
Y79715D01*
X568972D02*
Y75779D01*
X567004Y78403D02*
X568972D01*
X569628D01*
X567004Y77091D02*
X569628D01*
X571596Y75779D02*
Y79715D01*
X572908D02*
Y75779D01*
X570940Y78403D02*
X572908D01*
X573563D01*
X570940Y77091D02*
X573563D01*
X578811Y79715D02*
Y75779D01*
X524367Y68656D02*
X521743Y71280D01*
X525679Y68000D02*
X528302D01*
X529614D02*
X532238D01*
X533550D02*
X536174D01*
X537486D02*
X540110D01*
X541422D02*
X544045D01*
X545357D02*
X547981D01*
X549293D02*
X551917D01*
X553229D02*
X555853D01*
X557165D02*
X559788D01*
X561100D02*
X563724D01*
X565036D02*
X567660D01*
X568972D02*
X571596D01*
X572908D02*
X575531D01*
X576843Y68656D02*
X579467Y71280D01*
X668780Y282376D02*
X669436Y283032D01*
Y284344D01*
X668780Y285000D01*
X668124D01*
X667468Y284344D01*
Y283032D01*
X666812Y282376D01*
X666156D01*
X665500Y283032D01*
Y284344D01*
X666156Y285000D01*
X668780Y278440D02*
X669436Y279096D01*
Y280408D01*
X668780Y281064D01*
X666156D01*
X665500Y280408D01*
Y279096D01*
X666156Y278440D01*
X669436Y277129D02*
X665500D01*
X666812D01*
X669436Y274505D01*
X667468Y276473D01*
X665500Y274505D01*
X654500Y285000D02*
X657124D01*
Y283032D01*
X656468Y282376D01*
X654500D01*
Y281064D02*
X658436D01*
Y279096D01*
X657780Y278440D01*
X656468D01*
X655812Y279096D01*
Y281064D01*
Y279752D02*
X654500Y278440D01*
Y277129D02*
Y275161D01*
X655156Y274505D01*
X655812Y275161D01*
Y276473D01*
X656468Y277129D01*
X657124Y276473D01*
Y274505D01*
X657780Y272537D02*
X657124D01*
Y273193D01*
Y271881D01*
Y272537D01*
X655156D01*
X654500Y271881D01*
X665000Y248500D02*
X668936D01*
X667624Y247188D01*
X668936Y245876D01*
X665000D01*
X668936Y242596D02*
Y243908D01*
X668280Y244564D01*
X665656D01*
X665000Y243908D01*
Y242596D01*
X665656Y241940D01*
X668280D01*
X668936Y242596D01*
X668280Y238005D02*
X668936Y238661D01*
Y239973D01*
X668280Y240629D01*
X667624D01*
X666968Y239973D01*
Y238661D01*
X666312Y238005D01*
X665656D01*
X665000Y238661D01*
Y239973D01*
X665656Y240629D01*
X668936Y236693D02*
Y235381D01*
Y236037D01*
X665000D01*
Y236693D01*
Y235381D01*
X587502Y388999D02*
X589502D01*
X588502D01*
Y383001D01*
X587502D01*
X589502D01*
X596499Y387999D02*
X595500Y388999D01*
X593501D01*
X592501Y387999D01*
Y384001D01*
X593501Y383001D01*
X595500D01*
X596499Y384001D01*
X598499Y387999D02*
X599499Y388999D01*
X601498D01*
X602498Y387999D01*
Y387000D01*
X601498Y386000D01*
X600498D01*
X601498D01*
X602498Y385000D01*
Y384001D01*
X601498Y383001D01*
X599499D01*
X598499Y384001D01*
X282900Y518798D02*
X284899D01*
X283900D01*
Y512800D01*
X282900D01*
X284899D01*
X291897Y517798D02*
X290897Y518798D01*
X288898D01*
X287898Y517798D01*
Y513800D01*
X288898Y512800D01*
X290897D01*
X291897Y513800D01*
X297895Y512800D02*
X293896D01*
X297895Y516799D01*
Y517798D01*
X296896Y518798D01*
X294896D01*
X293896Y517798D01*
X579500Y52999D02*
X577501D01*
X578501D01*
Y48001D01*
X577501Y47001D01*
X576501D01*
X575502Y48001D01*
X581500Y51999D02*
X582499Y52999D01*
X584499D01*
X585498Y51999D01*
Y51000D01*
X584499Y50000D01*
X583499D01*
X584499D01*
X585498Y49000D01*
Y48001D01*
X584499Y47001D01*
X582499D01*
X581500Y48001D01*
X465844Y155968D02*
X464532D01*
X465188D01*
Y152688D01*
X464532Y152032D01*
X463876D01*
X463220Y152688D01*
X469124Y152032D02*
Y155968D01*
X467156Y154000D01*
X469780D01*
X347000Y109499D02*
X345001D01*
X346001D01*
Y104501D01*
X345001Y103501D01*
X344001D01*
X343002Y104501D01*
X352998Y103501D02*
X349000D01*
X352998Y107500D01*
Y108499D01*
X351999Y109499D01*
X349999D01*
X349000Y108499D01*
X122500Y166999D02*
X120501D01*
X121501D01*
Y162001D01*
X120501Y161001D01*
X119501D01*
X118502Y162001D01*
X128498Y166999D02*
X126499Y165999D01*
X124500Y164000D01*
Y162001D01*
X125499Y161001D01*
X127499D01*
X128498Y162001D01*
Y163000D01*
X127499Y164000D01*
X124500D01*
X191100Y158900D02*
Y164898D01*
X194099D01*
X195099Y163898D01*
Y161899D01*
X194099Y160899D01*
X191100D01*
X201097Y158900D02*
X197098D01*
X201097Y162899D01*
Y163898D01*
X200097Y164898D01*
X198098D01*
X197098Y163898D01*
X159400Y533000D02*
Y538998D01*
X162399D01*
X163399Y537998D01*
Y535999D01*
X162399Y534999D01*
X159400D01*
X161399D02*
X163399Y533000D01*
X169397Y537998D02*
X168397Y538998D01*
X166398D01*
X165398Y537998D01*
Y536999D01*
X166398Y535999D01*
X168397D01*
X169397Y534999D01*
Y534000D01*
X168397Y533000D01*
X166398D01*
X165398Y534000D01*
X171396Y538998D02*
X175395D01*
X173396D01*
Y533000D01*
X182502Y282973D02*
Y288971D01*
X185502D01*
X186501Y287972D01*
Y285972D01*
X185502Y284973D01*
X182502D01*
X184502D02*
X186501Y282973D01*
X188500D02*
X190500D01*
X189500D01*
Y288971D01*
X188500Y287972D01*
X196498Y282973D02*
Y288971D01*
X193499Y285972D01*
X197498D01*
X182502Y296501D02*
Y302499D01*
X185502D01*
X186501Y301499D01*
Y299500D01*
X185502Y298500D01*
X182502D01*
X184502D02*
X186501Y296501D01*
X188500D02*
X190500D01*
X189500D01*
Y302499D01*
X188500Y301499D01*
X193499D02*
X194499Y302499D01*
X196498D01*
X197498Y301499D01*
Y300500D01*
X196498Y299500D01*
X195498D01*
X196498D01*
X197498Y298500D01*
Y297501D01*
X196498Y296501D01*
X194499D01*
X193499Y297501D01*
X182502Y309816D02*
Y315814D01*
X185502D01*
X186501Y314814D01*
Y312815D01*
X185502Y311815D01*
X182502D01*
X184502D02*
X186501Y309816D01*
X188500D02*
X190500D01*
X189500D01*
Y315814D01*
X188500Y314814D01*
X197498Y309816D02*
X193499D01*
X197498Y313815D01*
Y314814D01*
X196498Y315814D01*
X194499D01*
X193499Y314814D01*
X182502Y323501D02*
Y329499D01*
X185501D01*
X186501Y328499D01*
Y326500D01*
X185501Y325500D01*
X182502D01*
X184502D02*
X186501Y323501D01*
X188500D02*
X190499D01*
X189500D01*
Y329499D01*
X188500Y328499D01*
X193499Y323501D02*
X195498D01*
X194498D01*
Y329499D01*
X193499Y328499D01*
X182502Y336658D02*
Y342656D01*
X185502D01*
X186501Y341657D01*
Y339657D01*
X185502Y338658D01*
X182502D01*
X184502D02*
X186501Y336658D01*
X188500D02*
X190500D01*
X189500D01*
Y342656D01*
X188500Y341657D01*
X193499D02*
X194499Y342656D01*
X196498D01*
X197498Y341657D01*
Y337658D01*
X196498Y336658D01*
X194499D01*
X193499Y337658D01*
Y341657D01*
X182502Y350076D02*
Y356074D01*
X185501D01*
X186500Y355074D01*
Y353075D01*
X185501Y352075D01*
X182502D01*
X184501D02*
X186500Y350076D01*
X188500Y351076D02*
X189499Y350076D01*
X191499D01*
X192498Y351076D01*
Y355074D01*
X191499Y356074D01*
X189499D01*
X188500Y355074D01*
Y354075D01*
X189499Y353075D01*
X192498D01*
X182502Y363501D02*
Y369499D01*
X185501D01*
X186500Y368499D01*
Y366500D01*
X185501Y365500D01*
X182502D01*
X184501D02*
X186500Y363501D01*
X188500Y368499D02*
X189499Y369499D01*
X191499D01*
X192498Y368499D01*
Y367500D01*
X191499Y366500D01*
X192498Y365500D01*
Y364501D01*
X191499Y363501D01*
X189499D01*
X188500Y364501D01*
Y365500D01*
X189499Y366500D01*
X188500Y367500D01*
Y368499D01*
X189499Y366500D02*
X191499D01*
X182502Y377501D02*
Y383499D01*
X185501D01*
X186500Y382499D01*
Y380500D01*
X185501Y379500D01*
X182502D01*
X184501D02*
X186500Y377501D01*
X188500Y383499D02*
X192498D01*
Y382499D01*
X188500Y378501D01*
Y377501D01*
X161900Y490800D02*
Y496798D01*
X164899D01*
X165899Y495798D01*
Y493799D01*
X164899Y492799D01*
X161900D01*
X163899D02*
X165899Y490800D01*
X171897Y496798D02*
X169897Y495798D01*
X167898Y493799D01*
Y491800D01*
X168898Y490800D01*
X170897D01*
X171897Y491800D01*
Y492799D01*
X170897Y493799D01*
X167898D01*
X99900Y490800D02*
Y496798D01*
X102899D01*
X103899Y495798D01*
Y493799D01*
X102899Y492799D01*
X99900D01*
X101899D02*
X103899Y490800D01*
X109897Y496798D02*
X105898D01*
Y493799D01*
X107897Y494799D01*
X108897D01*
X109897Y493799D01*
Y491800D01*
X108897Y490800D01*
X106898D01*
X105898Y491800D01*
X670499Y300502D02*
X664501D01*
Y303501D01*
X665501Y304500D01*
X667500D01*
X668500Y303501D01*
Y300502D01*
Y302501D02*
X670499Y304500D01*
Y309499D02*
X664501D01*
X667500Y306500D01*
Y310498D01*
X670499Y318002D02*
X664501D01*
Y321001D01*
X665501Y322000D01*
X667500D01*
X668500Y321001D01*
Y318002D01*
Y320001D02*
X670499Y322000D01*
X665501Y324000D02*
X664501Y324999D01*
Y326999D01*
X665501Y327998D01*
X666500D01*
X667500Y326999D01*
Y325999D01*
Y326999D01*
X668500Y327998D01*
X669499D01*
X670499Y326999D01*
Y324999D01*
X669499Y324000D01*
X669999Y335502D02*
X664001D01*
Y338501D01*
X665001Y339500D01*
X667000D01*
X668000Y338501D01*
Y335502D01*
Y337501D02*
X669999Y339500D01*
Y345498D02*
Y341500D01*
X666000Y345498D01*
X665001D01*
X664001Y344499D01*
Y342499D01*
X665001Y341500D01*
X669499Y354501D02*
X663501D01*
Y357500D01*
X664501Y358500D01*
X666500D01*
X667500Y357500D01*
Y354501D01*
Y356501D02*
X669499Y358500D01*
Y360499D02*
Y362499D01*
Y361499D01*
X663501D01*
X664501Y360499D01*
X-14201Y379198D02*
X-16201D01*
X-15201D01*
Y374200D01*
X-16201Y373200D01*
X-17200D01*
X-18200Y374200D01*
X-12202Y379198D02*
X-8203D01*
Y378198D01*
X-12202Y374200D01*
Y373200D01*
X-14201Y522398D02*
X-16201D01*
X-15201D01*
Y517400D01*
X-16201Y516400D01*
X-17200D01*
X-18200Y517400D01*
X-12202Y516400D02*
X-10203D01*
X-11202D01*
Y522398D01*
X-12202Y521398D01*
X144502Y288971D02*
Y282973D01*
X147501D01*
X148500Y283973D01*
Y287972D01*
X147501Y288971D01*
X144502D01*
X150500D02*
X154498D01*
Y287972D01*
X150500Y283973D01*
Y282973D01*
X144502Y302393D02*
Y296395D01*
X147501D01*
X148500Y297394D01*
Y301393D01*
X147501Y302393D01*
X144502D01*
X154498D02*
X152499Y301393D01*
X150500Y299394D01*
Y297394D01*
X151499Y296395D01*
X153499D01*
X154498Y297394D01*
Y298394D01*
X153499Y299394D01*
X150500D01*
X144502Y315814D02*
Y309816D01*
X147501D01*
X148500Y310816D01*
Y314814D01*
X147501Y315814D01*
X144502D01*
X154498D02*
X150500D01*
Y312815D01*
X152499Y313815D01*
X153499D01*
X154498Y312815D01*
Y310816D01*
X153499Y309816D01*
X151499D01*
X150500Y310816D01*
X144502Y329231D02*
Y323233D01*
X147501D01*
X148500Y324233D01*
Y328232D01*
X147501Y329231D01*
X144502D01*
X153499Y323233D02*
Y329231D01*
X150500Y326232D01*
X154498D01*
X144502Y342656D02*
Y336658D01*
X147501D01*
X148500Y337658D01*
Y341657D01*
X147501Y342656D01*
X144502D01*
X150500Y341657D02*
X151499Y342656D01*
X153499D01*
X154498Y341657D01*
Y340657D01*
X153499Y339657D01*
X152499D01*
X153499D01*
X154498Y338658D01*
Y337658D01*
X153499Y336658D01*
X151499D01*
X150500Y337658D01*
X144502Y356074D02*
Y350076D01*
X147501D01*
X148500Y351076D01*
Y355074D01*
X147501Y356074D01*
X144502D01*
X154498Y350076D02*
X150500D01*
X154498Y354075D01*
Y355074D01*
X153499Y356074D01*
X151499D01*
X150500Y355074D01*
X145501Y369499D02*
Y363501D01*
X148500D01*
X149500Y364501D01*
Y368499D01*
X148500Y369499D01*
X145501D01*
X151499Y363501D02*
X153499D01*
X152499D01*
Y369499D01*
X151499Y368499D01*
X144502Y382999D02*
Y377001D01*
X147501D01*
X148500Y378001D01*
Y381999D01*
X147501Y382999D01*
X144502D01*
X150500Y381999D02*
X151499Y382999D01*
X153499D01*
X154498Y381999D01*
Y378001D01*
X153499Y377001D01*
X151499D01*
X150500Y378001D01*
Y381999D01*
X537399Y285698D02*
X536399Y286698D01*
X534400D01*
X533400Y285698D01*
Y281700D01*
X534400Y280700D01*
X536399D01*
X537399Y281700D01*
X543397Y280700D02*
X539398D01*
X543397Y284699D01*
Y285698D01*
X542397Y286698D01*
X540398D01*
X539398Y285698D01*
X467899Y430498D02*
X466899Y431498D01*
X464900D01*
X463900Y430498D01*
Y426500D01*
X464900Y425500D01*
X466899D01*
X467899Y426500D01*
X469898Y425500D02*
X471897D01*
X470898D01*
Y431498D01*
X469898Y430498D01*
X97400Y538498D02*
Y532500D01*
X100399D01*
X101399Y533500D01*
Y534499D01*
X100399Y535499D01*
X97400D01*
X100399D01*
X101399Y536499D01*
Y537498D01*
X100399Y538498D01*
X97400D01*
X104398Y532500D02*
X106397D01*
X107397Y533500D01*
Y535499D01*
X106397Y536499D01*
X104398D01*
X103398Y535499D01*
Y533500D01*
X104398Y532500D01*
X110396D02*
X112395D01*
X113395Y533500D01*
Y535499D01*
X112395Y536499D01*
X110396D01*
X109396Y535499D01*
Y533500D01*
X110396Y532500D01*
X116394Y537498D02*
Y536499D01*
X115394D01*
X117394D01*
X116394D01*
Y533500D01*
X117394Y532500D01*
M02*
