G04*
G04 #@! TF.GenerationSoftware,Altium Limited,Altium Designer,22.4.2 (48)*
G04*
G04 Layer_Color=32896*
%FSLAX25Y25*%
%MOIN*%
G70*
G04*
G04 #@! TF.SameCoordinates,08344E4B-EA76-4565-9D62-395010ACA534*
G04*
G04*
G04 #@! TF.FilePolarity,Positive*
G04*
G01*
G75*
%ADD13C,0.01000*%
G36*
X359800Y499500D02*
X360600D01*
Y498700D01*
X362200D01*
Y497900D01*
X363000D01*
Y497100D01*
X363800D01*
Y496300D01*
X364600D01*
Y495500D01*
X365400D01*
Y494700D01*
Y493900D01*
Y493100D01*
Y492300D01*
Y491500D01*
X366200D01*
Y490700D01*
Y489900D01*
Y489100D01*
Y488300D01*
Y487500D01*
Y486700D01*
Y485900D01*
Y485100D01*
Y484300D01*
Y483500D01*
Y482700D01*
Y481900D01*
Y481100D01*
Y480300D01*
Y479500D01*
Y478700D01*
Y477900D01*
Y477100D01*
Y476300D01*
Y475500D01*
Y474700D01*
Y473900D01*
Y473100D01*
Y472300D01*
Y471500D01*
Y470700D01*
X321400D01*
Y471500D01*
Y472300D01*
Y473100D01*
Y473900D01*
Y474700D01*
Y475500D01*
Y476300D01*
Y477100D01*
Y477900D01*
Y478700D01*
Y479500D01*
Y480300D01*
Y481100D01*
Y481900D01*
X322200D01*
Y482700D01*
Y483500D01*
X354200D01*
Y484300D01*
Y485100D01*
Y485900D01*
X352600D01*
Y486700D01*
Y487500D01*
X350200D01*
Y488300D01*
X312600D01*
Y489100D01*
Y489900D01*
Y490700D01*
Y491500D01*
Y492300D01*
Y493100D01*
Y493900D01*
Y494700D01*
Y495500D01*
Y496300D01*
Y497100D01*
Y497900D01*
Y498700D01*
Y499500D01*
X311800D01*
Y500300D01*
X359800D01*
Y499500D01*
D02*
G37*
G36*
X432600Y500300D02*
X434200D01*
Y499500D01*
X435000D01*
Y498700D01*
X435800D01*
Y497900D01*
X436600D01*
Y497100D01*
X437400D01*
Y496300D01*
X438200D01*
Y495500D01*
X437400D01*
Y494700D01*
Y493900D01*
Y493100D01*
X439000D01*
Y492300D01*
Y491500D01*
Y490700D01*
Y489900D01*
Y489100D01*
Y488300D01*
Y487500D01*
Y486700D01*
Y485900D01*
Y485100D01*
Y484300D01*
Y483500D01*
Y482700D01*
Y481900D01*
Y481100D01*
Y480300D01*
Y479500D01*
Y478700D01*
Y477900D01*
Y477100D01*
Y476300D01*
Y475500D01*
Y474700D01*
Y473900D01*
Y473100D01*
Y472300D01*
Y471500D01*
Y470700D01*
Y469900D01*
Y469100D01*
Y468300D01*
Y467500D01*
Y466700D01*
Y465900D01*
Y465100D01*
Y464300D01*
Y463500D01*
Y462700D01*
Y461900D01*
Y461100D01*
Y460300D01*
Y459500D01*
Y458700D01*
Y457900D01*
Y457100D01*
Y456300D01*
Y455500D01*
Y454700D01*
Y453900D01*
Y453100D01*
Y452300D01*
Y451500D01*
Y450700D01*
Y449900D01*
Y449100D01*
Y448300D01*
Y447500D01*
Y446700D01*
Y445900D01*
Y445100D01*
Y444300D01*
X438200D01*
Y443500D01*
X437400D01*
Y442700D01*
X438200D01*
Y441900D01*
X437400D01*
Y441100D01*
X436600D01*
Y440300D01*
X435800D01*
Y439500D01*
X435000D01*
Y438700D01*
X434200D01*
Y437900D01*
X432600D01*
Y437100D01*
X403000D01*
Y437900D01*
Y438700D01*
Y439500D01*
Y440300D01*
Y441100D01*
Y441900D01*
Y442700D01*
Y443500D01*
Y444300D01*
Y445100D01*
Y445900D01*
Y446700D01*
Y447500D01*
Y448300D01*
Y449100D01*
Y449900D01*
Y450700D01*
Y451500D01*
Y452300D01*
Y453100D01*
Y453900D01*
Y454700D01*
Y455500D01*
Y456300D01*
Y457100D01*
Y457900D01*
Y458700D01*
Y459500D01*
Y460300D01*
Y461100D01*
Y461900D01*
Y462700D01*
Y463500D01*
Y464300D01*
Y465100D01*
Y465900D01*
Y466700D01*
X422200D01*
Y465900D01*
Y465100D01*
Y464300D01*
Y463500D01*
Y462700D01*
Y461900D01*
Y461100D01*
Y460300D01*
Y459500D01*
Y458700D01*
Y457900D01*
Y457100D01*
Y456300D01*
Y455500D01*
Y454700D01*
Y453900D01*
X415800D01*
Y453100D01*
X415000D01*
Y452300D01*
X414200D01*
Y451500D01*
Y450700D01*
Y449900D01*
X425400D01*
Y450700D01*
X427000D01*
Y451500D01*
Y452300D01*
Y453100D01*
Y453900D01*
Y454700D01*
Y455500D01*
Y456300D01*
Y457100D01*
Y457900D01*
Y458700D01*
Y459500D01*
Y460300D01*
Y461100D01*
Y461900D01*
Y462700D01*
Y463500D01*
Y464300D01*
Y465100D01*
Y465900D01*
Y466700D01*
Y467500D01*
Y468300D01*
Y469100D01*
Y469900D01*
Y470700D01*
Y471500D01*
Y472300D01*
Y473100D01*
Y473900D01*
Y474700D01*
Y475500D01*
Y476300D01*
Y477100D01*
Y477900D01*
Y478700D01*
Y479500D01*
Y480300D01*
Y481100D01*
Y481900D01*
Y482700D01*
Y483500D01*
Y484300D01*
Y485100D01*
Y485900D01*
Y486700D01*
Y487500D01*
X425400D01*
Y488300D01*
X387800D01*
Y489100D01*
Y489900D01*
X387000D01*
Y490700D01*
Y491500D01*
Y492300D01*
Y493100D01*
Y493900D01*
Y494700D01*
Y495500D01*
Y496300D01*
Y497100D01*
Y497900D01*
Y498700D01*
Y499500D01*
Y500300D01*
Y501100D01*
X432600D01*
Y500300D01*
D02*
G37*
G36*
X366200Y464300D02*
Y463500D01*
Y462700D01*
Y461900D01*
Y461100D01*
Y460300D01*
Y459500D01*
Y458700D01*
Y457900D01*
Y457100D01*
Y456300D01*
Y455500D01*
Y454700D01*
Y453900D01*
Y453100D01*
Y452300D01*
Y451500D01*
Y450700D01*
Y449900D01*
Y449100D01*
Y448300D01*
Y447500D01*
Y446700D01*
Y445900D01*
Y445100D01*
Y444300D01*
X365400D01*
Y443500D01*
Y442700D01*
Y441900D01*
X364600D01*
Y441100D01*
X363800D01*
Y440300D01*
X364600D01*
Y439500D01*
X363800D01*
Y438700D01*
X363000D01*
Y437900D01*
X361400D01*
Y437100D01*
X359000D01*
Y436300D01*
Y435500D01*
X311800D01*
Y436300D01*
X312600D01*
Y437100D01*
Y437900D01*
Y438700D01*
Y439500D01*
Y440300D01*
Y441100D01*
Y441900D01*
Y442700D01*
Y443500D01*
Y444300D01*
Y445100D01*
Y445900D01*
Y446700D01*
Y447500D01*
X311800D01*
Y448300D01*
X352600D01*
Y449100D01*
Y449900D01*
X354200D01*
Y450700D01*
Y451500D01*
Y452300D01*
Y453100D01*
Y453900D01*
X321400D01*
Y454700D01*
Y455500D01*
Y456300D01*
Y457100D01*
Y457900D01*
Y458700D01*
Y459500D01*
Y460300D01*
Y461100D01*
Y461900D01*
Y462700D01*
Y463500D01*
Y464300D01*
Y465100D01*
X366200D01*
Y464300D01*
D02*
G37*
G36*
X275000Y517900D02*
Y517100D01*
X279800D01*
Y516300D01*
X283000D01*
Y515500D01*
Y514700D01*
X286200D01*
Y513900D01*
X287000D01*
Y513100D01*
X287800D01*
Y512300D01*
X289400D01*
Y511500D01*
X290200D01*
Y510700D01*
X291000D01*
Y509900D01*
X291800D01*
Y509100D01*
X292600D01*
Y508300D01*
X293400D01*
Y507500D01*
X294200D01*
Y506700D01*
X295000D01*
Y505900D01*
Y505100D01*
X296600D01*
Y504300D01*
X297400D01*
Y503500D01*
Y502700D01*
Y501900D01*
Y501100D01*
X298200D01*
Y500300D01*
Y499500D01*
X299000D01*
Y498700D01*
X299800D01*
Y497900D01*
Y497100D01*
Y496300D01*
X300600D01*
Y495500D01*
Y494700D01*
Y493900D01*
Y493100D01*
X302200D01*
Y492300D01*
Y491500D01*
Y490700D01*
Y489900D01*
Y489100D01*
Y488300D01*
Y487500D01*
Y486700D01*
Y485900D01*
Y485100D01*
Y484300D01*
Y483500D01*
Y482700D01*
Y481900D01*
Y481100D01*
Y480300D01*
Y479500D01*
Y478700D01*
Y477900D01*
X300600D01*
Y477100D01*
Y476300D01*
Y475500D01*
Y474700D01*
Y473900D01*
X299800D01*
Y473100D01*
Y472300D01*
Y471500D01*
X298200D01*
Y470700D01*
Y469900D01*
Y469100D01*
X297400D01*
Y468300D01*
X296600D01*
Y467500D01*
X295800D01*
Y466700D01*
X296600D01*
Y465900D01*
X295800D01*
Y465100D01*
X295000D01*
Y464300D01*
X294200D01*
Y463500D01*
X293400D01*
Y462700D01*
X292600D01*
Y461900D01*
X291800D01*
Y461100D01*
X291000D01*
Y460300D01*
Y459500D01*
X288600D01*
Y458700D01*
X287800D01*
Y457900D01*
X287000D01*
Y457100D01*
X285400D01*
Y456300D01*
X283000D01*
Y455500D01*
Y454700D01*
X279800D01*
Y453900D01*
X260600D01*
Y453100D01*
X259800D01*
Y452300D01*
X259000D01*
Y451500D01*
Y450700D01*
Y449900D01*
Y449100D01*
Y448300D01*
X302200D01*
Y447500D01*
Y446700D01*
Y445900D01*
Y445100D01*
Y444300D01*
Y443500D01*
Y442700D01*
Y441900D01*
Y441100D01*
Y440300D01*
Y439500D01*
Y438700D01*
Y437900D01*
Y437100D01*
Y436300D01*
Y435500D01*
X257400D01*
Y436300D01*
Y437100D01*
X254200D01*
Y437900D01*
X251800D01*
Y438700D01*
Y439500D01*
X251000D01*
Y440300D01*
X249400D01*
Y441100D01*
Y441900D01*
X248600D01*
Y442700D01*
Y443500D01*
Y444300D01*
X247800D01*
Y445100D01*
Y445900D01*
Y446700D01*
X246200D01*
Y447500D01*
X247000D01*
Y448300D01*
Y449100D01*
Y449900D01*
Y450700D01*
Y451500D01*
Y452300D01*
Y453100D01*
X246200D01*
Y453900D01*
Y454700D01*
X247800D01*
Y455500D01*
Y456300D01*
Y457100D01*
Y457900D01*
X248600D01*
Y458700D01*
Y459500D01*
X249400D01*
Y460300D01*
X251000D01*
Y461100D01*
Y461900D01*
X251800D01*
Y462700D01*
X252600D01*
Y463500D01*
X253400D01*
Y464300D01*
X256600D01*
Y465100D01*
X274200D01*
Y465900D01*
X275000D01*
Y466700D01*
X279000D01*
Y467500D01*
X281400D01*
Y468300D01*
Y469100D01*
X282200D01*
Y469900D01*
X283800D01*
Y470700D01*
Y471500D01*
X284600D01*
Y472300D01*
X285400D01*
Y473100D01*
X286200D01*
Y473900D01*
X287000D01*
Y474700D01*
X288600D01*
Y475500D01*
Y476300D01*
Y477100D01*
Y477900D01*
Y478700D01*
X289400D01*
Y479500D01*
Y480300D01*
Y481100D01*
Y481900D01*
Y482700D01*
Y483500D01*
X291000D01*
Y484300D01*
Y485100D01*
Y485900D01*
X289400D01*
Y486700D01*
Y487500D01*
Y488300D01*
Y489100D01*
Y489900D01*
Y490700D01*
Y491500D01*
Y492300D01*
Y493100D01*
X288600D01*
Y493900D01*
Y494700D01*
Y495500D01*
X287000D01*
Y496300D01*
Y497100D01*
X286200D01*
Y497900D01*
Y498700D01*
Y499500D01*
X284600D01*
Y500300D01*
X283800D01*
Y501100D01*
Y501900D01*
X281400D01*
Y502700D01*
X279000D01*
Y503500D01*
Y504300D01*
X275800D01*
Y505100D01*
X229400D01*
Y505900D01*
Y506700D01*
Y507500D01*
Y508300D01*
Y509100D01*
Y509900D01*
Y510700D01*
Y511500D01*
Y512300D01*
Y513100D01*
Y513900D01*
Y514700D01*
Y515500D01*
Y516300D01*
Y517100D01*
X230200D01*
Y517900D01*
X231000D01*
Y518700D01*
X275000D01*
Y517900D01*
D02*
G37*
G36*
X436600D02*
Y517100D01*
X440600D01*
Y516300D01*
X441400D01*
Y515500D01*
Y514700D01*
X443800D01*
Y513900D01*
X445400D01*
Y513100D01*
X446200D01*
Y512300D01*
X447000D01*
Y511500D01*
X447800D01*
Y510700D01*
X448600D01*
Y509900D01*
X449400D01*
Y509100D01*
X450200D01*
Y508300D01*
Y507500D01*
Y506700D01*
X451000D01*
Y505900D01*
X451800D01*
Y505100D01*
X452600D01*
Y504300D01*
Y503500D01*
Y502700D01*
X453400D01*
Y501900D01*
Y501100D01*
Y500300D01*
Y499500D01*
Y498700D01*
X455000D01*
Y497900D01*
Y497100D01*
Y496300D01*
Y495500D01*
Y494700D01*
Y493900D01*
Y493100D01*
Y492300D01*
Y491500D01*
Y490700D01*
Y489900D01*
Y489100D01*
Y488300D01*
Y487500D01*
Y486700D01*
Y485900D01*
Y485100D01*
Y484300D01*
Y483500D01*
Y482700D01*
Y481900D01*
Y481100D01*
Y480300D01*
Y479500D01*
Y478700D01*
Y477900D01*
Y477100D01*
Y476300D01*
Y475500D01*
Y474700D01*
Y473900D01*
Y473100D01*
Y472300D01*
Y471500D01*
Y470700D01*
Y469900D01*
Y469100D01*
Y468300D01*
Y467500D01*
Y466700D01*
Y465900D01*
Y465100D01*
Y464300D01*
Y463500D01*
Y462700D01*
Y461900D01*
Y461100D01*
Y460300D01*
Y459500D01*
Y458700D01*
Y457900D01*
Y457100D01*
Y456300D01*
Y455500D01*
Y454700D01*
Y453900D01*
Y453100D01*
Y452300D01*
Y451500D01*
Y450700D01*
Y449900D01*
Y449100D01*
Y448300D01*
X455800D01*
Y447500D01*
Y446700D01*
X455000D01*
Y445900D01*
Y445100D01*
Y444300D01*
Y443500D01*
Y442700D01*
Y441900D01*
Y441100D01*
Y440300D01*
Y439500D01*
X454200D01*
Y438700D01*
X453400D01*
Y437900D01*
Y437100D01*
Y436300D01*
Y435500D01*
X452600D01*
Y434700D01*
Y433900D01*
Y433100D01*
X451800D01*
Y432300D01*
X451000D01*
Y431500D01*
X450200D01*
Y430700D01*
Y429900D01*
Y429100D01*
X449400D01*
Y428300D01*
X448600D01*
Y427500D01*
X447800D01*
Y426700D01*
X447000D01*
Y425900D01*
X446200D01*
Y425100D01*
X445400D01*
Y424300D01*
X443800D01*
Y423500D01*
X443000D01*
Y422700D01*
X442200D01*
Y421900D01*
X440600D01*
Y421100D01*
X436600D01*
Y420300D01*
Y419500D01*
X431000D01*
Y418700D01*
X387800D01*
Y419500D01*
X387000D01*
Y420300D01*
Y421100D01*
Y421900D01*
Y422700D01*
Y423500D01*
Y424300D01*
Y425100D01*
Y425900D01*
Y426700D01*
Y427500D01*
Y428300D01*
Y429100D01*
Y429900D01*
Y430700D01*
Y431500D01*
Y432300D01*
Y433100D01*
Y433900D01*
Y434700D01*
Y435500D01*
Y436300D01*
Y437100D01*
Y437900D01*
Y438700D01*
Y439500D01*
Y440300D01*
Y441100D01*
Y441900D01*
Y442700D01*
Y443500D01*
Y444300D01*
Y445100D01*
Y445900D01*
Y446700D01*
Y447500D01*
Y448300D01*
Y449100D01*
Y449900D01*
Y450700D01*
Y451500D01*
Y452300D01*
Y453100D01*
Y453900D01*
Y454700D01*
Y455500D01*
Y456300D01*
Y457100D01*
Y457900D01*
Y458700D01*
Y459500D01*
Y460300D01*
Y461100D01*
Y461900D01*
Y462700D01*
Y463500D01*
Y464300D01*
Y465100D01*
Y465900D01*
Y466700D01*
Y467500D01*
Y468300D01*
Y469100D01*
Y469900D01*
Y470700D01*
Y471500D01*
Y472300D01*
Y473100D01*
Y473900D01*
Y474700D01*
Y475500D01*
Y476300D01*
Y477100D01*
Y477900D01*
Y478700D01*
Y479500D01*
Y480300D01*
Y481100D01*
Y481900D01*
Y482700D01*
Y483500D01*
X421400D01*
Y484300D01*
X422200D01*
Y483500D01*
Y482700D01*
Y481900D01*
Y481100D01*
Y480300D01*
Y479500D01*
Y478700D01*
Y477900D01*
Y477100D01*
Y476300D01*
Y475500D01*
Y474700D01*
Y473900D01*
Y473100D01*
Y472300D01*
Y471500D01*
X398200D01*
Y470700D01*
Y469900D01*
Y469100D01*
Y468300D01*
Y467500D01*
Y466700D01*
Y465900D01*
Y465100D01*
Y464300D01*
Y463500D01*
Y462700D01*
Y461900D01*
Y461100D01*
Y460300D01*
Y459500D01*
Y458700D01*
Y457900D01*
Y457100D01*
Y456300D01*
Y455500D01*
Y454700D01*
Y453900D01*
Y453100D01*
Y452300D01*
Y451500D01*
Y450700D01*
Y449900D01*
Y449100D01*
Y448300D01*
Y447500D01*
Y446700D01*
Y445900D01*
Y445100D01*
Y444300D01*
Y443500D01*
Y442700D01*
Y441900D01*
Y441100D01*
Y440300D01*
Y439500D01*
Y438700D01*
Y437900D01*
Y437100D01*
Y436300D01*
Y435500D01*
Y434700D01*
Y433900D01*
Y433100D01*
Y432300D01*
Y431500D01*
X433400D01*
Y432300D01*
Y433100D01*
X436600D01*
Y433900D01*
X437400D01*
Y434700D01*
X438200D01*
Y435500D01*
X439000D01*
Y436300D01*
X439800D01*
Y437100D01*
Y437900D01*
X441400D01*
Y438700D01*
Y439500D01*
Y440300D01*
X442200D01*
Y441100D01*
Y441900D01*
Y442700D01*
Y443500D01*
X443800D01*
Y444300D01*
Y445100D01*
Y445900D01*
Y446700D01*
Y447500D01*
Y448300D01*
Y449100D01*
Y449900D01*
Y450700D01*
Y451500D01*
Y452300D01*
Y453100D01*
Y453900D01*
Y454700D01*
Y455500D01*
Y456300D01*
Y457100D01*
Y457900D01*
Y458700D01*
Y459500D01*
Y460300D01*
Y461100D01*
Y461900D01*
Y462700D01*
Y463500D01*
Y464300D01*
Y465100D01*
Y465900D01*
Y466700D01*
Y467500D01*
Y468300D01*
Y469100D01*
Y469900D01*
Y470700D01*
Y471500D01*
Y472300D01*
Y473100D01*
Y473900D01*
Y474700D01*
Y475500D01*
Y476300D01*
Y477100D01*
Y477900D01*
Y478700D01*
Y479500D01*
Y480300D01*
Y481100D01*
Y481900D01*
Y482700D01*
Y483500D01*
Y484300D01*
Y485100D01*
Y485900D01*
Y486700D01*
Y487500D01*
Y488300D01*
Y489100D01*
Y489900D01*
Y490700D01*
Y491500D01*
Y492300D01*
Y493100D01*
Y493900D01*
Y494700D01*
X442200D01*
Y495500D01*
Y496300D01*
Y497100D01*
Y497900D01*
X441400D01*
Y498700D01*
Y499500D01*
Y500300D01*
X439800D01*
Y501100D01*
Y501900D01*
X439000D01*
Y502700D01*
X438200D01*
Y503500D01*
X437400D01*
Y504300D01*
X435800D01*
Y505100D01*
X433400D01*
Y505900D01*
Y506700D01*
X387000D01*
Y507500D01*
Y508300D01*
Y509100D01*
Y509900D01*
Y510700D01*
Y511500D01*
Y512300D01*
Y513100D01*
Y513900D01*
Y514700D01*
Y515500D01*
Y516300D01*
Y517100D01*
Y517900D01*
Y518700D01*
X436600D01*
Y517900D01*
D02*
G37*
G36*
X510200Y518700D02*
X513400D01*
Y517900D01*
X514200D01*
Y517100D01*
X515800D01*
Y516300D01*
X517400D01*
Y515500D01*
Y514700D01*
X518200D01*
Y513900D01*
X519000D01*
Y513100D01*
X519800D01*
Y512300D01*
X520600D01*
Y511500D01*
X521400D01*
Y510700D01*
X522200D01*
Y509900D01*
X523000D01*
Y509100D01*
Y508300D01*
Y507500D01*
X523800D01*
Y506700D01*
Y505900D01*
Y505100D01*
Y504300D01*
Y503500D01*
X525400D01*
Y502700D01*
X524600D01*
Y501900D01*
Y501100D01*
Y500300D01*
X526200D01*
Y499500D01*
Y498700D01*
Y497900D01*
Y497100D01*
Y496300D01*
X527000D01*
Y495500D01*
Y494700D01*
Y493900D01*
Y493100D01*
X528600D01*
Y492300D01*
Y491500D01*
Y490700D01*
Y489900D01*
Y489100D01*
X529400D01*
Y488300D01*
Y487500D01*
Y486700D01*
Y485900D01*
X531000D01*
Y485100D01*
Y484300D01*
X530200D01*
Y483500D01*
Y482700D01*
X531000D01*
Y481900D01*
X531800D01*
Y481100D01*
Y480300D01*
Y479500D01*
Y478700D01*
X532600D01*
Y477900D01*
Y477100D01*
Y476300D01*
X534200D01*
Y475500D01*
Y474700D01*
Y473900D01*
Y473100D01*
Y472300D01*
X535000D01*
Y471500D01*
Y470700D01*
Y469900D01*
Y469100D01*
X536600D01*
Y468300D01*
Y467500D01*
Y466700D01*
Y465900D01*
Y465100D01*
X537400D01*
Y464300D01*
Y463500D01*
Y462700D01*
Y461900D01*
X539000D01*
Y461100D01*
X538200D01*
Y460300D01*
Y459500D01*
Y458700D01*
Y457900D01*
X539800D01*
Y457100D01*
Y456300D01*
Y455500D01*
Y454700D01*
X540600D01*
Y453900D01*
Y453100D01*
Y452300D01*
Y451500D01*
Y450700D01*
X542200D01*
Y449900D01*
Y449100D01*
Y448300D01*
Y447500D01*
X543000D01*
Y446700D01*
Y445900D01*
Y445100D01*
Y444300D01*
Y443500D01*
X544600D01*
Y442700D01*
X543800D01*
Y441900D01*
Y441100D01*
Y440300D01*
X545400D01*
Y439500D01*
Y438700D01*
Y437900D01*
Y437100D01*
Y436300D01*
X546200D01*
Y435500D01*
Y434700D01*
Y433900D01*
Y433100D01*
X547800D01*
Y432300D01*
Y431500D01*
Y430700D01*
X548600D01*
Y429900D01*
Y429100D01*
Y428300D01*
Y427500D01*
Y426700D01*
Y425900D01*
Y425100D01*
Y424300D01*
Y423500D01*
Y422700D01*
Y421900D01*
Y421100D01*
Y420300D01*
Y419500D01*
Y418700D01*
X539000D01*
Y419500D01*
Y420300D01*
Y421100D01*
Y421900D01*
X537400D01*
Y422700D01*
Y423500D01*
Y424300D01*
Y425100D01*
Y425900D01*
X536600D01*
Y426700D01*
Y427500D01*
Y428300D01*
Y429100D01*
X535000D01*
Y429900D01*
Y430700D01*
Y431500D01*
Y432300D01*
Y433100D01*
X534200D01*
Y433900D01*
Y434700D01*
Y435500D01*
Y436300D01*
Y437100D01*
X533400D01*
Y437900D01*
Y438700D01*
Y439500D01*
Y440300D01*
X531800D01*
Y441100D01*
Y441900D01*
Y442700D01*
Y443500D01*
Y444300D01*
X531000D01*
Y445100D01*
Y445900D01*
Y446700D01*
Y447500D01*
X529400D01*
Y448300D01*
Y449100D01*
Y449900D01*
Y450700D01*
Y451500D01*
X528600D01*
Y452300D01*
Y453100D01*
Y453900D01*
Y454700D01*
X527000D01*
Y455500D01*
X527800D01*
Y456300D01*
Y457100D01*
Y457900D01*
X527000D01*
Y458700D01*
X526200D01*
Y459500D01*
Y460300D01*
Y461100D01*
Y461900D01*
X525400D01*
Y462700D01*
Y463500D01*
Y464300D01*
Y465100D01*
Y465900D01*
X523800D01*
Y466700D01*
Y467500D01*
Y468300D01*
X523000D01*
Y469100D01*
Y469900D01*
Y470700D01*
Y471500D01*
X521400D01*
Y472300D01*
Y473100D01*
Y473900D01*
Y474700D01*
Y475500D01*
X520600D01*
Y476300D01*
Y477100D01*
Y477900D01*
Y478700D01*
X519800D01*
Y479500D01*
Y480300D01*
Y481100D01*
Y481900D01*
Y482700D01*
X518200D01*
Y483500D01*
Y484300D01*
Y485100D01*
Y485900D01*
X517400D01*
Y486700D01*
Y487500D01*
Y488300D01*
Y489100D01*
Y489900D01*
X515800D01*
Y490700D01*
Y491500D01*
Y492300D01*
Y493100D01*
X515000D01*
Y493900D01*
Y494700D01*
Y495500D01*
Y496300D01*
Y497100D01*
X513400D01*
Y497900D01*
X514200D01*
Y498700D01*
Y499500D01*
Y500300D01*
X512600D01*
Y501100D01*
Y501900D01*
Y502700D01*
Y503500D01*
Y504300D01*
X511000D01*
Y505100D01*
X510200D01*
Y505900D01*
Y506700D01*
X509400D01*
Y507500D01*
X507800D01*
Y508300D01*
Y509100D01*
X501400D01*
Y508300D01*
Y507500D01*
X499000D01*
Y506700D01*
X497400D01*
Y505900D01*
Y505100D01*
X498200D01*
Y504300D01*
X496600D01*
Y503500D01*
Y502700D01*
Y501900D01*
X495800D01*
Y501100D01*
Y500300D01*
Y499500D01*
Y498700D01*
Y497900D01*
X494200D01*
Y497100D01*
Y496300D01*
Y495500D01*
Y494700D01*
X493400D01*
Y493900D01*
Y493100D01*
Y492300D01*
Y491500D01*
Y490700D01*
X491800D01*
Y489900D01*
Y489100D01*
Y488300D01*
X492600D01*
Y487500D01*
X491000D01*
Y486700D01*
Y485900D01*
Y485100D01*
Y484300D01*
Y483500D01*
X490200D01*
Y482700D01*
Y481900D01*
Y481100D01*
Y480300D01*
X488600D01*
Y479500D01*
Y478700D01*
Y477900D01*
Y477100D01*
Y476300D01*
X487800D01*
Y475500D01*
Y474700D01*
Y473900D01*
Y473100D01*
X486200D01*
Y472300D01*
Y471500D01*
Y470700D01*
Y469900D01*
Y469100D01*
X485400D01*
Y468300D01*
Y467500D01*
Y466700D01*
Y465900D01*
X484600D01*
Y465100D01*
X483800D01*
Y464300D01*
Y463500D01*
Y462700D01*
X484600D01*
Y461900D01*
X483000D01*
Y461100D01*
Y460300D01*
Y459500D01*
Y458700D01*
X482200D01*
Y457900D01*
Y457100D01*
Y456300D01*
Y455500D01*
Y454700D01*
X480600D01*
Y453900D01*
Y453100D01*
Y452300D01*
Y451500D01*
X479800D01*
Y450700D01*
Y449900D01*
Y449100D01*
Y448300D01*
Y447500D01*
X478200D01*
Y446700D01*
Y445900D01*
Y445100D01*
X479000D01*
Y444300D01*
X477400D01*
Y443500D01*
Y442700D01*
Y441900D01*
X476600D01*
Y441100D01*
Y440300D01*
Y439500D01*
Y438700D01*
Y437900D01*
X475000D01*
Y437100D01*
Y436300D01*
Y435500D01*
Y434700D01*
Y433900D01*
Y433100D01*
Y432300D01*
Y431500D01*
X509400D01*
Y430700D01*
Y429900D01*
Y429100D01*
Y428300D01*
Y427500D01*
Y426700D01*
Y425900D01*
Y425100D01*
Y424300D01*
Y423500D01*
Y422700D01*
Y421900D01*
Y421100D01*
Y420300D01*
Y419500D01*
Y418700D01*
X456600D01*
Y419500D01*
X458200D01*
Y420300D01*
Y421100D01*
Y421900D01*
Y422700D01*
Y423500D01*
X459800D01*
Y424300D01*
Y425100D01*
Y425900D01*
X459000D01*
Y426700D01*
X460600D01*
Y427500D01*
Y428300D01*
Y429100D01*
Y429900D01*
Y430700D01*
X461400D01*
Y431500D01*
Y432300D01*
Y433100D01*
Y433900D01*
X463000D01*
Y434700D01*
Y435500D01*
Y436300D01*
Y437100D01*
Y437900D01*
X463800D01*
Y438700D01*
Y439500D01*
Y440300D01*
Y441100D01*
X465400D01*
Y441900D01*
Y442700D01*
Y443500D01*
X466200D01*
Y444300D01*
Y445100D01*
Y445900D01*
Y446700D01*
Y447500D01*
X467800D01*
Y448300D01*
Y449100D01*
Y449900D01*
X467000D01*
Y450700D01*
X468600D01*
Y451500D01*
Y452300D01*
Y453100D01*
Y453900D01*
Y454700D01*
X469400D01*
Y455500D01*
Y456300D01*
Y457100D01*
Y457900D01*
X471000D01*
Y458700D01*
Y459500D01*
Y460300D01*
Y461100D01*
Y461900D01*
X471800D01*
Y462700D01*
Y463500D01*
Y464300D01*
Y465100D01*
X473400D01*
Y465900D01*
Y466700D01*
Y467500D01*
Y468300D01*
X472600D01*
Y469100D01*
X474200D01*
Y469900D01*
Y470700D01*
Y471500D01*
Y472300D01*
X475000D01*
Y473100D01*
Y473900D01*
Y474700D01*
Y475500D01*
Y476300D01*
X476600D01*
Y477100D01*
Y477900D01*
Y478700D01*
Y479500D01*
X477400D01*
Y480300D01*
Y481100D01*
Y481900D01*
Y482700D01*
Y483500D01*
X479000D01*
Y484300D01*
Y485100D01*
Y485900D01*
Y486700D01*
X479800D01*
Y487500D01*
Y488300D01*
Y489100D01*
Y489900D01*
Y490700D01*
X481400D01*
Y491500D01*
Y492300D01*
Y493100D01*
X480600D01*
Y493900D01*
X482200D01*
Y494700D01*
Y495500D01*
Y496300D01*
Y497100D01*
Y497900D01*
X483000D01*
Y498700D01*
Y499500D01*
Y500300D01*
Y501100D01*
X483800D01*
Y501900D01*
X484600D01*
Y502700D01*
Y503500D01*
Y504300D01*
Y505100D01*
X485400D01*
Y505900D01*
Y506700D01*
Y507500D01*
X487000D01*
Y508300D01*
Y509100D01*
X486200D01*
Y509900D01*
X487800D01*
Y510700D01*
Y511500D01*
X488600D01*
Y512300D01*
Y513100D01*
Y513900D01*
X490200D01*
Y514700D01*
X491800D01*
Y515500D01*
X492600D01*
Y516300D01*
X493400D01*
Y517100D01*
X495000D01*
Y517900D01*
X495800D01*
Y518700D01*
X499000D01*
Y519500D01*
X510200D01*
Y518700D01*
D02*
G37*
G36*
X507000Y502700D02*
Y501900D01*
Y501100D01*
X507800D01*
Y500300D01*
Y499500D01*
Y498700D01*
X509400D01*
Y497900D01*
Y497100D01*
Y496300D01*
Y495500D01*
X510200D01*
Y494700D01*
Y493900D01*
Y493100D01*
Y492300D01*
Y491500D01*
X511800D01*
Y490700D01*
X511000D01*
Y489900D01*
Y489100D01*
Y488300D01*
X512600D01*
Y487500D01*
Y486700D01*
Y485900D01*
Y485100D01*
Y484300D01*
X513400D01*
Y483500D01*
Y482700D01*
Y481900D01*
Y481100D01*
X515000D01*
Y480300D01*
Y479500D01*
Y478700D01*
Y477900D01*
Y477100D01*
X515800D01*
Y476300D01*
Y475500D01*
Y474700D01*
X517400D01*
Y473900D01*
X516600D01*
Y473100D01*
Y472300D01*
X517400D01*
Y471500D01*
X518200D01*
Y470700D01*
Y469900D01*
Y469100D01*
Y468300D01*
Y467500D01*
X519000D01*
Y466700D01*
Y465900D01*
Y465100D01*
Y464300D01*
X520600D01*
Y463500D01*
Y462700D01*
Y461900D01*
Y461100D01*
Y460300D01*
X521400D01*
Y459500D01*
Y458700D01*
Y457900D01*
Y457100D01*
X523000D01*
Y456300D01*
Y455500D01*
Y454700D01*
Y453900D01*
Y453100D01*
X523800D01*
Y452300D01*
Y451500D01*
Y450700D01*
Y449900D01*
X525400D01*
Y449100D01*
X524600D01*
Y448300D01*
Y447500D01*
Y446700D01*
Y445900D01*
X526200D01*
Y445100D01*
Y444300D01*
Y443500D01*
Y442700D01*
X527000D01*
Y441900D01*
Y441100D01*
Y440300D01*
Y439500D01*
Y438700D01*
X528600D01*
Y437900D01*
Y437100D01*
Y436300D01*
Y435500D01*
X529400D01*
Y434700D01*
Y433900D01*
Y433100D01*
Y432300D01*
Y431500D01*
X531000D01*
Y430700D01*
X530200D01*
Y429900D01*
Y429100D01*
Y428300D01*
X531800D01*
Y427500D01*
Y426700D01*
Y425900D01*
Y425100D01*
Y424300D01*
X532600D01*
Y423500D01*
Y422700D01*
Y421900D01*
Y421100D01*
X534200D01*
Y420300D01*
Y419500D01*
Y418700D01*
X520600D01*
Y419500D01*
X519800D01*
Y420300D01*
Y421100D01*
Y421900D01*
Y422700D01*
Y423500D01*
X518200D01*
Y424300D01*
Y425100D01*
Y425900D01*
Y426700D01*
X517400D01*
Y427500D01*
Y428300D01*
Y429100D01*
Y429900D01*
Y430700D01*
X515800D01*
Y431500D01*
Y432300D01*
Y433100D01*
Y433900D01*
Y434700D01*
X515000D01*
Y435500D01*
Y436300D01*
Y437100D01*
Y437900D01*
X513400D01*
Y438700D01*
X514200D01*
Y439500D01*
Y440300D01*
Y441100D01*
X513400D01*
Y441900D01*
X512600D01*
Y442700D01*
Y443500D01*
Y444300D01*
Y445100D01*
X509400D01*
Y444300D01*
Y443500D01*
Y442700D01*
Y441900D01*
Y441100D01*
Y440300D01*
Y439500D01*
Y438700D01*
Y437900D01*
Y437100D01*
Y436300D01*
Y435500D01*
X479800D01*
Y436300D01*
X480600D01*
Y437100D01*
X481400D01*
Y437900D01*
Y438700D01*
X480600D01*
Y439500D01*
Y440300D01*
X482200D01*
Y441100D01*
Y441900D01*
Y442700D01*
Y443500D01*
X483000D01*
Y444300D01*
Y445100D01*
Y445900D01*
Y446700D01*
Y447500D01*
X484600D01*
Y448300D01*
Y449100D01*
Y449900D01*
Y450700D01*
X485400D01*
Y451500D01*
Y452300D01*
Y453100D01*
Y453900D01*
Y454700D01*
X487000D01*
Y455500D01*
Y456300D01*
Y457100D01*
X486200D01*
Y457900D01*
X487800D01*
Y458700D01*
Y459500D01*
Y460300D01*
X488600D01*
Y461100D01*
Y461900D01*
Y462700D01*
Y463500D01*
Y464300D01*
Y465100D01*
X490200D01*
Y465900D01*
Y466700D01*
Y467500D01*
X491000D01*
Y468300D01*
Y469100D01*
Y469900D01*
Y470700D01*
Y471500D01*
X492600D01*
Y472300D01*
Y473100D01*
Y473900D01*
Y474700D01*
X493400D01*
Y475500D01*
Y476300D01*
Y477100D01*
Y477900D01*
Y478700D01*
X495000D01*
Y479500D01*
Y480300D01*
Y481100D01*
X494200D01*
Y481900D01*
X495800D01*
Y482700D01*
Y483500D01*
Y484300D01*
Y485100D01*
Y485900D01*
X496600D01*
Y486700D01*
Y487500D01*
Y488300D01*
Y489100D01*
X498200D01*
Y489900D01*
Y490700D01*
Y491500D01*
Y492300D01*
Y493100D01*
X499000D01*
Y493900D01*
Y494700D01*
Y495500D01*
Y496300D01*
X499800D01*
Y497100D01*
X500600D01*
Y497900D01*
Y498700D01*
Y499500D01*
X499800D01*
Y500300D01*
X501400D01*
Y501100D01*
Y501900D01*
Y502700D01*
X502200D01*
Y503500D01*
X507000D01*
Y502700D01*
D02*
G37*
G36*
X359800Y517900D02*
Y517100D01*
X364600D01*
Y516300D01*
X367800D01*
Y515500D01*
Y514700D01*
X370200D01*
Y513900D01*
X371000D01*
Y513100D01*
Y512300D01*
X373400D01*
Y511500D01*
X374200D01*
Y510700D01*
X375000D01*
Y509900D01*
X375800D01*
Y509100D01*
X376600D01*
Y508300D01*
Y507500D01*
Y506700D01*
X377400D01*
Y505900D01*
X378200D01*
Y505100D01*
X379000D01*
Y504300D01*
Y503500D01*
Y502700D01*
X379800D01*
Y501900D01*
Y501100D01*
Y500300D01*
X381400D01*
Y499500D01*
Y498700D01*
Y497900D01*
Y497100D01*
Y496300D01*
X382200D01*
Y495500D01*
Y494700D01*
Y493900D01*
Y493100D01*
Y492300D01*
Y491500D01*
Y490700D01*
Y489900D01*
Y489100D01*
Y488300D01*
Y487500D01*
Y486700D01*
Y485900D01*
Y485100D01*
Y484300D01*
Y483500D01*
Y482700D01*
Y481900D01*
Y481100D01*
Y480300D01*
Y479500D01*
Y478700D01*
Y477900D01*
Y477100D01*
Y476300D01*
Y475500D01*
Y474700D01*
Y473900D01*
Y473100D01*
Y472300D01*
Y471500D01*
Y470700D01*
Y469900D01*
Y469100D01*
Y468300D01*
Y467500D01*
Y466700D01*
Y465900D01*
Y465100D01*
Y464300D01*
Y463500D01*
Y462700D01*
Y461900D01*
Y461100D01*
Y460300D01*
Y459500D01*
Y458700D01*
Y457900D01*
Y457100D01*
Y456300D01*
Y455500D01*
Y454700D01*
Y453900D01*
Y453100D01*
Y452300D01*
Y451500D01*
Y450700D01*
Y449900D01*
Y449100D01*
Y448300D01*
Y447500D01*
Y446700D01*
Y445900D01*
Y445100D01*
Y444300D01*
Y443500D01*
Y442700D01*
Y441900D01*
Y441100D01*
Y440300D01*
Y439500D01*
X381400D01*
Y438700D01*
Y437900D01*
Y437100D01*
Y436300D01*
Y435500D01*
X379800D01*
Y434700D01*
Y433900D01*
Y433100D01*
X379000D01*
Y432300D01*
Y431500D01*
Y430700D01*
X378200D01*
Y429900D01*
X377400D01*
Y429100D01*
X376600D01*
Y428300D01*
X375800D01*
Y427500D01*
Y426700D01*
X374200D01*
Y425900D01*
X373400D01*
Y425100D01*
Y424300D01*
X372600D01*
Y423500D01*
X371000D01*
Y422700D01*
Y421900D01*
X368600D01*
Y421100D01*
X367000D01*
Y420300D01*
X366200D01*
Y419500D01*
X363000D01*
Y418700D01*
X311800D01*
Y419500D01*
X312600D01*
Y420300D01*
Y421100D01*
Y421900D01*
Y422700D01*
Y423500D01*
Y424300D01*
Y425100D01*
Y425900D01*
Y426700D01*
Y427500D01*
Y428300D01*
Y429100D01*
Y429900D01*
Y430700D01*
X359800D01*
Y431500D01*
X363000D01*
Y432300D01*
Y433100D01*
X365400D01*
Y433900D01*
X366200D01*
Y434700D01*
Y435500D01*
X367800D01*
Y436300D01*
X368600D01*
Y437100D01*
Y437900D01*
Y438700D01*
X370200D01*
Y439500D01*
Y440300D01*
Y441100D01*
Y441900D01*
Y442700D01*
Y443500D01*
X371000D01*
Y444300D01*
Y445100D01*
Y445900D01*
Y446700D01*
Y447500D01*
Y448300D01*
Y449100D01*
Y449900D01*
Y450700D01*
Y451500D01*
Y452300D01*
Y453100D01*
Y453900D01*
Y454700D01*
Y455500D01*
Y456300D01*
Y457100D01*
Y457900D01*
Y458700D01*
Y459500D01*
Y460300D01*
Y461100D01*
Y461900D01*
Y462700D01*
Y463500D01*
Y464300D01*
Y465100D01*
Y465900D01*
Y466700D01*
Y467500D01*
Y468300D01*
Y469100D01*
Y469900D01*
Y470700D01*
Y471500D01*
Y472300D01*
Y473100D01*
Y473900D01*
Y474700D01*
Y475500D01*
Y476300D01*
Y477100D01*
Y477900D01*
Y478700D01*
Y479500D01*
Y480300D01*
Y481100D01*
Y481900D01*
Y482700D01*
Y483500D01*
Y484300D01*
Y485100D01*
Y485900D01*
Y486700D01*
Y487500D01*
Y488300D01*
Y489100D01*
Y489900D01*
Y490700D01*
Y491500D01*
Y492300D01*
X370200D01*
Y493100D01*
Y493900D01*
Y494700D01*
Y495500D01*
Y496300D01*
Y497100D01*
X368600D01*
Y497900D01*
Y498700D01*
Y499500D01*
X367800D01*
Y500300D01*
X366200D01*
Y501100D01*
Y501900D01*
X365400D01*
Y502700D01*
X363000D01*
Y503500D01*
Y504300D01*
X360600D01*
Y505100D01*
X312600D01*
Y505900D01*
Y506700D01*
Y507500D01*
Y508300D01*
Y509100D01*
Y509900D01*
Y510700D01*
Y511500D01*
Y512300D01*
Y513100D01*
Y513900D01*
Y514700D01*
Y515500D01*
Y516300D01*
Y517100D01*
X311800D01*
Y517900D01*
X312600D01*
Y518700D01*
X359800D01*
Y517900D01*
D02*
G37*
G36*
X275800Y499500D02*
X276600D01*
Y498700D01*
X278200D01*
Y497900D01*
X280600D01*
Y497100D01*
X281400D01*
Y496300D01*
Y495500D01*
X283000D01*
Y494700D01*
Y493900D01*
X282200D01*
Y493100D01*
X283800D01*
Y492300D01*
X284600D01*
Y491500D01*
Y490700D01*
Y489900D01*
Y489100D01*
Y488300D01*
X286200D01*
Y487500D01*
Y486700D01*
Y485900D01*
Y485100D01*
Y484300D01*
Y483500D01*
X284600D01*
Y482700D01*
Y481900D01*
Y481100D01*
Y480300D01*
X283800D01*
Y479500D01*
Y478700D01*
Y477900D01*
X283000D01*
Y477100D01*
Y476300D01*
X281400D01*
Y475500D01*
X280600D01*
Y474700D01*
Y473900D01*
X279800D01*
Y473100D01*
X277400D01*
Y472300D01*
Y471500D01*
X275000D01*
Y470700D01*
X255800D01*
Y469900D01*
Y469100D01*
X252600D01*
Y468300D01*
X250200D01*
Y467500D01*
Y466700D01*
X248600D01*
Y465900D01*
X247800D01*
Y465100D01*
Y464300D01*
X247000D01*
Y463500D01*
X245400D01*
Y462700D01*
Y461900D01*
X243800D01*
Y461100D01*
Y460300D01*
X244600D01*
Y459500D01*
X243000D01*
Y458700D01*
Y457900D01*
Y457100D01*
Y456300D01*
X242200D01*
Y455500D01*
Y454700D01*
Y453900D01*
Y453100D01*
Y452300D01*
Y451500D01*
Y450700D01*
Y449900D01*
Y449100D01*
Y448300D01*
Y447500D01*
Y446700D01*
Y445900D01*
Y445100D01*
X243000D01*
Y444300D01*
Y443500D01*
Y442700D01*
Y441900D01*
Y441100D01*
X244600D01*
Y440300D01*
X245400D01*
Y439500D01*
Y438700D01*
Y437900D01*
X246200D01*
Y437100D01*
X247000D01*
Y436300D01*
X247800D01*
Y435500D01*
X248600D01*
Y434700D01*
Y433900D01*
X251000D01*
Y433100D01*
X253400D01*
Y432300D01*
Y431500D01*
X258200D01*
Y430700D01*
X302200D01*
Y429900D01*
Y429100D01*
Y428300D01*
Y427500D01*
Y426700D01*
Y425900D01*
Y425100D01*
Y424300D01*
Y423500D01*
Y422700D01*
Y421900D01*
Y421100D01*
Y420300D01*
Y419500D01*
Y418700D01*
X253400D01*
Y419500D01*
X250200D01*
Y420300D01*
X249400D01*
Y421100D01*
X246200D01*
Y421900D01*
X245400D01*
Y422700D01*
Y423500D01*
X243000D01*
Y424300D01*
X242200D01*
Y425100D01*
X241400D01*
Y425900D01*
X240600D01*
Y426700D01*
X239000D01*
Y427500D01*
X238200D01*
Y428300D01*
X237400D01*
Y429100D01*
Y429900D01*
Y430700D01*
X235800D01*
Y431500D01*
X235000D01*
Y432300D01*
Y433100D01*
X234200D01*
Y433900D01*
Y434700D01*
Y435500D01*
X232600D01*
Y436300D01*
Y437100D01*
X233400D01*
Y437900D01*
X231800D01*
Y438700D01*
Y439500D01*
Y440300D01*
Y441100D01*
Y441900D01*
X231000D01*
Y442700D01*
Y443500D01*
Y444300D01*
Y445100D01*
Y445900D01*
Y446700D01*
X229400D01*
Y447500D01*
Y448300D01*
Y449100D01*
Y449900D01*
Y450700D01*
Y451500D01*
Y452300D01*
Y453100D01*
Y453900D01*
Y454700D01*
X231000D01*
Y455500D01*
Y456300D01*
Y457100D01*
Y457900D01*
Y458700D01*
Y459500D01*
Y460300D01*
X231800D01*
Y461100D01*
Y461900D01*
Y462700D01*
X232600D01*
Y463500D01*
X233400D01*
Y464300D01*
X232600D01*
Y465100D01*
X234200D01*
Y465900D01*
Y466700D01*
Y467500D01*
X235000D01*
Y468300D01*
Y469100D01*
X236600D01*
Y469900D01*
Y470700D01*
Y471500D01*
X237400D01*
Y472300D01*
X238200D01*
Y473100D01*
Y473900D01*
X239800D01*
Y474700D01*
X240600D01*
Y475500D01*
Y476300D01*
X243000D01*
Y477100D01*
X243800D01*
Y477900D01*
Y478700D01*
X246200D01*
Y479500D01*
X248600D01*
Y480300D01*
Y481100D01*
X251000D01*
Y481900D01*
X256600D01*
Y482700D01*
Y483500D01*
X273400D01*
Y484300D01*
Y485100D01*
Y485900D01*
Y486700D01*
Y487500D01*
X271000D01*
Y488300D01*
X229400D01*
Y489100D01*
Y489900D01*
Y490700D01*
Y491500D01*
Y492300D01*
Y493100D01*
Y493900D01*
Y494700D01*
Y495500D01*
Y496300D01*
Y497100D01*
Y497900D01*
Y498700D01*
Y499500D01*
Y500300D01*
X275800D01*
Y499500D01*
D02*
G37*
G36*
X124700Y179200D02*
Y178400D01*
Y177600D01*
Y176800D01*
Y176000D01*
Y175200D01*
Y174400D01*
Y173600D01*
Y172800D01*
Y172000D01*
Y171200D01*
Y170400D01*
Y169600D01*
Y168800D01*
Y168000D01*
Y167200D01*
Y166400D01*
Y165600D01*
Y164800D01*
Y164000D01*
Y163200D01*
Y162400D01*
Y161600D01*
Y160800D01*
Y160000D01*
Y159200D01*
Y158400D01*
Y157600D01*
Y156800D01*
Y156000D01*
Y155200D01*
Y154400D01*
Y153600D01*
Y152800D01*
Y152000D01*
Y151200D01*
Y150400D01*
Y149600D01*
Y148800D01*
Y148000D01*
Y147200D01*
Y146400D01*
Y145600D01*
Y144800D01*
Y144000D01*
Y143200D01*
Y142400D01*
Y141600D01*
Y140800D01*
Y140000D01*
Y139200D01*
Y138400D01*
Y137600D01*
Y136800D01*
Y136000D01*
Y135200D01*
Y134400D01*
Y133600D01*
Y132800D01*
Y132000D01*
Y131200D01*
Y130400D01*
Y129600D01*
Y128800D01*
Y128000D01*
Y127200D01*
Y126400D01*
Y125600D01*
Y124800D01*
Y124000D01*
Y123200D01*
Y122400D01*
Y121600D01*
Y120800D01*
Y120000D01*
Y119200D01*
Y118400D01*
Y117600D01*
Y116800D01*
Y116000D01*
Y115200D01*
Y114400D01*
Y113600D01*
Y112800D01*
Y112000D01*
Y111200D01*
Y110400D01*
Y109600D01*
Y108800D01*
Y108000D01*
Y107200D01*
Y106400D01*
Y105600D01*
Y104800D01*
Y104000D01*
Y103200D01*
Y102400D01*
Y101600D01*
Y100800D01*
Y100000D01*
Y99200D01*
Y98400D01*
Y97600D01*
Y96800D01*
Y96000D01*
Y95200D01*
Y94400D01*
Y93600D01*
Y92800D01*
Y92000D01*
Y91200D01*
Y90400D01*
Y89600D01*
Y88800D01*
Y88000D01*
Y87200D01*
Y86400D01*
Y85600D01*
Y84800D01*
Y84000D01*
Y83200D01*
Y82400D01*
Y81600D01*
Y80800D01*
Y80000D01*
Y79200D01*
Y78400D01*
Y77600D01*
Y76800D01*
Y76000D01*
Y75200D01*
Y74400D01*
Y73600D01*
Y72800D01*
Y72000D01*
Y71200D01*
Y70400D01*
Y69600D01*
Y68800D01*
Y68000D01*
Y67200D01*
Y66400D01*
Y65600D01*
Y64800D01*
Y64000D01*
Y63200D01*
Y62400D01*
Y61600D01*
Y60800D01*
Y60000D01*
Y59200D01*
Y58400D01*
Y57600D01*
Y56800D01*
Y56000D01*
Y55200D01*
Y54400D01*
Y53600D01*
Y52800D01*
Y52000D01*
Y51200D01*
Y50400D01*
Y49600D01*
Y48800D01*
Y48000D01*
Y47200D01*
Y46400D01*
Y45600D01*
Y44800D01*
Y44000D01*
Y43200D01*
Y42400D01*
Y41600D01*
Y40800D01*
Y40000D01*
Y39200D01*
Y38400D01*
Y37600D01*
Y36800D01*
Y36000D01*
Y35200D01*
Y34400D01*
Y33600D01*
X31900D01*
Y34400D01*
Y35200D01*
Y36000D01*
Y36800D01*
Y37600D01*
Y38400D01*
Y39200D01*
Y40000D01*
Y40800D01*
Y41600D01*
Y42400D01*
Y43200D01*
Y44000D01*
Y44800D01*
Y45600D01*
Y46400D01*
Y47200D01*
Y48000D01*
Y48800D01*
Y49600D01*
Y50400D01*
Y51200D01*
Y52000D01*
Y52800D01*
Y53600D01*
Y54400D01*
Y55200D01*
Y56000D01*
Y56800D01*
Y57600D01*
Y58400D01*
Y59200D01*
Y60000D01*
Y60800D01*
Y61600D01*
Y62400D01*
Y63200D01*
Y64000D01*
Y64800D01*
Y65600D01*
Y66400D01*
Y67200D01*
Y68000D01*
Y68800D01*
Y69600D01*
Y70400D01*
Y71200D01*
Y72000D01*
Y72800D01*
Y73600D01*
Y74400D01*
Y75200D01*
Y76000D01*
Y76800D01*
Y77600D01*
Y78400D01*
Y79200D01*
Y80000D01*
Y80800D01*
Y81600D01*
Y82400D01*
Y83200D01*
Y84000D01*
Y84800D01*
Y85600D01*
Y86400D01*
Y87200D01*
Y88000D01*
Y88800D01*
Y89600D01*
Y90400D01*
Y91200D01*
Y92000D01*
Y92800D01*
Y93600D01*
Y94400D01*
Y95200D01*
Y96000D01*
Y96800D01*
Y97600D01*
Y98400D01*
Y99200D01*
Y100000D01*
Y100800D01*
Y101600D01*
Y102400D01*
Y103200D01*
Y104000D01*
Y104800D01*
Y105600D01*
Y106400D01*
Y107200D01*
Y108000D01*
Y108800D01*
Y109600D01*
Y110400D01*
Y111200D01*
Y112000D01*
Y112800D01*
Y113600D01*
Y114400D01*
Y115200D01*
Y116000D01*
Y116800D01*
Y117600D01*
Y118400D01*
Y119200D01*
Y120000D01*
Y120800D01*
Y121600D01*
Y122400D01*
Y123200D01*
Y124000D01*
Y124800D01*
Y125600D01*
Y126400D01*
Y127200D01*
Y128000D01*
Y128800D01*
Y129600D01*
Y130400D01*
Y131200D01*
Y132000D01*
Y132800D01*
Y133600D01*
Y134400D01*
Y135200D01*
Y136000D01*
Y136800D01*
Y137600D01*
Y138400D01*
Y139200D01*
Y140000D01*
Y140800D01*
Y141600D01*
Y142400D01*
Y143200D01*
Y144000D01*
Y144800D01*
Y145600D01*
Y146400D01*
Y147200D01*
Y148000D01*
Y148800D01*
Y149600D01*
Y150400D01*
Y151200D01*
Y152000D01*
Y152800D01*
Y153600D01*
Y154400D01*
Y155200D01*
Y156000D01*
Y156800D01*
Y157600D01*
Y158400D01*
Y159200D01*
Y160000D01*
Y160800D01*
Y161600D01*
Y162400D01*
Y163200D01*
Y164000D01*
Y164800D01*
Y165600D01*
Y166400D01*
Y167200D01*
Y168000D01*
Y168800D01*
Y169600D01*
Y170400D01*
Y171200D01*
Y172000D01*
Y172800D01*
Y173600D01*
Y174400D01*
Y175200D01*
Y176000D01*
Y176800D01*
Y177600D01*
Y178400D01*
Y179200D01*
Y180000D01*
X124700D01*
Y179200D01*
D02*
G37*
%LPC*%
G36*
X506200Y465900D02*
X503800D01*
Y465100D01*
X503000D01*
Y464300D01*
X503800D01*
Y463500D01*
X502200D01*
Y462700D01*
Y461900D01*
Y461100D01*
Y460300D01*
Y459500D01*
X501400D01*
Y458700D01*
Y457900D01*
Y457100D01*
Y456300D01*
X499800D01*
Y455500D01*
Y454700D01*
Y453900D01*
Y453100D01*
Y452300D01*
Y451500D01*
Y450700D01*
Y449900D01*
X509400D01*
Y450700D01*
Y451500D01*
Y452300D01*
Y453100D01*
Y453900D01*
Y454700D01*
X507800D01*
Y455500D01*
Y456300D01*
X508600D01*
Y457100D01*
Y457900D01*
X507800D01*
Y458700D01*
X507000D01*
Y459500D01*
Y460300D01*
Y461100D01*
Y461900D01*
X506200D01*
Y462700D01*
Y463500D01*
Y464300D01*
Y465100D01*
Y465900D01*
D02*
G37*
G36*
X109500Y178400D02*
X107100D01*
Y177600D01*
Y176800D01*
X105500D01*
Y176000D01*
Y175200D01*
Y174400D01*
X107100D01*
Y173600D01*
X109500D01*
Y174400D01*
Y175200D01*
Y176000D01*
Y176800D01*
Y177600D01*
Y178400D01*
D02*
G37*
G36*
X95100Y176800D02*
X91100D01*
Y176000D01*
Y175200D01*
Y174400D01*
Y173600D01*
X95100D01*
Y174400D01*
Y175200D01*
Y176000D01*
Y176800D01*
D02*
G37*
G36*
X75900Y178400D02*
X73500D01*
Y177600D01*
Y176800D01*
Y176000D01*
Y175200D01*
Y174400D01*
Y173600D01*
X75900D01*
Y174400D01*
X77500D01*
Y175200D01*
Y176000D01*
Y176800D01*
X75900D01*
Y177600D01*
Y178400D01*
D02*
G37*
G36*
X55900Y176800D02*
X51900D01*
Y176000D01*
Y175200D01*
Y174400D01*
Y173600D01*
X55900D01*
Y174400D01*
Y175200D01*
Y176000D01*
Y176800D01*
D02*
G37*
G36*
X89500D02*
X85500D01*
Y176000D01*
Y175200D01*
Y174400D01*
Y173600D01*
Y172800D01*
Y172000D01*
X89500D01*
Y172800D01*
Y173600D01*
Y174400D01*
Y175200D01*
Y176000D01*
Y176800D01*
D02*
G37*
G36*
X95900Y171200D02*
X94300D01*
Y170400D01*
X93500D01*
Y171200D01*
X91100D01*
Y170400D01*
Y169600D01*
Y168800D01*
Y168000D01*
Y167200D01*
Y166400D01*
Y165600D01*
Y164800D01*
Y164000D01*
Y163200D01*
Y162400D01*
X94300D01*
Y161600D01*
X93500D01*
Y160800D01*
X94300D01*
Y160000D01*
Y159200D01*
X91900D01*
Y160000D01*
X89500D01*
Y160800D01*
X88700D01*
Y161600D01*
X87900D01*
Y162400D01*
X89500D01*
Y163200D01*
Y164000D01*
Y164800D01*
Y165600D01*
Y166400D01*
X87100D01*
Y165600D01*
X86300D01*
Y164800D01*
X83100D01*
Y164000D01*
Y163200D01*
Y162400D01*
Y161600D01*
X84700D01*
Y160800D01*
Y160000D01*
X83100D01*
Y159200D01*
Y158400D01*
Y157600D01*
Y156800D01*
Y156000D01*
Y155200D01*
Y154400D01*
Y153600D01*
Y152800D01*
Y152000D01*
Y151200D01*
Y150400D01*
X82300D01*
Y151200D01*
Y152000D01*
Y152800D01*
Y153600D01*
Y154400D01*
Y155200D01*
X80700D01*
Y156000D01*
Y156800D01*
X82300D01*
Y157600D01*
Y158400D01*
Y159200D01*
X80700D01*
Y160000D01*
Y160800D01*
Y161600D01*
Y162400D01*
Y163200D01*
Y164000D01*
Y164800D01*
Y165600D01*
Y166400D01*
X82300D01*
Y167200D01*
Y168000D01*
Y168800D01*
Y169600D01*
X78300D01*
Y168800D01*
Y168000D01*
Y167200D01*
Y166400D01*
Y165600D01*
Y164800D01*
Y164000D01*
Y163200D01*
Y162400D01*
Y161600D01*
X76700D01*
Y162400D01*
X75900D01*
Y163200D01*
Y164000D01*
X77500D01*
Y164800D01*
Y165600D01*
Y166400D01*
X75900D01*
Y167200D01*
X73500D01*
Y166400D01*
Y165600D01*
Y164800D01*
Y164000D01*
Y163200D01*
Y162400D01*
Y161600D01*
Y160800D01*
Y160000D01*
X71100D01*
Y159200D01*
Y158400D01*
Y157600D01*
Y156800D01*
Y156000D01*
Y155200D01*
Y154400D01*
Y153600D01*
Y152800D01*
Y152000D01*
Y151200D01*
Y150400D01*
Y149600D01*
Y148800D01*
Y148000D01*
Y147200D01*
Y146400D01*
Y145600D01*
Y144800D01*
Y144000D01*
Y143200D01*
Y142400D01*
Y141600D01*
Y140800D01*
X70300D01*
Y141600D01*
X69500D01*
Y142400D01*
X68700D01*
Y143200D01*
Y144000D01*
Y144800D01*
Y145600D01*
Y146400D01*
Y147200D01*
Y148000D01*
Y148800D01*
Y149600D01*
Y150400D01*
Y151200D01*
Y152000D01*
X66300D01*
Y151200D01*
Y150400D01*
Y149600D01*
Y148800D01*
Y148000D01*
Y147200D01*
Y146400D01*
Y145600D01*
Y144800D01*
Y144000D01*
Y143200D01*
Y142400D01*
Y141600D01*
Y140800D01*
Y140000D01*
Y139200D01*
Y138400D01*
Y137600D01*
Y136800D01*
Y136000D01*
Y135200D01*
Y134400D01*
Y133600D01*
Y132800D01*
Y132000D01*
Y131200D01*
Y130400D01*
Y129600D01*
Y128800D01*
Y128000D01*
Y127200D01*
Y126400D01*
Y125600D01*
Y124800D01*
Y124000D01*
Y123200D01*
Y122400D01*
Y121600D01*
Y120800D01*
Y120000D01*
Y119200D01*
Y118400D01*
X68700D01*
Y117600D01*
Y116800D01*
X66300D01*
Y116000D01*
Y115200D01*
Y114400D01*
Y113600D01*
Y112800D01*
Y112000D01*
Y111200D01*
Y110400D01*
Y109600D01*
X69500D01*
Y110400D01*
X70300D01*
Y111200D01*
X71100D01*
Y112000D01*
X72700D01*
Y111200D01*
X75900D01*
Y112000D01*
X77500D01*
Y112800D01*
Y113600D01*
X76700D01*
Y114400D01*
X78300D01*
Y113600D01*
Y112800D01*
Y112000D01*
X80700D01*
Y112800D01*
Y113600D01*
Y114400D01*
Y115200D01*
Y116000D01*
X83100D01*
Y116800D01*
X84700D01*
Y117600D01*
Y118400D01*
X83900D01*
Y119200D01*
X85500D01*
Y120000D01*
Y120800D01*
Y121600D01*
Y122400D01*
Y123200D01*
Y124000D01*
Y124800D01*
Y125600D01*
X83100D01*
Y124800D01*
Y124000D01*
Y123200D01*
Y122400D01*
Y121600D01*
Y120800D01*
X81500D01*
Y121600D01*
X82300D01*
Y122400D01*
Y123200D01*
Y124000D01*
Y124800D01*
Y125600D01*
X80700D01*
Y126400D01*
X82300D01*
Y127200D01*
Y128000D01*
Y128800D01*
Y129600D01*
Y130400D01*
X80700D01*
Y131200D01*
Y132000D01*
Y132800D01*
Y133600D01*
Y134400D01*
Y135200D01*
X79100D01*
Y136000D01*
X78300D01*
Y136800D01*
Y137600D01*
Y138400D01*
X76700D01*
Y139200D01*
X77500D01*
Y140000D01*
Y140800D01*
Y141600D01*
Y142400D01*
X75900D01*
Y143200D01*
Y144000D01*
Y144800D01*
Y145600D01*
Y146400D01*
Y147200D01*
X78300D01*
Y146400D01*
Y145600D01*
X82300D01*
Y146400D01*
Y147200D01*
Y148000D01*
X83100D01*
Y147200D01*
Y146400D01*
Y145600D01*
Y144800D01*
Y144000D01*
Y143200D01*
Y142400D01*
Y141600D01*
Y140800D01*
X85500D01*
Y140000D01*
Y139200D01*
Y138400D01*
Y137600D01*
X90300D01*
Y138400D01*
Y139200D01*
Y140000D01*
Y140800D01*
Y141600D01*
Y142400D01*
X91900D01*
Y143200D01*
Y144000D01*
Y144800D01*
X94300D01*
Y145600D01*
Y146400D01*
Y147200D01*
X95900D01*
Y146400D01*
X96700D01*
Y145600D01*
X99900D01*
Y144800D01*
X97500D01*
Y144000D01*
Y143200D01*
X95900D01*
Y142400D01*
Y141600D01*
Y140800D01*
X102300D01*
Y141600D01*
Y142400D01*
Y143200D01*
Y144000D01*
Y144800D01*
Y145600D01*
X103900D01*
Y144800D01*
X104700D01*
Y144000D01*
Y143200D01*
Y142400D01*
X103100D01*
Y141600D01*
Y140800D01*
Y140000D01*
Y139200D01*
Y138400D01*
X103900D01*
Y137600D01*
Y136800D01*
Y136000D01*
X105500D01*
Y135200D01*
X103900D01*
Y136000D01*
X102300D01*
Y136800D01*
Y137600D01*
Y138400D01*
Y139200D01*
Y140000D01*
X95900D01*
Y139200D01*
Y138400D01*
Y137600D01*
X96700D01*
Y136800D01*
Y136000D01*
X93500D01*
Y135200D01*
Y134400D01*
Y133600D01*
Y132800D01*
Y132000D01*
Y131200D01*
X99900D01*
Y130400D01*
X102300D01*
Y131200D01*
Y132000D01*
Y132800D01*
X103900D01*
Y132000D01*
Y131200D01*
X105500D01*
Y130400D01*
X103100D01*
Y129600D01*
Y128800D01*
Y128000D01*
X104700D01*
Y127200D01*
Y126400D01*
X107100D01*
Y127200D01*
X107900D01*
Y126400D01*
X109500D01*
Y125600D01*
Y124800D01*
Y124000D01*
X111900D01*
Y124800D01*
Y125600D01*
Y126400D01*
Y127200D01*
Y128000D01*
Y128800D01*
Y129600D01*
Y130400D01*
X109500D01*
Y131200D01*
X111900D01*
Y132000D01*
Y132800D01*
Y133600D01*
X113500D01*
Y134400D01*
Y135200D01*
Y136000D01*
X111900D01*
Y136800D01*
Y137600D01*
X113500D01*
Y138400D01*
Y139200D01*
Y140000D01*
Y140800D01*
X111900D01*
Y141600D01*
Y142400D01*
Y143200D01*
X113500D01*
Y144000D01*
Y144800D01*
Y145600D01*
X111900D01*
Y146400D01*
Y147200D01*
Y148000D01*
Y148800D01*
Y149600D01*
X113500D01*
Y150400D01*
Y151200D01*
Y152000D01*
X111900D01*
Y152800D01*
Y153600D01*
Y154400D01*
Y155200D01*
Y156000D01*
Y156800D01*
Y157600D01*
Y158400D01*
Y159200D01*
Y160000D01*
Y160800D01*
Y161600D01*
X109500D01*
Y162400D01*
X107100D01*
Y163200D01*
Y164000D01*
X109500D01*
Y164800D01*
Y165600D01*
Y166400D01*
X104700D01*
Y165600D01*
Y164800D01*
X103100D01*
Y164000D01*
Y163200D01*
Y162400D01*
X104700D01*
Y161600D01*
Y160800D01*
Y160000D01*
Y159200D01*
Y158400D01*
Y157600D01*
Y156800D01*
X103900D01*
Y157600D01*
Y158400D01*
Y159200D01*
X102300D01*
Y160000D01*
Y160800D01*
Y161600D01*
X99900D01*
Y160800D01*
Y160000D01*
X99100D01*
Y159200D01*
Y158400D01*
Y157600D01*
X99900D01*
Y156800D01*
Y156000D01*
Y155200D01*
Y154400D01*
Y153600D01*
Y152800D01*
Y152000D01*
Y151200D01*
Y150400D01*
X97500D01*
Y151200D01*
Y152000D01*
Y152800D01*
Y153600D01*
Y154400D01*
Y155200D01*
X95900D01*
Y156000D01*
X96700D01*
Y156800D01*
X97500D01*
Y157600D01*
Y158400D01*
Y159200D01*
Y160000D01*
Y160800D01*
Y161600D01*
Y162400D01*
Y163200D01*
Y164000D01*
Y164800D01*
Y165600D01*
Y166400D01*
Y167200D01*
Y168000D01*
Y168800D01*
Y169600D01*
X96700D01*
Y170400D01*
X95900D01*
Y171200D01*
D02*
G37*
G36*
X89500D02*
X87100D01*
Y170400D01*
X86300D01*
Y169600D01*
X85500D01*
Y170400D01*
Y171200D01*
X83100D01*
Y170400D01*
Y169600D01*
Y168800D01*
Y168000D01*
Y167200D01*
Y166400D01*
X86300D01*
Y167200D01*
X87900D01*
Y168000D01*
Y168800D01*
X89500D01*
Y169600D01*
Y170400D01*
Y171200D01*
D02*
G37*
G36*
X75900Y172000D02*
X73500D01*
Y171200D01*
Y170400D01*
Y169600D01*
Y168800D01*
X75900D01*
Y169600D01*
Y170400D01*
Y171200D01*
Y172000D01*
D02*
G37*
G36*
X109500Y171200D02*
X103100D01*
Y170400D01*
Y169600D01*
Y168800D01*
X104700D01*
Y168000D01*
Y167200D01*
X107900D01*
Y168000D01*
X108700D01*
Y168800D01*
X109500D01*
Y169600D01*
Y170400D01*
Y171200D01*
D02*
G37*
G36*
X54300Y172000D02*
X51900D01*
Y171200D01*
Y170400D01*
Y169600D01*
Y168800D01*
Y168000D01*
Y167200D01*
X55900D01*
Y168000D01*
Y168800D01*
Y169600D01*
Y170400D01*
Y171200D01*
X54300D01*
Y172000D01*
D02*
G37*
G36*
X121500Y166400D02*
X118300D01*
Y165600D01*
Y164800D01*
Y164000D01*
Y163200D01*
Y162400D01*
X121500D01*
Y163200D01*
Y164000D01*
Y164800D01*
Y165600D01*
Y166400D01*
D02*
G37*
G36*
X63100D02*
X59100D01*
Y165600D01*
Y164800D01*
Y164000D01*
Y163200D01*
Y162400D01*
X63100D01*
Y163200D01*
Y164000D01*
Y164800D01*
Y165600D01*
Y166400D01*
D02*
G37*
G36*
X55900D02*
X52700D01*
Y165600D01*
Y164800D01*
Y164000D01*
Y163200D01*
Y162400D01*
X55900D01*
Y163200D01*
Y164000D01*
Y164800D01*
Y165600D01*
Y166400D01*
D02*
G37*
G36*
X121500Y160000D02*
X118300D01*
Y159200D01*
Y158400D01*
Y157600D01*
Y156800D01*
X121500D01*
Y157600D01*
Y158400D01*
Y159200D01*
Y160000D01*
D02*
G37*
G36*
X63100D02*
X59100D01*
Y159200D01*
Y158400D01*
Y157600D01*
X60700D01*
Y156800D01*
X63100D01*
Y157600D01*
Y158400D01*
Y159200D01*
Y160000D01*
D02*
G37*
G36*
X68700Y173600D02*
X66300D01*
Y172800D01*
Y172000D01*
Y171200D01*
Y170400D01*
Y169600D01*
Y168800D01*
Y168000D01*
Y167200D01*
Y166400D01*
Y165600D01*
Y164800D01*
Y164000D01*
Y163200D01*
Y162400D01*
Y161600D01*
Y160800D01*
Y160000D01*
Y159200D01*
Y158400D01*
Y157600D01*
Y156800D01*
Y156000D01*
Y155200D01*
Y154400D01*
Y153600D01*
Y152800D01*
X68700D01*
Y153600D01*
Y154400D01*
X70300D01*
Y155200D01*
Y156000D01*
Y156800D01*
X68700D01*
Y157600D01*
Y158400D01*
Y159200D01*
X70300D01*
Y160000D01*
Y160800D01*
Y161600D01*
Y162400D01*
X68700D01*
Y163200D01*
Y164000D01*
X70300D01*
Y164800D01*
Y165600D01*
Y166400D01*
X68700D01*
Y167200D01*
Y168000D01*
Y168800D01*
X70300D01*
Y169600D01*
Y170400D01*
Y171200D01*
Y172000D01*
X68700D01*
Y172800D01*
Y173600D01*
D02*
G37*
G36*
X55100Y161600D02*
X51900D01*
Y160800D01*
Y160000D01*
X50300D01*
Y159200D01*
X49500D01*
Y158400D01*
Y157600D01*
Y156800D01*
Y156000D01*
Y155200D01*
X51900D01*
Y154400D01*
X52700D01*
Y153600D01*
Y152800D01*
X51900D01*
Y153600D01*
Y154400D01*
X49500D01*
Y153600D01*
Y152800D01*
Y152000D01*
Y151200D01*
Y150400D01*
X50300D01*
Y149600D01*
Y148800D01*
Y148000D01*
Y147200D01*
Y146400D01*
Y145600D01*
Y144800D01*
X49500D01*
Y144000D01*
Y143200D01*
Y142400D01*
X50300D01*
Y141600D01*
Y140800D01*
X49500D01*
Y140000D01*
Y139200D01*
Y138400D01*
Y137600D01*
Y136800D01*
Y136000D01*
Y135200D01*
Y134400D01*
Y133600D01*
Y132800D01*
Y132000D01*
Y131200D01*
Y130400D01*
X50300D01*
Y129600D01*
Y128800D01*
X49500D01*
Y128000D01*
Y127200D01*
Y126400D01*
Y125600D01*
X51900D01*
Y124800D01*
Y124000D01*
X50300D01*
Y123200D01*
X49500D01*
Y122400D01*
Y121600D01*
Y120800D01*
X47100D01*
Y120000D01*
Y119200D01*
Y118400D01*
Y117600D01*
Y116800D01*
Y116000D01*
Y115200D01*
Y114400D01*
Y113600D01*
Y112800D01*
Y112000D01*
Y111200D01*
Y110400D01*
Y109600D01*
Y108800D01*
Y108000D01*
Y107200D01*
Y106400D01*
Y105600D01*
Y104800D01*
Y104000D01*
Y103200D01*
Y102400D01*
Y101600D01*
Y100800D01*
Y100000D01*
Y99200D01*
Y98400D01*
Y97600D01*
Y96800D01*
X51100D01*
Y97600D01*
Y98400D01*
Y99200D01*
X50300D01*
Y100000D01*
Y100800D01*
X51100D01*
Y100000D01*
X52700D01*
Y100800D01*
X53500D01*
Y101600D01*
X54300D01*
Y102400D01*
X55900D01*
Y103200D01*
Y104000D01*
Y104800D01*
X50300D01*
Y105600D01*
Y106400D01*
X49500D01*
Y107200D01*
X51100D01*
Y106400D01*
X58300D01*
Y107200D01*
X57500D01*
Y108000D01*
X58300D01*
Y108800D01*
X59900D01*
Y108000D01*
X60700D01*
Y107200D01*
X63100D01*
Y108000D01*
Y108800D01*
Y109600D01*
Y110400D01*
Y111200D01*
Y112000D01*
Y112800D01*
Y113600D01*
Y114400D01*
Y115200D01*
Y116000D01*
Y116800D01*
Y117600D01*
Y118400D01*
Y119200D01*
Y120000D01*
Y120800D01*
Y121600D01*
Y122400D01*
Y123200D01*
Y124000D01*
Y124800D01*
Y125600D01*
Y126400D01*
Y127200D01*
Y128000D01*
Y128800D01*
Y129600D01*
Y130400D01*
X65500D01*
Y131200D01*
Y132000D01*
Y132800D01*
X63100D01*
Y133600D01*
X65500D01*
Y134400D01*
Y135200D01*
Y136000D01*
X63100D01*
Y136800D01*
Y137600D01*
Y138400D01*
Y139200D01*
Y140000D01*
Y140800D01*
X61500D01*
Y141600D01*
Y142400D01*
X63100D01*
Y143200D01*
Y144000D01*
Y144800D01*
Y145600D01*
Y146400D01*
Y147200D01*
Y148000D01*
Y148800D01*
Y149600D01*
Y150400D01*
Y151200D01*
Y152000D01*
Y152800D01*
Y153600D01*
Y154400D01*
Y155200D01*
X59900D01*
Y154400D01*
Y153600D01*
Y152800D01*
Y152000D01*
X60700D01*
Y151200D01*
X59900D01*
Y150400D01*
X59100D01*
Y149600D01*
Y148800D01*
Y148000D01*
Y147200D01*
Y146400D01*
Y145600D01*
Y144800D01*
X59900D01*
Y144000D01*
Y143200D01*
X59100D01*
Y142400D01*
Y141600D01*
Y140800D01*
Y140000D01*
Y139200D01*
Y138400D01*
Y137600D01*
Y136800D01*
Y136000D01*
Y135200D01*
X56700D01*
Y136000D01*
X57500D01*
Y136800D01*
X58300D01*
Y137600D01*
Y138400D01*
X57500D01*
Y139200D01*
Y140000D01*
Y140800D01*
Y141600D01*
Y142400D01*
X58300D01*
Y143200D01*
Y144000D01*
Y144800D01*
Y145600D01*
Y146400D01*
X57500D01*
Y147200D01*
X58300D01*
Y148000D01*
Y148800D01*
Y149600D01*
X57500D01*
Y150400D01*
X58300D01*
Y151200D01*
Y152000D01*
Y152800D01*
Y153600D01*
Y154400D01*
Y155200D01*
Y156000D01*
Y156800D01*
Y157600D01*
Y158400D01*
Y159200D01*
X57500D01*
Y160000D01*
X55900D01*
Y160800D01*
X55100D01*
Y161600D01*
D02*
G37*
G36*
X111900Y123200D02*
X109500D01*
Y122400D01*
Y121600D01*
Y120800D01*
Y120000D01*
Y119200D01*
X113500D01*
Y120000D01*
Y120800D01*
Y121600D01*
X111900D01*
Y122400D01*
Y123200D01*
D02*
G37*
G36*
X121500Y155200D02*
X118300D01*
Y154400D01*
Y153600D01*
Y152800D01*
Y152000D01*
X119900D01*
Y151200D01*
X119100D01*
Y150400D01*
X118300D01*
Y149600D01*
Y148800D01*
Y148000D01*
Y147200D01*
Y146400D01*
Y145600D01*
Y144800D01*
Y144000D01*
Y143200D01*
Y142400D01*
Y141600D01*
Y140800D01*
X115900D01*
Y140000D01*
Y139200D01*
Y138400D01*
X115100D01*
Y137600D01*
Y136800D01*
X115900D01*
Y136000D01*
Y135200D01*
Y134400D01*
Y133600D01*
Y132800D01*
Y132000D01*
X115100D01*
Y131200D01*
Y130400D01*
X115900D01*
Y129600D01*
Y128800D01*
Y128000D01*
Y127200D01*
Y126400D01*
Y125600D01*
Y124800D01*
Y124000D01*
Y123200D01*
Y122400D01*
X115100D01*
Y121600D01*
Y120800D01*
X117500D01*
Y120000D01*
X116700D01*
Y119200D01*
X115900D01*
Y118400D01*
Y117600D01*
X115100D01*
Y116800D01*
Y116000D01*
X115900D01*
Y115200D01*
Y114400D01*
Y113600D01*
X116700D01*
Y112800D01*
Y112000D01*
Y111200D01*
X115900D01*
Y110400D01*
Y109600D01*
Y108800D01*
Y108000D01*
Y107200D01*
X118300D01*
Y106400D01*
X115900D01*
Y105600D01*
Y104800D01*
Y104000D01*
Y103200D01*
Y102400D01*
Y101600D01*
X116700D01*
Y100800D01*
Y100000D01*
Y99200D01*
Y98400D01*
Y97600D01*
X121500D01*
Y98400D01*
Y99200D01*
Y100000D01*
Y100800D01*
Y101600D01*
X119900D01*
Y102400D01*
X121500D01*
Y103200D01*
Y104000D01*
Y104800D01*
Y105600D01*
Y106400D01*
Y107200D01*
Y108000D01*
Y108800D01*
Y109600D01*
Y110400D01*
Y111200D01*
X119100D01*
Y112000D01*
Y112800D01*
X119900D01*
Y112000D01*
X121500D01*
Y112800D01*
Y113600D01*
Y114400D01*
Y115200D01*
Y116000D01*
Y116800D01*
Y117600D01*
Y118400D01*
Y119200D01*
Y120000D01*
Y120800D01*
Y121600D01*
Y122400D01*
Y123200D01*
Y124000D01*
Y124800D01*
Y125600D01*
Y126400D01*
Y127200D01*
Y128000D01*
Y128800D01*
Y129600D01*
Y130400D01*
Y131200D01*
X119100D01*
Y132000D01*
Y132800D01*
X121500D01*
Y133600D01*
Y134400D01*
Y135200D01*
Y136000D01*
X120700D01*
Y136800D01*
X119900D01*
Y137600D01*
X121500D01*
Y138400D01*
Y139200D01*
Y140000D01*
Y140800D01*
Y141600D01*
Y142400D01*
Y143200D01*
Y144000D01*
Y144800D01*
Y145600D01*
Y146400D01*
Y147200D01*
Y148000D01*
Y148800D01*
Y149600D01*
Y150400D01*
Y151200D01*
Y152000D01*
Y152800D01*
Y153600D01*
Y154400D01*
Y155200D01*
D02*
G37*
G36*
X51100Y95200D02*
X47100D01*
Y94400D01*
Y93600D01*
Y92800D01*
X51100D01*
Y93600D01*
Y94400D01*
Y95200D01*
D02*
G37*
G36*
X42300Y161600D02*
X39900D01*
Y160800D01*
Y160000D01*
X37500D01*
Y159200D01*
X35900D01*
Y158400D01*
Y157600D01*
Y156800D01*
X37500D01*
Y156000D01*
Y155200D01*
X39100D01*
Y156000D01*
X39900D01*
Y155200D01*
Y154400D01*
X37500D01*
Y153600D01*
Y152800D01*
Y152000D01*
Y151200D01*
Y150400D01*
Y149600D01*
Y148800D01*
Y148000D01*
Y147200D01*
Y146400D01*
Y145600D01*
X39900D01*
Y144800D01*
Y144000D01*
Y143200D01*
Y142400D01*
X37500D01*
Y141600D01*
Y140800D01*
Y140000D01*
Y139200D01*
Y138400D01*
Y137600D01*
Y136800D01*
Y136000D01*
Y135200D01*
Y134400D01*
Y133600D01*
Y132800D01*
X39900D01*
Y132000D01*
Y131200D01*
X37500D01*
Y130400D01*
Y129600D01*
Y128800D01*
Y128000D01*
Y127200D01*
Y126400D01*
X38300D01*
Y125600D01*
Y124800D01*
Y124000D01*
X37500D01*
Y123200D01*
Y122400D01*
Y121600D01*
Y120800D01*
X38300D01*
Y120000D01*
Y119200D01*
X37500D01*
Y118400D01*
Y117600D01*
Y116800D01*
Y116000D01*
X39900D01*
Y115200D01*
Y114400D01*
Y113600D01*
X37500D01*
Y112800D01*
Y112000D01*
Y111200D01*
X35900D01*
Y110400D01*
Y109600D01*
Y108800D01*
X37500D01*
Y108000D01*
Y107200D01*
Y106400D01*
Y105600D01*
Y104800D01*
Y104000D01*
Y103200D01*
Y102400D01*
Y101600D01*
Y100800D01*
Y100000D01*
Y99200D01*
Y98400D01*
Y97600D01*
Y96800D01*
Y96000D01*
Y95200D01*
Y94400D01*
Y93600D01*
Y92800D01*
X35900D01*
Y92000D01*
Y91200D01*
Y90400D01*
X37500D01*
Y89600D01*
Y88800D01*
Y88000D01*
Y87200D01*
Y86400D01*
Y85600D01*
X35900D01*
Y84800D01*
Y84000D01*
Y83200D01*
X37500D01*
Y82400D01*
X42300D01*
Y83200D01*
Y84000D01*
Y84800D01*
Y85600D01*
Y86400D01*
Y87200D01*
X39900D01*
Y88000D01*
X42300D01*
Y88800D01*
Y89600D01*
Y90400D01*
Y91200D01*
Y92000D01*
Y92800D01*
Y93600D01*
Y94400D01*
Y95200D01*
Y96000D01*
Y96800D01*
X39900D01*
Y97600D01*
X42300D01*
Y98400D01*
Y99200D01*
Y100000D01*
Y100800D01*
Y101600D01*
Y102400D01*
Y103200D01*
Y104000D01*
Y104800D01*
Y105600D01*
Y106400D01*
Y107200D01*
Y108000D01*
Y108800D01*
Y109600D01*
Y110400D01*
Y111200D01*
Y112000D01*
Y112800D01*
Y113600D01*
X43100D01*
Y114400D01*
Y115200D01*
Y116000D01*
X41500D01*
Y116800D01*
X43100D01*
Y117600D01*
Y118400D01*
Y119200D01*
X42300D01*
Y120000D01*
Y120800D01*
Y121600D01*
Y122400D01*
Y123200D01*
Y124000D01*
Y124800D01*
Y125600D01*
Y126400D01*
Y127200D01*
Y128000D01*
Y128800D01*
Y129600D01*
Y130400D01*
Y131200D01*
Y132000D01*
Y132800D01*
Y133600D01*
Y134400D01*
Y135200D01*
Y136000D01*
Y136800D01*
Y137600D01*
Y138400D01*
Y139200D01*
Y140000D01*
Y140800D01*
Y141600D01*
Y142400D01*
Y143200D01*
Y144000D01*
Y144800D01*
Y145600D01*
Y146400D01*
Y147200D01*
Y148000D01*
X43100D01*
Y148800D01*
Y149600D01*
Y150400D01*
X42300D01*
Y151200D01*
Y152000D01*
Y152800D01*
Y153600D01*
Y154400D01*
Y155200D01*
Y156000D01*
Y156800D01*
Y157600D01*
X43100D01*
Y158400D01*
Y159200D01*
Y160000D01*
X42300D01*
Y160800D01*
Y161600D01*
D02*
G37*
G36*
X49500Y83200D02*
X47100D01*
Y82400D01*
Y81600D01*
Y80800D01*
Y80000D01*
X49500D01*
Y80800D01*
Y81600D01*
Y82400D01*
Y83200D01*
D02*
G37*
G36*
X42300Y80800D02*
X39900D01*
Y80000D01*
X37500D01*
Y79200D01*
Y78400D01*
X35900D01*
Y77600D01*
Y76800D01*
Y76000D01*
X39100D01*
Y75200D01*
X37500D01*
Y74400D01*
Y73600D01*
Y72800D01*
X42300D01*
Y73600D01*
Y74400D01*
Y75200D01*
Y76000D01*
Y76800D01*
Y77600D01*
Y78400D01*
Y79200D01*
Y80000D01*
Y80800D01*
D02*
G37*
G36*
X58300Y73600D02*
X55100D01*
Y72800D01*
X52700D01*
Y72000D01*
Y71200D01*
X49500D01*
Y72000D01*
Y72800D01*
X47100D01*
Y72000D01*
Y71200D01*
Y70400D01*
Y69600D01*
Y68800D01*
Y68000D01*
Y67200D01*
Y66400D01*
Y65600D01*
Y64800D01*
Y64000D01*
Y63200D01*
X47900D01*
Y62400D01*
X48700D01*
Y61600D01*
X47100D01*
Y60800D01*
Y60000D01*
Y59200D01*
Y58400D01*
X47900D01*
Y57600D01*
X48700D01*
Y56800D01*
X51100D01*
Y56000D01*
X52700D01*
Y55200D01*
Y54400D01*
Y53600D01*
X55900D01*
Y54400D01*
X57500D01*
Y55200D01*
X58300D01*
Y56000D01*
Y56800D01*
X57500D01*
Y57600D01*
Y58400D01*
X58300D01*
Y59200D01*
Y60000D01*
Y60800D01*
Y61600D01*
Y62400D01*
Y63200D01*
Y64000D01*
X55100D01*
Y64800D01*
X55900D01*
Y65600D01*
X58300D01*
Y66400D01*
Y67200D01*
Y68000D01*
Y68800D01*
X55100D01*
Y69600D01*
X55900D01*
Y70400D01*
X58300D01*
Y71200D01*
Y72000D01*
Y72800D01*
Y73600D01*
D02*
G37*
G36*
X109500Y119200D02*
X107100D01*
Y118400D01*
Y117600D01*
Y116800D01*
X104700D01*
Y116000D01*
X101500D01*
Y115200D01*
Y114400D01*
X99900D01*
Y113600D01*
Y112800D01*
Y112000D01*
Y111200D01*
Y110400D01*
Y109600D01*
Y108800D01*
Y108000D01*
Y107200D01*
Y106400D01*
X101500D01*
Y105600D01*
Y104800D01*
X99900D01*
Y104000D01*
Y103200D01*
Y102400D01*
X101500D01*
Y101600D01*
X99900D01*
Y100800D01*
Y100000D01*
Y99200D01*
Y98400D01*
Y97600D01*
Y96800D01*
X101500D01*
Y96000D01*
Y95200D01*
X97500D01*
Y94400D01*
Y93600D01*
Y92800D01*
Y92000D01*
X96700D01*
Y91200D01*
X95900D01*
Y90400D01*
X93500D01*
Y89600D01*
X91100D01*
Y88800D01*
Y88000D01*
Y87200D01*
Y86400D01*
Y85600D01*
Y84800D01*
Y84000D01*
Y83200D01*
Y82400D01*
Y81600D01*
Y80800D01*
Y80000D01*
Y79200D01*
Y78400D01*
Y77600D01*
Y76800D01*
Y76000D01*
X93500D01*
Y75200D01*
Y74400D01*
Y73600D01*
Y72800D01*
X96700D01*
Y72000D01*
Y71200D01*
X91100D01*
Y70400D01*
Y69600D01*
Y68800D01*
X89500D01*
Y69600D01*
Y70400D01*
Y71200D01*
X87100D01*
Y72000D01*
Y72800D01*
Y73600D01*
Y74400D01*
Y75200D01*
Y76000D01*
Y76800D01*
Y77600D01*
Y78400D01*
Y79200D01*
Y80000D01*
Y80800D01*
Y81600D01*
Y82400D01*
X84700D01*
Y83200D01*
Y84000D01*
Y84800D01*
Y85600D01*
X83100D01*
Y86400D01*
Y87200D01*
X80700D01*
Y86400D01*
Y85600D01*
X79900D01*
Y84800D01*
X78300D01*
Y84000D01*
Y83200D01*
Y82400D01*
Y81600D01*
Y80800D01*
X79900D01*
Y80000D01*
X76700D01*
Y79200D01*
Y78400D01*
Y77600D01*
Y76800D01*
Y76000D01*
X80700D01*
Y75200D01*
Y74400D01*
Y73600D01*
Y72800D01*
Y72000D01*
Y71200D01*
Y70400D01*
Y69600D01*
Y68800D01*
Y68000D01*
Y67200D01*
Y66400D01*
Y65600D01*
Y64800D01*
Y64000D01*
Y63200D01*
Y62400D01*
Y61600D01*
X84700D01*
Y62400D01*
Y63200D01*
Y64000D01*
Y64800D01*
Y65600D01*
X83100D01*
Y66400D01*
X85500D01*
Y65600D01*
Y64800D01*
Y64000D01*
Y63200D01*
Y62400D01*
Y61600D01*
Y60800D01*
Y60000D01*
Y59200D01*
X87100D01*
Y58400D01*
X85500D01*
Y57600D01*
Y56800D01*
Y56000D01*
Y55200D01*
Y54400D01*
Y53600D01*
X87900D01*
Y54400D01*
X88700D01*
Y55200D01*
X89500D01*
Y56000D01*
X91100D01*
Y55200D01*
Y54400D01*
Y53600D01*
Y52800D01*
Y52000D01*
Y51200D01*
X93500D01*
Y52000D01*
X95100D01*
Y52800D01*
Y53600D01*
Y54400D01*
X94300D01*
Y55200D01*
X93500D01*
Y56000D01*
X91900D01*
Y56800D01*
X93500D01*
Y57600D01*
X94300D01*
Y58400D01*
X95100D01*
Y59200D01*
Y60000D01*
Y60800D01*
X93500D01*
Y61600D01*
X94300D01*
Y62400D01*
Y63200D01*
Y64000D01*
Y64800D01*
Y65600D01*
Y66400D01*
X96700D01*
Y65600D01*
X95900D01*
Y64800D01*
Y64000D01*
Y63200D01*
Y62400D01*
Y61600D01*
Y60800D01*
Y60000D01*
Y59200D01*
Y58400D01*
Y57600D01*
Y56800D01*
X99900D01*
Y57600D01*
X100700D01*
Y56800D01*
X103100D01*
Y57600D01*
X103900D01*
Y58400D01*
X104700D01*
Y59200D01*
Y60000D01*
Y60800D01*
Y61600D01*
Y62400D01*
Y63200D01*
Y64000D01*
Y64800D01*
Y65600D01*
X106300D01*
Y64800D01*
Y64000D01*
Y63200D01*
X105500D01*
Y62400D01*
Y61600D01*
Y60800D01*
X107100D01*
Y60000D01*
Y59200D01*
X105500D01*
Y58400D01*
Y57600D01*
Y56800D01*
Y56000D01*
X107100D01*
Y55200D01*
Y54400D01*
Y53600D01*
X106300D01*
Y52800D01*
Y52000D01*
Y51200D01*
X107100D01*
Y50400D01*
Y49600D01*
X109500D01*
Y50400D01*
Y51200D01*
Y52000D01*
Y52800D01*
Y53600D01*
Y54400D01*
Y55200D01*
Y56000D01*
X111900D01*
Y56800D01*
Y57600D01*
Y58400D01*
Y59200D01*
Y60000D01*
Y60800D01*
Y61600D01*
Y62400D01*
Y63200D01*
Y64000D01*
X109500D01*
Y64800D01*
Y65600D01*
X111900D01*
Y66400D01*
Y67200D01*
Y68000D01*
Y68800D01*
X109500D01*
Y69600D01*
Y70400D01*
X111900D01*
Y71200D01*
Y72000D01*
Y72800D01*
Y73600D01*
Y74400D01*
Y75200D01*
Y76000D01*
X113500D01*
Y76800D01*
Y77600D01*
Y78400D01*
Y79200D01*
Y80000D01*
X111900D01*
Y80800D01*
Y81600D01*
Y82400D01*
Y83200D01*
Y84000D01*
Y84800D01*
X107100D01*
Y85600D01*
X109500D01*
Y86400D01*
Y87200D01*
X111900D01*
Y88000D01*
Y88800D01*
Y89600D01*
Y90400D01*
Y91200D01*
Y92000D01*
X109500D01*
Y92800D01*
X111900D01*
Y93600D01*
Y94400D01*
X113500D01*
Y95200D01*
Y96000D01*
Y96800D01*
X111900D01*
Y97600D01*
Y98400D01*
Y99200D01*
Y100000D01*
Y100800D01*
Y101600D01*
X109500D01*
Y102400D01*
X111900D01*
Y103200D01*
Y104000D01*
Y104800D01*
Y105600D01*
Y106400D01*
X109500D01*
Y107200D01*
X111900D01*
Y108000D01*
Y108800D01*
X113500D01*
Y109600D01*
Y110400D01*
Y111200D01*
X109500D01*
Y112000D01*
Y112800D01*
Y113600D01*
X111100D01*
Y114400D01*
X111900D01*
Y115200D01*
Y116000D01*
Y116800D01*
Y117600D01*
Y118400D01*
X109500D01*
Y119200D01*
D02*
G37*
G36*
X121500Y96800D02*
X115900D01*
Y96000D01*
Y95200D01*
Y94400D01*
Y93600D01*
Y92800D01*
X117500D01*
Y92000D01*
X115900D01*
Y91200D01*
Y90400D01*
Y89600D01*
Y88800D01*
Y88000D01*
Y87200D01*
Y86400D01*
Y85600D01*
Y84800D01*
Y84000D01*
Y83200D01*
X117500D01*
Y82400D01*
X115900D01*
Y81600D01*
Y80800D01*
Y80000D01*
Y79200D01*
Y78400D01*
X115100D01*
Y77600D01*
Y76800D01*
X115900D01*
Y76000D01*
X117500D01*
Y75200D01*
X115900D01*
Y74400D01*
Y73600D01*
Y72800D01*
X116700D01*
Y72000D01*
Y71200D01*
X115900D01*
Y70400D01*
Y69600D01*
Y68800D01*
Y68000D01*
X121500D01*
Y68800D01*
Y69600D01*
Y70400D01*
Y71200D01*
X119100D01*
Y72000D01*
Y72800D01*
X121500D01*
Y73600D01*
Y74400D01*
Y75200D01*
Y76000D01*
Y76800D01*
Y77600D01*
Y78400D01*
Y79200D01*
Y80000D01*
Y80800D01*
Y81600D01*
Y82400D01*
Y83200D01*
Y84000D01*
Y84800D01*
Y85600D01*
Y86400D01*
Y87200D01*
Y88000D01*
Y88800D01*
Y89600D01*
Y90400D01*
Y91200D01*
Y92000D01*
Y92800D01*
Y93600D01*
Y94400D01*
Y95200D01*
Y96000D01*
Y96800D01*
D02*
G37*
G36*
X63100Y71200D02*
X60700D01*
Y70400D01*
X59100D01*
Y69600D01*
Y68800D01*
Y68000D01*
X63100D01*
Y68800D01*
Y69600D01*
Y70400D01*
Y71200D01*
D02*
G37*
G36*
X42300D02*
X39900D01*
Y70400D01*
Y69600D01*
Y68800D01*
Y68000D01*
Y67200D01*
Y66400D01*
X38300D01*
Y65600D01*
Y64800D01*
Y64000D01*
X39900D01*
Y63200D01*
Y62400D01*
Y61600D01*
Y60800D01*
Y60000D01*
Y59200D01*
Y58400D01*
Y57600D01*
Y56800D01*
X42300D01*
Y57600D01*
Y58400D01*
X43100D01*
Y59200D01*
Y60000D01*
Y60800D01*
X42300D01*
Y61600D01*
Y62400D01*
Y63200D01*
Y64000D01*
Y64800D01*
Y65600D01*
Y66400D01*
Y67200D01*
Y68000D01*
Y68800D01*
Y69600D01*
Y70400D01*
Y71200D01*
D02*
G37*
G36*
X75900D02*
X67900D01*
Y70400D01*
X66300D01*
Y69600D01*
Y68800D01*
Y68000D01*
Y67200D01*
Y66400D01*
Y65600D01*
Y64800D01*
Y64000D01*
X68700D01*
Y63200D01*
Y62400D01*
Y61600D01*
Y60800D01*
Y60000D01*
Y59200D01*
Y58400D01*
Y57600D01*
Y56800D01*
X71100D01*
Y56000D01*
X73500D01*
Y55200D01*
Y54400D01*
X75900D01*
Y55200D01*
Y56000D01*
X79900D01*
Y56800D01*
Y57600D01*
Y58400D01*
Y59200D01*
X78300D01*
Y60000D01*
Y60800D01*
X79900D01*
Y61600D01*
Y62400D01*
Y63200D01*
Y64000D01*
X75900D01*
Y64800D01*
Y65600D01*
X78300D01*
Y66400D01*
X79900D01*
Y67200D01*
Y68000D01*
Y68800D01*
Y69600D01*
Y70400D01*
X77500D01*
Y69600D01*
X76700D01*
Y68800D01*
X75900D01*
Y69600D01*
Y70400D01*
Y71200D01*
D02*
G37*
G36*
X121500Y66400D02*
X115900D01*
Y65600D01*
Y64800D01*
Y64000D01*
X115100D01*
Y63200D01*
Y62400D01*
X115900D01*
Y61600D01*
X117500D01*
Y60800D01*
X115900D01*
Y60000D01*
Y59200D01*
Y58400D01*
Y57600D01*
Y56800D01*
Y56000D01*
Y55200D01*
Y54400D01*
Y53600D01*
Y52800D01*
Y52000D01*
X119900D01*
Y52800D01*
X120700D01*
Y53600D01*
X121500D01*
Y54400D01*
Y55200D01*
Y56000D01*
Y56800D01*
Y57600D01*
Y58400D01*
Y59200D01*
Y60000D01*
Y60800D01*
Y61600D01*
Y62400D01*
Y63200D01*
Y64000D01*
Y64800D01*
Y65600D01*
Y66400D01*
D02*
G37*
G36*
X63100D02*
X59100D01*
Y65600D01*
Y64800D01*
Y64000D01*
X60700D01*
Y63200D01*
Y62400D01*
X59900D01*
Y61600D01*
X59100D01*
Y60800D01*
Y60000D01*
Y59200D01*
Y58400D01*
Y57600D01*
Y56800D01*
Y56000D01*
Y55200D01*
Y54400D01*
Y53600D01*
X59900D01*
Y52800D01*
X60700D01*
Y52000D01*
X63100D01*
Y52800D01*
Y53600D01*
Y54400D01*
Y55200D01*
Y56000D01*
Y56800D01*
Y57600D01*
Y58400D01*
Y59200D01*
Y60000D01*
Y60800D01*
Y61600D01*
Y62400D01*
Y63200D01*
Y64000D01*
Y64800D01*
Y65600D01*
Y66400D01*
D02*
G37*
G36*
X75900Y53600D02*
X73500D01*
Y52800D01*
Y52000D01*
Y51200D01*
Y50400D01*
Y49600D01*
X77500D01*
Y50400D01*
Y51200D01*
Y52000D01*
X75900D01*
Y52800D01*
Y53600D01*
D02*
G37*
G36*
X104700Y56000D02*
X97500D01*
Y55200D01*
Y54400D01*
X96700D01*
Y53600D01*
Y52800D01*
Y52000D01*
X101500D01*
Y51200D01*
X100700D01*
Y50400D01*
Y49600D01*
X101500D01*
Y48800D01*
X104700D01*
Y49600D01*
Y50400D01*
Y51200D01*
Y52000D01*
Y52800D01*
Y53600D01*
Y54400D01*
Y55200D01*
Y56000D01*
D02*
G37*
G36*
X89500Y52000D02*
X85500D01*
Y51200D01*
Y50400D01*
Y49600D01*
Y48800D01*
X89500D01*
Y49600D01*
Y50400D01*
Y51200D01*
Y52000D01*
D02*
G37*
G36*
X55900D02*
X51900D01*
Y51200D01*
Y50400D01*
Y49600D01*
Y48800D01*
X55900D01*
Y49600D01*
Y50400D01*
Y51200D01*
Y52000D01*
D02*
G37*
G36*
X99900Y51200D02*
X95900D01*
Y50400D01*
Y49600D01*
Y48800D01*
X96700D01*
Y48000D01*
Y47200D01*
X99900D01*
Y48000D01*
Y48800D01*
Y49600D01*
Y50400D01*
Y51200D01*
D02*
G37*
G36*
X84700Y60800D02*
X80700D01*
Y60000D01*
Y59200D01*
Y58400D01*
Y57600D01*
Y56800D01*
Y56000D01*
Y55200D01*
Y54400D01*
Y53600D01*
Y52800D01*
Y52000D01*
Y51200D01*
Y50400D01*
Y49600D01*
Y48800D01*
Y48000D01*
Y47200D01*
X84700D01*
Y48000D01*
Y48800D01*
Y49600D01*
Y50400D01*
Y51200D01*
X83100D01*
Y52000D01*
X84700D01*
Y52800D01*
Y53600D01*
Y54400D01*
X83100D01*
Y55200D01*
Y56000D01*
Y56800D01*
X84700D01*
Y57600D01*
Y58400D01*
Y59200D01*
Y60000D01*
Y60800D01*
D02*
G37*
G36*
X71100Y56000D02*
X68700D01*
Y55200D01*
Y54400D01*
Y53600D01*
Y52800D01*
Y52000D01*
Y51200D01*
Y50400D01*
Y49600D01*
Y48800D01*
Y48000D01*
Y47200D01*
X71100D01*
Y48000D01*
Y48800D01*
Y49600D01*
Y50400D01*
Y51200D01*
Y52000D01*
Y52800D01*
Y53600D01*
Y54400D01*
Y55200D01*
Y56000D01*
D02*
G37*
G36*
X50300D02*
X47100D01*
Y55200D01*
Y54400D01*
Y53600D01*
Y52800D01*
Y52000D01*
Y51200D01*
Y50400D01*
Y49600D01*
Y48800D01*
Y48000D01*
Y47200D01*
X51100D01*
Y48000D01*
Y48800D01*
Y49600D01*
X50300D01*
Y50400D01*
Y51200D01*
X51100D01*
Y52000D01*
Y52800D01*
Y53600D01*
Y54400D01*
Y55200D01*
X50300D01*
Y56000D01*
D02*
G37*
G36*
X104700Y46400D02*
X102300D01*
Y45600D01*
Y44800D01*
X101500D01*
Y44000D01*
Y43200D01*
Y42400D01*
X104700D01*
Y43200D01*
Y44000D01*
Y44800D01*
Y45600D01*
Y46400D01*
D02*
G37*
G36*
X50300D02*
X47100D01*
Y45600D01*
Y44800D01*
Y44000D01*
Y43200D01*
Y42400D01*
X51100D01*
Y43200D01*
Y44000D01*
Y44800D01*
X50300D01*
Y45600D01*
Y46400D01*
D02*
G37*
G36*
X119100Y51200D02*
X115900D01*
Y50400D01*
Y49600D01*
Y48800D01*
Y48000D01*
Y47200D01*
Y46400D01*
X114300D01*
Y45600D01*
Y44800D01*
Y44000D01*
X115900D01*
Y43200D01*
Y42400D01*
X116700D01*
Y41600D01*
X119100D01*
Y42400D01*
Y43200D01*
Y44000D01*
Y44800D01*
Y45600D01*
Y46400D01*
Y47200D01*
Y48000D01*
Y48800D01*
Y49600D01*
Y50400D01*
Y51200D01*
D02*
G37*
G36*
X95100Y49600D02*
X91100D01*
Y48800D01*
Y48000D01*
Y47200D01*
Y46400D01*
Y45600D01*
Y44800D01*
Y44000D01*
Y43200D01*
Y42400D01*
Y41600D01*
X95100D01*
Y42400D01*
Y43200D01*
Y44000D01*
Y44800D01*
X94300D01*
Y45600D01*
X93500D01*
Y46400D01*
X95100D01*
Y47200D01*
Y48000D01*
Y48800D01*
Y49600D01*
D02*
G37*
G36*
X84700Y44800D02*
X80700D01*
Y44000D01*
Y43200D01*
Y42400D01*
Y41600D01*
X84700D01*
Y42400D01*
Y43200D01*
Y44000D01*
Y44800D01*
D02*
G37*
G36*
X71100Y46400D02*
X68700D01*
Y45600D01*
Y44800D01*
Y44000D01*
Y43200D01*
Y42400D01*
Y41600D01*
X71100D01*
Y42400D01*
Y43200D01*
Y44000D01*
Y44800D01*
Y45600D01*
Y46400D01*
D02*
G37*
G36*
X109500Y47200D02*
X107100D01*
Y46400D01*
X106300D01*
Y45600D01*
Y44800D01*
Y44000D01*
X105500D01*
Y43200D01*
Y42400D01*
Y41600D01*
Y40800D01*
Y40000D01*
X107100D01*
Y39200D01*
X109500D01*
Y40000D01*
Y40800D01*
Y41600D01*
Y42400D01*
Y43200D01*
Y44000D01*
Y44800D01*
Y45600D01*
Y46400D01*
Y47200D01*
D02*
G37*
G36*
X89500Y46400D02*
X85500D01*
Y45600D01*
Y44800D01*
Y44000D01*
Y43200D01*
Y42400D01*
Y41600D01*
Y40800D01*
Y40000D01*
Y39200D01*
X89500D01*
Y40000D01*
Y40800D01*
Y41600D01*
Y42400D01*
Y43200D01*
Y44000D01*
Y44800D01*
Y45600D01*
Y46400D01*
D02*
G37*
G36*
X77500Y47200D02*
X73500D01*
Y46400D01*
Y45600D01*
Y44800D01*
Y44000D01*
Y43200D01*
Y42400D01*
Y41600D01*
Y40800D01*
Y40000D01*
Y39200D01*
X75900D01*
Y40000D01*
X77500D01*
Y40800D01*
Y41600D01*
Y42400D01*
Y43200D01*
Y44000D01*
X75900D01*
Y44800D01*
X77500D01*
Y45600D01*
Y46400D01*
Y47200D01*
D02*
G37*
G36*
X55900D02*
X52700D01*
Y46400D01*
X51900D01*
Y45600D01*
Y44800D01*
Y44000D01*
X53500D01*
Y43200D01*
X52700D01*
Y42400D01*
X51900D01*
Y41600D01*
Y40800D01*
Y40000D01*
Y39200D01*
X52700D01*
Y38400D01*
X53500D01*
Y37600D01*
X55900D01*
Y38400D01*
Y39200D01*
Y40000D01*
Y40800D01*
Y41600D01*
Y42400D01*
Y43200D01*
Y44000D01*
Y44800D01*
Y45600D01*
Y46400D01*
Y47200D01*
D02*
G37*
G36*
X99900Y46400D02*
X95900D01*
Y45600D01*
Y44800D01*
Y44000D01*
X96700D01*
Y43200D01*
Y42400D01*
X97500D01*
Y41600D01*
X95900D01*
Y40800D01*
Y40000D01*
Y39200D01*
Y38400D01*
Y37600D01*
Y36800D01*
X99900D01*
Y37600D01*
Y38400D01*
Y39200D01*
Y40000D01*
Y40800D01*
Y41600D01*
Y42400D01*
Y43200D01*
Y44000D01*
Y44800D01*
Y45600D01*
Y46400D01*
D02*
G37*
%LPD*%
G36*
X108700Y158400D02*
Y157600D01*
X107100D01*
Y158400D01*
Y159200D01*
X108700D01*
Y158400D01*
D02*
G37*
G36*
X91900Y156000D02*
Y155200D01*
X90300D01*
Y156000D01*
Y156800D01*
X91900D01*
Y156000D01*
D02*
G37*
G36*
X103100D02*
Y155200D01*
X103900D01*
Y154400D01*
X102300D01*
Y155200D01*
Y156000D01*
Y156800D01*
X103100D01*
Y156000D01*
D02*
G37*
G36*
X87900Y151200D02*
Y150400D01*
X87100D01*
Y151200D01*
X86300D01*
Y152000D01*
X87900D01*
Y151200D01*
D02*
G37*
G36*
X103100D02*
Y150400D01*
Y149600D01*
X103900D01*
Y148800D01*
Y148000D01*
X102300D01*
Y148800D01*
Y149600D01*
Y150400D01*
Y151200D01*
Y152000D01*
X103100D01*
Y151200D01*
D02*
G37*
G36*
X93500Y148800D02*
Y148000D01*
X91900D01*
Y148800D01*
Y149600D01*
X93500D01*
Y148800D01*
D02*
G37*
G36*
X69500Y139200D02*
Y138400D01*
Y137600D01*
X68700D01*
Y138400D01*
Y139200D01*
Y140000D01*
X69500D01*
Y139200D01*
D02*
G37*
G36*
X71100Y136800D02*
Y136000D01*
Y135200D01*
Y134400D01*
Y133600D01*
X69500D01*
Y132800D01*
X68700D01*
Y133600D01*
Y134400D01*
Y135200D01*
X70300D01*
Y136000D01*
Y136800D01*
Y137600D01*
X71100D01*
Y136800D01*
D02*
G37*
G36*
X76700Y131200D02*
X78300D01*
Y130400D01*
X79100D01*
Y129600D01*
X78300D01*
Y130400D01*
X76700D01*
Y131200D01*
X75100D01*
Y132000D01*
X76700D01*
Y131200D01*
D02*
G37*
G36*
X71100Y129600D02*
Y128800D01*
Y128000D01*
Y127200D01*
Y126400D01*
Y125600D01*
Y124800D01*
Y124000D01*
Y123200D01*
Y122400D01*
Y121600D01*
X75900D01*
Y120800D01*
X69500D01*
Y121600D01*
X70300D01*
Y122400D01*
Y123200D01*
X68700D01*
Y124000D01*
X70300D01*
Y124800D01*
Y125600D01*
Y126400D01*
Y127200D01*
Y128000D01*
X68700D01*
Y128800D01*
Y129600D01*
Y130400D01*
X71100D01*
Y129600D01*
D02*
G37*
G36*
X53500Y157600D02*
X55100D01*
Y156800D01*
X52700D01*
Y157600D01*
Y158400D01*
X53500D01*
Y157600D01*
D02*
G37*
G36*
X55100Y151200D02*
Y150400D01*
X53500D01*
Y151200D01*
X52700D01*
Y152000D01*
X55100D01*
Y151200D01*
D02*
G37*
G36*
X54300Y146400D02*
Y145600D01*
X52700D01*
Y146400D01*
Y147200D01*
X54300D01*
Y146400D01*
D02*
G37*
G36*
X59900Y132000D02*
X60700D01*
Y131200D01*
Y130400D01*
X59100D01*
Y129600D01*
Y128800D01*
Y128000D01*
X59900D01*
Y127200D01*
Y126400D01*
Y125600D01*
X59100D01*
Y126400D01*
Y127200D01*
Y128000D01*
X57500D01*
Y128800D01*
X56700D01*
Y129600D01*
Y130400D01*
X55100D01*
Y131200D01*
Y132000D01*
X55900D01*
Y131200D01*
X59100D01*
Y132000D01*
Y132800D01*
X59900D01*
Y132000D01*
D02*
G37*
G36*
X53500Y126400D02*
X54300D01*
Y125600D01*
X52700D01*
Y126400D01*
Y127200D01*
X53500D01*
Y126400D01*
D02*
G37*
G36*
X59100Y124800D02*
Y124000D01*
Y123200D01*
Y122400D01*
Y121600D01*
Y120800D01*
Y120000D01*
Y119200D01*
X58300D01*
Y120000D01*
Y120800D01*
Y121600D01*
Y122400D01*
Y123200D01*
X57500D01*
Y124000D01*
Y124800D01*
X58300D01*
Y125600D01*
X59100D01*
Y124800D01*
D02*
G37*
G36*
X55100Y120000D02*
Y119200D01*
X52700D01*
Y120000D01*
Y120800D01*
X55100D01*
Y120000D01*
D02*
G37*
G36*
X59100Y116000D02*
Y115200D01*
Y114400D01*
X59900D01*
Y113600D01*
Y112800D01*
Y112000D01*
X60700D01*
Y111200D01*
X55900D01*
Y112000D01*
Y112800D01*
Y113600D01*
X58300D01*
Y114400D01*
Y115200D01*
Y116000D01*
Y116800D01*
X59100D01*
Y116000D01*
D02*
G37*
G36*
X50300Y67200D02*
Y66400D01*
X51100D01*
Y65600D01*
X50300D01*
Y66400D01*
X49500D01*
Y67200D01*
X48700D01*
Y68000D01*
X50300D01*
Y67200D01*
D02*
G37*
G36*
X53500Y59200D02*
X54300D01*
Y58400D01*
X52700D01*
Y59200D01*
Y60000D01*
X53500D01*
Y59200D01*
D02*
G37*
G36*
X109500Y100800D02*
Y100000D01*
X108700D01*
Y100800D01*
Y101600D01*
X109500D01*
Y100800D01*
D02*
G37*
G36*
X104700Y86400D02*
Y85600D01*
X103100D01*
Y86400D01*
X103900D01*
Y87200D01*
X104700D01*
Y86400D01*
D02*
G37*
G36*
Y81600D02*
Y80800D01*
X102300D01*
Y81600D01*
Y82400D01*
X104700D01*
Y81600D01*
D02*
G37*
G36*
X99900D02*
Y80800D01*
X95900D01*
Y81600D01*
X96700D01*
Y82400D01*
X99900D01*
Y81600D01*
D02*
G37*
G36*
X100700Y76000D02*
X101500D01*
Y75200D01*
X98300D01*
Y76000D01*
X97500D01*
Y76800D01*
X98300D01*
Y76000D01*
X99900D01*
Y76800D01*
X100700D01*
Y76000D01*
D02*
G37*
G36*
X103900Y72000D02*
Y71200D01*
X102300D01*
Y72000D01*
Y72800D01*
X103900D01*
Y72000D01*
D02*
G37*
G36*
Y67200D02*
Y66400D01*
X102300D01*
Y67200D01*
Y68000D01*
X103900D01*
Y67200D01*
D02*
G37*
G36*
X91100Y64800D02*
Y64000D01*
Y63200D01*
X88700D01*
Y64000D01*
X90300D01*
Y64800D01*
Y65600D01*
X91100D01*
Y64800D01*
D02*
G37*
G36*
X119100Y62400D02*
Y61600D01*
X117500D01*
Y62400D01*
X118300D01*
Y63200D01*
X119100D01*
Y62400D01*
D02*
G37*
D13*
X740000Y29095D02*
X736001D01*
X738001D01*
Y23097D01*
X734002Y29095D02*
Y23097D01*
Y26096D01*
X733002Y27096D01*
X731003D01*
X730003Y26096D01*
Y23097D01*
X725005D02*
X727004D01*
X728004Y24097D01*
Y26096D01*
X727004Y27096D01*
X725005D01*
X724005Y26096D01*
Y25096D01*
X728004D01*
X722006Y27096D02*
Y23097D01*
Y25096D01*
X721006Y26096D01*
X720007Y27096D01*
X719007D01*
X713009Y23097D02*
X715008D01*
X716008Y24097D01*
Y26096D01*
X715008Y27096D01*
X713009D01*
X712009Y26096D01*
Y25096D01*
X716008D01*
X704012Y27096D02*
Y24097D01*
X703012Y23097D01*
X702012Y24097D01*
X701013Y23097D01*
X700013Y24097D01*
Y27096D01*
X698014Y23097D02*
X696014D01*
X697014D01*
Y27096D01*
X698014D01*
X693015Y23097D02*
X691016D01*
X692016D01*
Y29095D01*
X693015D01*
X688017Y23097D02*
X686018D01*
X687017D01*
Y29095D01*
X688017D01*
X677020D02*
Y23097D01*
X674021D01*
X673022Y24097D01*
Y25096D01*
Y26096D01*
X674021Y27096D01*
X677020D01*
X668023Y23097D02*
X670023D01*
X671022Y24097D01*
Y26096D01*
X670023Y27096D01*
X668023D01*
X667024Y26096D01*
Y25096D01*
X671022D01*
X659026Y23097D02*
Y27096D01*
X656027D01*
X655027Y26096D01*
Y23097D01*
X652029D02*
X650029D01*
X649029Y24097D01*
Y26096D01*
X650029Y27096D01*
X652029D01*
X653028Y26096D01*
Y24097D01*
X652029Y23097D01*
X640032D02*
X638033D01*
X637033Y24097D01*
Y26096D01*
X638033Y27096D01*
X640032D01*
X641032Y26096D01*
Y24097D01*
X640032Y23097D01*
X635034Y27096D02*
Y23097D01*
Y25096D01*
X634034Y26096D01*
X633035Y27096D01*
X632035D01*
X625037Y29095D02*
Y23097D01*
X628036D01*
X629036Y24097D01*
Y26096D01*
X628036Y27096D01*
X625037D01*
X620039Y23097D02*
X622038D01*
X623038Y24097D01*
Y26096D01*
X622038Y27096D01*
X620039D01*
X619039Y26096D01*
Y25096D01*
X623038D01*
X617040Y27096D02*
Y23097D01*
Y25096D01*
X616040Y26096D01*
X615040Y27096D01*
X614041D01*
X610042Y22097D02*
X609042Y23097D01*
Y24097D01*
X610042D01*
Y23097D01*
X609042D01*
X610042Y22097D01*
X611042Y21098D01*
X598046Y23097D02*
X596047D01*
X595047Y24097D01*
Y26096D01*
X596047Y27096D01*
X598046D01*
X599046Y26096D01*
Y24097D01*
X598046Y23097D01*
X593048D02*
Y27096D01*
X590049D01*
X589049Y26096D01*
Y23097D01*
X587049D02*
X585050D01*
X586050D01*
Y29095D01*
X587049D01*
X582051Y27096D02*
Y24097D01*
X581051Y23097D01*
X578052D01*
Y22097D01*
X579052Y21098D01*
X580052D01*
X578052Y23097D02*
Y27096D01*
X566056D02*
X569055D01*
X570055Y26096D01*
Y24097D01*
X569055Y23097D01*
X566056D01*
X564057Y29095D02*
Y23097D01*
Y26096D01*
X563057Y27096D01*
X561058D01*
X560058Y26096D01*
Y23097D01*
X557059Y27096D02*
X555060D01*
X554060Y26096D01*
Y23097D01*
X557059D01*
X558059Y24097D01*
X557059Y25096D01*
X554060D01*
X551061Y23097D02*
X549062D01*
X548062Y24097D01*
Y26096D01*
X549062Y27096D01*
X551061D01*
X552061Y26096D01*
Y24097D01*
X551061Y23097D01*
X546063D02*
X543064D01*
X542064Y24097D01*
X543064Y25096D01*
X545063D01*
X546063Y26096D01*
X545063Y27096D01*
X542064D01*
X740000Y14499D02*
X736001D01*
X734002Y11500D02*
Y17498D01*
X731003D01*
X730003Y16498D01*
Y14499D01*
X731003Y13499D01*
X734002D01*
X728004Y17498D02*
X726005D01*
X727004D01*
Y11500D01*
X728004D01*
X726005D01*
M02*
