G04*
G04 #@! TF.GenerationSoftware,Altium Limited,Altium Designer,22.4.2 (48)*
G04*
G04 Layer_Color=8421504*
%FSLAX25Y25*%
%MOIN*%
G70*
G04*
G04 #@! TF.SameCoordinates,08344E4B-EA76-4565-9D62-395010ACA534*
G04*
G04*
G04 #@! TF.FilePolarity,Positive*
G04*
G01*
G75*
%ADD14R,0.06102X0.03937*%
%ADD15R,0.05512X0.03150*%
%ADD16R,0.03937X0.05709*%
%ADD17R,0.05906X0.03150*%
%ADD18R,0.06890X0.03150*%
%ADD19R,0.05906X0.05906*%
%ADD20R,0.05906X0.05118*%
%ADD21R,0.04331X0.05118*%
%ADD22R,0.07874X0.07874*%
%ADD23R,0.03543X0.02756*%
%ADD24R,0.03819X0.06811*%
%ADD25R,0.03976X0.06811*%
G04:AMPARAMS|DCode=26|XSize=39.37mil|YSize=55.91mil|CornerRadius=4.92mil|HoleSize=0mil|Usage=FLASHONLY|Rotation=90.000|XOffset=0mil|YOffset=0mil|HoleType=Round|Shape=RoundedRectangle|*
%AMROUNDEDRECTD26*
21,1,0.03937,0.04606,0,0,90.0*
21,1,0.02953,0.05591,0,0,90.0*
1,1,0.00984,0.02303,0.01476*
1,1,0.00984,0.02303,-0.01476*
1,1,0.00984,-0.02303,-0.01476*
1,1,0.00984,-0.02303,0.01476*
%
%ADD26ROUNDEDRECTD26*%
%ADD27R,0.07165X0.04567*%
D14*
X695453Y357425D02*
D03*
D15*
X705000Y359000D02*
D03*
D16*
X701653Y313232D02*
D03*
D17*
X707559Y311953D02*
D03*
D18*
X737972Y347976D02*
D03*
Y343646D02*
D03*
Y339315D02*
D03*
Y334984D02*
D03*
Y330654D02*
D03*
Y326323D02*
D03*
Y321992D02*
D03*
Y317661D02*
D03*
D19*
X737480Y357622D02*
D03*
D20*
Y312937D02*
D03*
D21*
X465760Y418500D02*
D03*
X473240D02*
D03*
D22*
X195500Y150500D02*
D03*
D23*
X164000Y477850D02*
D03*
Y484150D02*
D03*
X102000Y477850D02*
D03*
Y484150D02*
D03*
D24*
X174827Y339657D02*
D03*
X163173D02*
D03*
X174827Y380000D02*
D03*
X163173D02*
D03*
X174827Y366500D02*
D03*
X163173D02*
D03*
X174827Y285972D02*
D03*
X163173D02*
D03*
X174827Y299394D02*
D03*
X163173D02*
D03*
X174827Y312815D02*
D03*
X163173D02*
D03*
X174827Y326232D02*
D03*
X163173D02*
D03*
X174827Y353075D02*
D03*
X163173D02*
D03*
D25*
X133945Y285972D02*
D03*
X122055D02*
D03*
X133945Y299393D02*
D03*
X122055D02*
D03*
X133945Y312815D02*
D03*
X122055D02*
D03*
X133945Y326232D02*
D03*
X122055D02*
D03*
X133945Y339657D02*
D03*
X122055D02*
D03*
X133945Y353075D02*
D03*
X122055D02*
D03*
X133945Y366500D02*
D03*
X122055D02*
D03*
X133945Y380000D02*
D03*
X122055D02*
D03*
D26*
X677500Y300819D02*
D03*
Y308181D02*
D03*
Y319319D02*
D03*
Y326681D02*
D03*
Y337319D02*
D03*
Y344681D02*
D03*
Y354819D02*
D03*
Y362181D02*
D03*
D27*
X537000Y264658D02*
D03*
Y274342D02*
D03*
M02*
